<svg width="63" height="90" viewBox="0 0 63 90" fill="none" xmlns="http://www.w3.org/2000/svg">
<path d="M25.8948 70.3767C25.5972 70.3347 25.2924 70.2786 24.9913 70.2156L24.9318 70.2016C24.5885 70.128 24.2663 70.0615 23.9546 69.9915C23.9441 69.9915 23.9301 69.9845 23.9196 69.9845C23.846 69.9704 23.748 69.9494 23.6359 69.9179C23.6184 69.9109 23.5975 69.9074 23.58 69.9039C23.1702 69.7988 22.7639 69.6833 22.3647 69.5677C22.0214 69.4696 21.6537 69.3611 21.286 69.235C21.2299 69.2175 21.1775 69.2 21.1215 69.186C21.1074 69.186 21.0934 69.179 21.0794 69.172C21.0304 69.1509 20.9778 69.1299 20.9253 69.1124C20.5961 69.0004 20.2073 68.8638 19.8256 68.7062L19.6751 68.6466C19.3109 68.503 18.9676 68.3665 18.6279 68.2124C18.6104 68.2054 18.5893 68.1949 18.5718 68.1879C18.1691 68.0162 17.7944 67.8341 17.3951 67.6415C16.9959 67.4489 16.6106 67.2423 16.2219 67.0392C15.8296 66.8325 15.4654 66.6224 15.1047 66.3983C15.0872 66.3878 15.0697 66.3772 15.0522 66.3667C13.963 65.7223 12.9054 64.9974 11.9143 64.2094C11.8968 64.1954 11.8793 64.1814 11.8618 64.1709C11.8408 64.1534 11.8092 64.1324 11.7707 64.1009C11.7391 64.0728 11.7112 64.0483 11.6797 64.0238C11.4836 63.8662 11.2875 63.7051 11.0949 63.5405L10.8216 63.3129C8.84288 61.6248 7.0708 59.6636 5.57539 57.5028C5.56838 57.4923 5.56144 57.4818 5.55093 57.4713C5.38984 57.2472 5.23571 57.016 5.08512 56.7814C5.07462 56.7639 5.06407 56.7463 5.05007 56.7323C4.92049 56.5467 4.80851 56.3716 4.71045 56.193C4.68244 56.144 4.65442 56.0949 4.6229 56.0494C4.50733 55.8778 4.39167 55.6887 4.26909 55.4681C4.23758 55.412 4.20254 55.356 4.16752 55.3C4.15001 55.2719 4.12893 55.2404 4.10442 55.1914C4.09041 55.1669 4.07995 55.1424 4.06594 55.1178L3.63878 54.3544C3.5127 54.1092 3.37949 53.8536 3.24992 53.5769C3.23591 53.5489 3.22203 53.5209 3.20802 53.4929C2.87882 52.859 2.57059 52.1725 2.29042 51.4546C2.28691 51.4441 2.2799 51.4301 2.27639 51.4196C2.10829 51.0063 1.89112 50.4635 1.70901 49.8997C1.6985 49.8646 1.68454 49.8296 1.67053 49.7946C1.57597 49.5459 1.48842 49.2833 1.40787 49.0206C1.40086 48.9961 1.39384 48.9751 1.38684 48.9506C1.26776 48.5934 1.15912 48.2151 1.04705 47.7528C1.03655 47.7178 1.0296 47.6793 1.01559 47.6443C0.966558 47.4762 0.921071 47.3046 0.882547 47.1295C0.872041 47.0839 0.861589 47.0419 0.851083 46.9964C0.788044 46.7652 0.738946 46.5341 0.693418 46.2959C0.689916 46.2749 0.682898 46.2504 0.679396 46.2294C0.654881 46.1243 0.630297 46.0053 0.609284 45.8757C0.60228 45.8337 0.595337 45.7916 0.584831 45.7496C0.511286 45.4134 0.458767 45.1332 0.423746 44.8671C0.420244 44.8355 0.413226 44.8005 0.409724 44.769C0.3712 44.5484 0.329154 44.3172 0.301137 44.0861C0.283626 43.9425 0.266067 43.8094 0.252059 43.6728C0.248557 43.6168 0.241703 43.5608 0.231196 43.5082C0.192673 43.2596 0.161064 42.9969 0.140052 42.6817C0.140052 42.6642 0.140134 42.6502 0.136632 42.6327C0.0946058 42.1949 0.0630797 41.7432 0.0420668 41.2914C0.0420668 41.2809 0.0420668 41.2669 0.0420668 41.2564C0.0140496 40.8151 0 40.3248 0 39.7504C0 39.2356 0.0139607 38.7803 0.0384757 38.3636C0.0384757 38.3216 0.0420668 38.276 0.0420668 38.234C0.0420668 38.1535 0.0419915 38.0484 0.052498 37.9328C0.052498 37.9188 0.052498 37.9083 0.052498 37.8943C0.0700087 37.6211 0.0910011 37.3445 0.119018 37.0608C0.119018 37.0258 0.126029 36.9872 0.126029 36.9522C0.136536 36.7351 0.164614 36.5145 0.18913 36.2938C0.192632 36.2553 0.196059 36.2168 0.199561 36.1782C0.210067 36.0382 0.227544 35.8981 0.252059 35.751C0.259063 35.7125 0.262668 35.6774 0.269672 35.6389C0.3152 35.2677 0.353778 34.956 0.413315 34.6338C0.483358 34.21 0.546348 33.8528 0.626898 33.4816L0.651351 33.3695C0.742407 32.9388 0.826486 32.5325 0.942057 32.1298C0.949061 32.1053 0.955997 32.0807 0.959499 32.0562C1.20115 31.0721 1.49535 30.116 1.85607 29.1319C2.16426 28.2774 2.47595 27.5209 2.81916 26.8135C2.85418 26.7435 2.88229 26.6699 2.9103 26.5964C2.92431 26.5719 2.95229 26.5123 2.9628 26.4878C6.34938 19.2979 12.2785 13.74 19.6645 10.8402C20.1688 10.6441 20.5891 10.49 20.9778 10.3569C21.3595 10.2309 21.7517 10.1013 22.1405 9.98221C22.2 9.9647 22.2561 9.94368 22.3122 9.92267C22.3402 9.91216 22.3648 9.90516 22.3893 9.89816C22.4628 9.88415 22.5328 9.86664 22.6029 9.84563C22.8165 9.78259 23.0301 9.72305 23.2472 9.66702L23.5904 9.57246L23.6569 9.55845C23.6919 9.55145 23.748 9.53744 23.8146 9.52693C23.8706 9.51642 23.9301 9.50592 23.9861 9.49191C24.3468 9.40435 24.69 9.32731 25.0367 9.26427C25.0508 9.26427 25.0614 9.26077 25.0754 9.25726C25.5272 9.16271 25.9859 9.08916 26.4552 9.01211C27.4673 8.85452 28.5004 8.75646 29.6036 8.71093C29.6211 8.71093 29.6421 8.71093 29.6596 8.71093C30.0799 8.68291 30.5352 8.6689 31.0535 8.6689H31.0956C31.6174 8.6689 32.0761 8.68291 32.4928 8.70743C32.5349 8.70743 32.5804 8.71093 32.6224 8.71093C32.6785 8.71093 32.7485 8.71093 32.829 8.71793C32.8535 8.71793 32.8816 8.72144 32.9061 8.72144C33.3859 8.74595 33.8062 8.77747 34.181 8.8195C34.2055 8.8195 34.2264 8.823 34.2509 8.8265C34.7237 8.87553 35.2071 8.93857 35.6834 9.00861C35.7219 9.01562 35.7603 9.01912 35.7988 9.02262C35.8339 9.02262 35.8654 9.03313 35.8864 9.03663C35.9109 9.04013 35.9356 9.04714 35.9601 9.05064C36.4189 9.12418 36.8846 9.20823 37.3399 9.30279C37.7637 9.38334 38.2048 9.4849 38.7161 9.61799C38.7687 9.63199 38.8212 9.6425 38.8772 9.65301C39.343 9.77558 39.8264 9.91567 40.2887 10.0628C40.3027 10.0663 40.3167 10.0698 40.3308 10.0768C40.7125 10.1888 41.024 10.2939 41.3147 10.406C41.3637 10.427 41.4164 10.4445 41.469 10.4585C41.6441 10.511 41.8191 10.5811 41.9592 10.6336C41.9697 10.6371 41.9803 10.6406 41.9943 10.6476C42.5056 10.8367 42.9538 11.0188 43.3671 11.201C43.7068 11.348 44.1236 11.5302 44.5403 11.7403C44.824 11.8769 45.1391 12.0275 45.4508 12.1956C45.4613 12.2026 45.4719 12.2061 45.4824 12.2131C45.8571 12.4057 46.2597 12.6298 46.743 12.9135C47.1003 13.1236 47.4996 13.2287 47.8988 13.2287C48.3226 13.2287 48.7428 13.1096 49.114 12.875C49.8354 12.4197 50.2383 11.5967 50.1612 10.7457C50.1507 10.6161 50.1438 10.483 50.1438 10.3499C50.1438 7.98949 52.0629 6.07031 54.4233 6.07031C56.7837 6.07031 58.703 7.98949 58.703 10.3499C58.703 12.4827 57.1129 14.3039 55.0011 14.591C54.1571 14.7066 53.4462 15.2845 53.1625 16.0864C52.8788 16.8919 53.0715 17.785 53.6564 18.4049C54.1712 18.9477 54.6754 19.5185 55.1552 20.1034L55.2149 20.1805C55.3935 20.4046 55.5755 20.6322 55.7436 20.8669C55.7786 20.9159 55.8137 20.9614 55.8522 21.007C55.9082 21.0735 55.9573 21.1365 55.9958 21.1961C56.0274 21.2451 56.0624 21.2906 56.0974 21.3362C56.248 21.5288 56.3951 21.7284 56.5282 21.9315C56.5457 21.956 56.5596 21.9806 56.5771 22.0016C56.7207 22.2012 56.8643 22.4043 57.0114 22.632C57.0219 22.6495 57.0324 22.6635 57.0429 22.681C57.155 22.8491 57.26 23.0102 57.351 23.1643C57.3651 23.1853 57.3791 23.2098 57.3931 23.2308C57.5332 23.448 57.6697 23.6721 57.7958 23.8927C57.8133 23.9242 57.8309 23.9523 57.8519 23.9838C57.9535 24.1449 58.0411 24.2955 58.1182 24.4426C58.1392 24.4811 58.1601 24.5196 58.1811 24.5581C58.2897 24.7402 58.3947 24.9364 58.4963 25.1255L58.5768 25.2726C58.7204 25.5387 58.8675 25.8294 59.0426 26.1901C59.0566 26.2182 59.0707 26.2427 59.0847 26.2707C59.0917 26.2812 59.1021 26.3057 59.1161 26.3337C59.1337 26.3722 59.1513 26.4108 59.1688 26.4493C59.3509 26.824 59.533 27.2303 59.7116 27.654C59.8306 27.9342 59.9496 28.2249 60.0582 28.505L60.0722 28.5471C60.0967 28.6136 60.1178 28.6591 60.1353 28.7187C60.1528 28.7712 60.1704 28.8202 60.1914 28.8728C60.2404 28.9953 60.2894 29.1214 60.3315 29.244C60.335 29.2545 60.3384 29.265 60.3419 29.279C60.468 29.6327 60.6186 30.06 60.7552 30.5223C60.9163 31.0441 61.0565 31.5309 61.1755 31.9967C61.3226 32.5675 61.4346 33.0368 61.5222 33.4921C61.6097 33.9194 61.6937 34.3501 61.7568 34.7634C61.8688 35.4848 61.9459 36.0942 62.0054 36.6791C62.0509 37.1834 62.093 37.6597 62.114 38.1395C62.1455 38.6578 62.1561 39.1656 62.1561 39.7609C62.1561 40.3563 62.142 40.8291 62.114 41.3019C62.0895 41.7712 62.058 42.2265 62.0194 42.6432C62.0194 42.6607 62.0195 42.6747 62.016 42.6922C61.9915 43.0039 61.9634 43.2666 61.9249 43.5187C61.9144 43.5748 61.9108 43.6273 61.9038 43.6833C61.8933 43.8164 61.8759 43.9425 61.8583 44.0721C61.8233 44.3277 61.7849 44.5624 61.7463 44.783C61.7393 44.8145 61.7358 44.8461 61.7323 44.8776C61.6868 45.2103 61.6202 45.5675 61.5292 46.0053C61.5292 46.0193 61.5222 46.0368 61.5187 46.0508C61.4452 46.4395 61.3505 46.8388 61.2385 47.273C61.2245 47.3221 61.2139 47.3746 61.2034 47.4271C61.1929 47.4867 61.179 47.5322 61.1685 47.5602C61.1615 47.5812 61.1579 47.5987 61.1509 47.6198C61.0458 48.019 60.9339 48.4428 60.8043 48.8525C60.8043 48.863 60.7972 48.8735 60.7937 48.8875C60.7131 49.1607 60.6221 49.4234 60.531 49.686C60.531 49.686 60.5135 49.7316 60.51 49.7456C60.2753 50.4495 60.0337 51.0939 59.7641 51.7243C59.617 52.085 59.4979 52.3547 59.3788 52.5998C59.3683 52.6173 59.3614 52.6383 59.3543 52.6558C59.1127 53.1987 58.85 53.738 58.5664 54.2598C58.3948 54.589 58.2477 54.8587 58.0971 55.1073C58.0691 55.1529 58.0411 55.2019 58.0166 55.2509C57.9956 55.293 57.9745 55.3245 57.9605 55.3455C57.9535 55.356 57.9466 55.3665 57.9431 55.377C57.7645 55.6782 57.5928 55.9584 57.4212 56.2315C57.4036 56.2595 57.3862 56.2911 57.3687 56.3191C57.3231 56.3996 57.2776 56.4697 57.2356 56.5292C57.2076 56.5677 57.1796 56.6098 57.1551 56.6518C57.008 56.8864 56.8469 57.1211 56.7103 57.3172C56.6648 57.3802 56.6226 57.4468 56.5841 57.5168C56.5736 57.5343 56.563 57.5483 56.549 57.5658C56.5035 57.6219 56.458 57.6779 56.416 57.7374C56.2199 58.0176 56.0133 58.2978 55.8101 58.5745C55.0432 59.5936 54.1711 60.5987 53.236 61.5478C52.9594 61.8315 52.6618 62.1256 52.2976 62.4618C52.0314 62.707 51.7546 62.9556 51.4779 63.2008C51.4534 63.2218 51.4324 63.2428 51.4114 63.2638C51.3554 63.3164 51.303 63.3654 51.2469 63.4039C51.2154 63.4284 51.1874 63.4494 51.1594 63.474C50.9212 63.6771 50.6725 63.8767 50.4343 64.0728C50.3993 64.1008 50.3678 64.1289 50.3327 64.1569C50.2837 64.1884 50.2138 64.2444 50.1682 64.2795C49.832 64.5456 49.5098 64.7803 49.2646 64.9589C48.8794 65.239 48.5363 65.4772 48.2036 65.6908C48.1931 65.6978 48.1825 65.7048 48.1685 65.7118C47.9094 65.8869 47.6431 66.0515 47.3769 66.2161L47.0724 66.4053C46.3509 66.8465 45.6083 67.2493 44.8239 67.6345C44.8029 67.645 44.7854 67.6555 44.7644 67.6625C44.3861 67.8622 43.9799 68.0478 43.5596 68.2229C43.5491 68.2264 43.5351 68.2334 43.5246 68.2369C43.1323 68.405 42.7192 68.5766 42.3164 68.7342C41.9907 68.8638 41.6405 68.9933 41.2728 69.1194C41.2133 69.1404 41.1572 69.1614 41.0977 69.186C41.0452 69.207 40.9926 69.228 40.94 69.242C40.898 69.2525 40.8595 69.2665 40.8174 69.277C40.5338 69.3681 40.2571 69.4521 39.991 69.5292C39.9139 69.5502 39.8369 69.5782 39.7634 69.6097C39.6968 69.6237 39.6198 69.6412 39.5568 69.6623C39.2486 69.7533 38.9369 69.8304 38.6462 69.9039C38.6007 69.9144 38.5552 69.9284 38.5062 69.9424C38.3801 69.9809 38.2539 70.0125 38.1383 70.03C38.0788 70.0405 38.0228 70.051 37.9632 70.065C37.6936 70.1315 37.4239 70.1876 37.1438 70.2471C36.8426 70.3137 36.5344 70.3662 36.2402 70.4082V58.704C36.2717 58.697 36.4188 58.655 36.4363 58.648C36.5309 58.62 36.6185 58.5955 36.706 58.5675C36.7165 58.564 36.7306 58.5605 36.7411 58.557C37.2349 58.3994 37.7286 58.2172 38.2084 58.0141C38.4396 57.9196 38.6566 57.818 38.8702 57.7164L38.9019 57.7024C38.9684 57.6709 39.049 57.6324 39.112 57.5974C39.3292 57.5028 39.5566 57.3837 39.8333 57.2226C40.1135 57.0755 40.3833 56.9074 40.6074 56.7604C41.0907 56.4557 41.5775 56.1055 42.0959 55.6817C42.299 55.5101 42.516 55.328 42.7192 55.1424C42.7682 55.1003 42.8033 55.0688 42.8488 55.0233L42.8802 54.9918C43.0518 54.8377 43.2234 54.6696 43.3845 54.5085C43.409 54.484 43.5071 54.3824 43.5316 54.3579C43.7312 54.1478 43.917 53.9481 44.0956 53.7415C44.4843 53.3248 44.873 52.866 45.3177 52.2986C45.3247 52.2881 45.3773 52.2251 45.3948 52.2006C45.9762 51.4126 46.463 50.6666 46.8762 49.9277C47.328 49.1117 47.7098 48.2887 48.0495 47.3991C48.9285 45.0212 49.3522 42.5346 49.3522 39.7644C49.3522 34.2135 47.6326 29.6397 44.099 25.7769C43.7137 25.3426 43.311 24.9224 42.8592 24.4916C42.8172 24.4531 42.7752 24.4145 42.7332 24.3795C42.5231 24.2044 42.3094 24.0223 42.0993 23.8402C42.0888 23.8332 42.0783 23.8227 42.0678 23.8157C41.6721 23.4865 41.2308 23.1608 40.7545 22.8526C40.7055 22.8211 40.6565 22.7931 40.6074 22.765C37.8548 21 34.5101 20.1069 30.6682 20.1069C30.0413 20.1069 29.3971 20.1349 28.7001 20.1945C28.7001 20.1945 28.4793 20.2085 28.4443 20.212C26.9384 20.3661 25.4955 20.6778 24.1542 21.14C23.9826 21.1996 23.8356 21.2486 23.692 21.3116C22.3226 21.83 21.0304 22.5164 19.8502 23.3569C19.0973 23.8962 18.3757 24.5091 17.6963 25.1885L17.6893 25.1955C17.4931 25.3846 17.2656 25.6158 17.0275 25.8784C17.0275 25.8784 16.9959 25.9135 16.9854 25.924C15.0837 28.0813 13.7039 30.4873 12.8844 33.0788L12.7023 33.6742C12.6953 33.6987 12.5622 34.196 12.5622 34.196C12.3521 35.0015 12.1945 35.814 12.0894 36.6265C11.9528 37.6036 11.8863 38.6648 11.8863 39.7609C11.8863 40.7696 11.9493 41.7922 12.0684 42.7973C12.2015 43.7884 12.3835 44.727 12.6182 45.62C13.4236 48.6424 14.8596 51.2865 17.0205 53.7135C17.0275 53.724 17.0379 53.7345 17.0449 53.7415C17.6368 54.3824 18.2496 54.9708 18.922 55.5346C18.9395 55.5486 19.3738 55.8918 19.3738 55.8918C19.4053 55.9163 19.4404 55.9444 19.4754 55.9654C19.5069 55.9864 19.9938 56.3366 20.0043 56.3436C20.7257 56.8479 21.4541 57.2682 22.235 57.6324C22.4732 57.755 22.7219 57.86 22.9635 57.9616L23.0791 58.0106C23.2787 58.0947 23.4925 58.1822 23.7096 58.2558L24.0107 58.3608C24.1753 58.4204 24.3609 58.4799 24.5465 58.5394L24.592 58.5535C24.8196 58.627 24.9948 58.6795 25.1734 58.7181C25.401 58.7951 25.6393 58.8476 25.8844 58.9002V70.3977L25.8948 70.3767Z" fill="#272827"/>
<path d="M25.8948 70.3767C25.5972 70.3347 25.2924 70.2786 24.9913 70.2156L24.9318 70.2016C24.5885 70.128 24.2663 70.0615 23.9546 69.9915C23.9441 69.9915 23.9301 69.9845 23.9196 69.9845C23.846 69.9704 23.748 69.9494 23.6359 69.9179C23.6184 69.9109 23.5975 69.9074 23.58 69.9039C23.1702 69.7988 22.7639 69.6833 22.3647 69.5677C22.0214 69.4696 21.6537 69.3611 21.286 69.235C21.2299 69.2175 21.1775 69.2 21.1215 69.186C21.1074 69.186 21.0934 69.179 21.0794 69.172C21.0304 69.1509 20.9778 69.1299 20.9253 69.1124C20.5961 69.0004 20.2073 68.8638 19.8256 68.7062L19.6751 68.6466C19.3109 68.503 18.9676 68.3665 18.6279 68.2124C18.6104 68.2054 18.5893 68.1949 18.5718 68.1879C18.1691 68.0162 17.7944 67.8341 17.3951 67.6415C16.9959 67.4489 16.6106 67.2423 16.2219 67.0392C15.8296 66.8325 15.4654 66.6224 15.1047 66.3983C15.0872 66.3878 15.0697 66.3772 15.0522 66.3667C13.963 65.7223 12.9054 64.9974 11.9143 64.2094C11.8968 64.1954 11.8793 64.1814 11.8618 64.1709C11.8408 64.1534 11.8092 64.1324 11.7707 64.1009C11.7391 64.0728 11.7112 64.0483 11.6797 64.0238C11.4836 63.8662 11.2875 63.7051 11.0949 63.5405L10.8216 63.3129C8.84288 61.6248 7.0708 59.6636 5.57539 57.5028C5.56838 57.4923 5.56144 57.4818 5.55093 57.4713C5.38984 57.2472 5.23571 57.016 5.08512 56.7814C5.07462 56.7639 5.06407 56.7463 5.05007 56.7323C4.92049 56.5467 4.80851 56.3716 4.71045 56.193C4.68244 56.144 4.65442 56.0949 4.6229 56.0494C4.50733 55.8778 4.39167 55.6887 4.26909 55.4681C4.23758 55.412 4.20254 55.356 4.16752 55.3C4.15001 55.2719 4.12893 55.2404 4.10442 55.1914C4.09041 55.1669 4.07995 55.1424 4.06594 55.1178L3.63878 54.3544C3.5127 54.1092 3.37949 53.8536 3.24992 53.5769C3.23591 53.5489 3.22203 53.5209 3.20802 53.4929C2.87882 52.859 2.57059 52.1725 2.29042 51.4546C2.28691 51.4441 2.2799 51.4301 2.27639 51.4196C2.10829 51.0063 1.89112 50.4635 1.70901 49.8997C1.6985 49.8646 1.68454 49.8296 1.67053 49.7946C1.57597 49.5459 1.48842 49.2833 1.40787 49.0206C1.40086 48.9961 1.39384 48.9751 1.38684 48.9506C1.26776 48.5934 1.15912 48.2151 1.04705 47.7528C1.03655 47.7178 1.0296 47.6793 1.01559 47.6443C0.966558 47.4762 0.921071 47.3046 0.882547 47.1295C0.872041 47.0839 0.861589 47.0419 0.851083 46.9964C0.788044 46.7652 0.738946 46.5341 0.693418 46.2959C0.689916 46.2749 0.682898 46.2504 0.679396 46.2294C0.654881 46.1243 0.630297 46.0053 0.609284 45.8757C0.60228 45.8337 0.595337 45.7916 0.584831 45.7496C0.511286 45.4134 0.458767 45.1332 0.423746 44.8671C0.420244 44.8355 0.413226 44.8005 0.409724 44.769C0.3712 44.5484 0.329154 44.3172 0.301137 44.0861C0.283626 43.9425 0.266067 43.8094 0.252059 43.6728C0.248557 43.6168 0.241703 43.5608 0.231196 43.5082C0.192673 43.2596 0.161064 42.9969 0.140052 42.6817C0.140052 42.6642 0.140134 42.6502 0.136632 42.6327C0.0946058 42.1949 0.0630797 41.7432 0.0420668 41.2914C0.0420668 41.2809 0.0420668 41.2669 0.0420668 41.2564C0.0140496 40.8151 0 40.3248 0 39.7504C0 39.2356 0.0139607 38.7803 0.0384757 38.3636C0.0384757 38.3216 0.0420668 38.276 0.0420668 38.234C0.0420668 38.1535 0.0419915 38.0484 0.052498 37.9328C0.052498 37.9188 0.052498 37.9083 0.052498 37.8943C0.0700087 37.6211 0.0910011 37.3445 0.119018 37.0608C0.119018 37.0258 0.126029 36.9872 0.126029 36.9522C0.136536 36.7351 0.164614 36.5145 0.18913 36.2938C0.192632 36.2553 0.196059 36.2168 0.199561 36.1782C0.210067 36.0382 0.227544 35.8981 0.252059 35.751C0.259063 35.7125 0.262668 35.6774 0.269672 35.6389C0.3152 35.2677 0.353778 34.956 0.413315 34.6338C0.483358 34.21 0.546348 33.8528 0.626898 33.4816L0.651351 33.3695C0.742407 32.9388 0.826486 32.5325 0.942057 32.1298C0.949061 32.1053 0.955997 32.0807 0.959499 32.0562C1.20115 31.0721 1.49535 30.116 1.85607 29.1319C2.16426 28.2774 2.47595 27.5209 2.81916 26.8135C2.85418 26.7435 2.88229 26.6699 2.9103 26.5964C2.92431 26.5719 2.95229 26.5123 2.9628 26.4878C6.34938 19.2979 12.2785 13.74 19.6645 10.8402C20.1688 10.6441 20.5891 10.49 20.9778 10.3569C21.3595 10.2309 21.7517 10.1013 22.1405 9.98221C22.2 9.9647 22.2561 9.94368 22.3122 9.92267C22.3402 9.91216 22.3648 9.90516 22.3893 9.89816C22.4628 9.88415 22.5328 9.86664 22.6029 9.84563C22.8165 9.78259 23.0301 9.72305 23.2472 9.66702L23.5904 9.57246L23.6569 9.55845C23.6919 9.55145 23.748 9.53744 23.8146 9.52693C23.8706 9.51642 23.9301 9.50592 23.9861 9.49191C24.3468 9.40435 24.69 9.32731 25.0367 9.26427C25.0508 9.26427 25.0614 9.26077 25.0754 9.25726C25.5272 9.16271 25.9859 9.08916 26.4552 9.01211C27.4673 8.85452 28.5004 8.75646 29.6036 8.71093C29.6211 8.71093 29.6421 8.71093 29.6596 8.71093C30.0799 8.68291 30.5352 8.6689 31.0535 8.6689H31.0956C31.6174 8.6689 32.0761 8.68291 32.4928 8.70743C32.5349 8.70743 32.5804 8.71093 32.6224 8.71093C32.6785 8.71093 32.7485 8.71093 32.829 8.71793C32.8535 8.71793 32.8816 8.72144 32.9061 8.72144C33.3859 8.74595 33.8062 8.77747 34.181 8.8195C34.2055 8.8195 34.2264 8.823 34.2509 8.8265C34.7237 8.87553 35.2071 8.93857 35.6834 9.00861C35.7219 9.01562 35.7603 9.01912 35.7988 9.02262C35.8339 9.02262 35.8654 9.03313 35.8864 9.03663C35.9109 9.04013 35.9356 9.04714 35.9601 9.05064C36.4189 9.12418 36.8846 9.20823 37.3399 9.30279C37.7637 9.38334 38.2048 9.4849 38.7161 9.61799C38.7687 9.63199 38.8212 9.6425 38.8772 9.65301C39.343 9.77558 39.8264 9.91567 40.2887 10.0628C40.3027 10.0663 40.3167 10.0698 40.3308 10.0768C40.7125 10.1888 41.024 10.2939 41.3147 10.406C41.3637 10.427 41.4164 10.4445 41.469 10.4585C41.6441 10.511 41.8191 10.5811 41.9592 10.6336C41.9697 10.6371 41.9803 10.6406 41.9943 10.6476C42.5056 10.8367 42.9538 11.0188 43.3671 11.201C43.7068 11.348 44.1236 11.5302 44.5403 11.7403C44.824 11.8769 45.1391 12.0275 45.4508 12.1956C45.4613 12.2026 45.4719 12.2061 45.4824 12.2131C45.8571 12.4057 46.2597 12.6298 46.743 12.9135C47.1003 13.1236 47.4996 13.2287 47.8988 13.2287C48.3226 13.2287 48.7428 13.1096 49.114 12.875C49.8354 12.4197 50.2383 11.5967 50.1612 10.7457C50.1507 10.6161 50.1438 10.483 50.1438 10.3499C50.1438 7.98949 52.0629 6.07031 54.4233 6.07031C56.7837 6.07031 58.703 7.98949 58.703 10.3499C58.703 12.4827 57.1129 14.3039 55.0011 14.591C54.1571 14.7066 53.4462 15.2845 53.1625 16.0864C52.8788 16.8919 53.0715 17.785 53.6564 18.4049C54.1712 18.9477 54.6754 19.5185 55.1552 20.1034L55.2149 20.1805C55.3935 20.4046 55.5755 20.6322 55.7436 20.8669C55.7786 20.9159 55.8137 20.9614 55.8522 21.007C55.9082 21.0735 55.9573 21.1365 55.9958 21.1961C56.0274 21.2451 56.0624 21.2906 56.0974 21.3362C56.248 21.5288 56.3951 21.7284 56.5282 21.9315C56.5457 21.956 56.5596 21.9806 56.5771 22.0016C56.7207 22.2012 56.8643 22.4043 57.0114 22.632C57.0219 22.6495 57.0324 22.6635 57.0429 22.681C57.155 22.8491 57.26 23.0102 57.351 23.1643C57.3651 23.1853 57.3791 23.2098 57.3931 23.2308C57.5332 23.448 57.6697 23.6721 57.7958 23.8927C57.8133 23.9242 57.8309 23.9523 57.8519 23.9838C57.9535 24.1449 58.0411 24.2955 58.1182 24.4426C58.1392 24.4811 58.1601 24.5196 58.1811 24.5581C58.2897 24.7402 58.3947 24.9364 58.4963 25.1255L58.5768 25.2726C58.7204 25.5387 58.8675 25.8294 59.0426 26.1901C59.0566 26.2182 59.0707 26.2427 59.0847 26.2707C59.0917 26.2812 59.1021 26.3057 59.1161 26.3337C59.1337 26.3722 59.1513 26.4108 59.1688 26.4493C59.3509 26.824 59.533 27.2303 59.7116 27.654C59.8306 27.9342 59.9496 28.2249 60.0582 28.505L60.0722 28.5471C60.0967 28.6136 60.1178 28.6591 60.1353 28.7187C60.1528 28.7712 60.1704 28.8202 60.1914 28.8728C60.2404 28.9953 60.2894 29.1214 60.3315 29.244C60.335 29.2545 60.3384 29.265 60.3419 29.279C60.468 29.6327 60.6186 30.06 60.7552 30.5223C60.9163 31.0441 61.0565 31.5309 61.1755 31.9967C61.3226 32.5675 61.4346 33.0368 61.5222 33.4921C61.6097 33.9194 61.6937 34.3501 61.7568 34.7634C61.8688 35.4848 61.9459 36.0942 62.0054 36.6791C62.0509 37.1834 62.093 37.6597 62.114 38.1395C62.1455 38.6578 62.1561 39.1656 62.1561 39.7609C62.1561 40.3563 62.142 40.8291 62.114 41.3019C62.0895 41.7712 62.058 42.2265 62.0194 42.6432C62.0194 42.6607 62.0195 42.6747 62.016 42.6922C61.9915 43.0039 61.9634 43.2666 61.9249 43.5187C61.9144 43.5748 61.9108 43.6273 61.9038 43.6833C61.8933 43.8164 61.8759 43.9425 61.8583 44.0721C61.8233 44.3277 61.7849 44.5624 61.7463 44.783C61.7393 44.8145 61.7358 44.8461 61.7323 44.8776C61.6868 45.2103 61.6202 45.5675 61.5292 46.0053C61.5292 46.0193 61.5222 46.0368 61.5187 46.0508C61.4452 46.4395 61.3505 46.8388 61.2385 47.273C61.2245 47.3221 61.2139 47.3746 61.2034 47.4271C61.1929 47.4867 61.179 47.5322 61.1685 47.5602C61.1615 47.5812 61.1579 47.5987 61.1509 47.6198C61.0458 48.019 60.9339 48.4428 60.8043 48.8525C60.8043 48.863 60.7972 48.8735 60.7937 48.8875C60.7131 49.1607 60.6221 49.4234 60.531 49.686C60.531 49.686 60.5135 49.7316 60.51 49.7456C60.2753 50.4495 60.0337 51.0939 59.7641 51.7243C59.617 52.085 59.4979 52.3547 59.3788 52.5998C59.3683 52.6173 59.3614 52.6383 59.3543 52.6558C59.1127 53.1987 58.85 53.738 58.5664 54.2598C58.3948 54.589 58.2477 54.8587 58.0971 55.1073C58.0691 55.1529 58.0411 55.2019 58.0166 55.2509C57.9956 55.293 57.9745 55.3245 57.9605 55.3455C57.9535 55.356 57.9466 55.3665 57.9431 55.377C57.7645 55.6782 57.5928 55.9584 57.4212 56.2315C57.4036 56.2595 57.3862 56.2911 57.3687 56.3191C57.3231 56.3996 57.2776 56.4697 57.2356 56.5292C57.2076 56.5677 57.1796 56.6098 57.1551 56.6518C57.008 56.8864 56.8469 57.1211 56.7103 57.3172C56.6648 57.3802 56.6226 57.4468 56.5841 57.5168C56.5736 57.5343 56.563 57.5483 56.549 57.5658C56.5035 57.6219 56.458 57.6779 56.416 57.7374C56.2199 58.0176 56.0133 58.2978 55.8101 58.5745C55.0432 59.5936 54.1711 60.5987 53.236 61.5478C52.9594 61.8315 52.6618 62.1256 52.2976 62.4618C52.0314 62.707 51.7546 62.9556 51.4779 63.2008C51.4534 63.2218 51.4324 63.2428 51.4114 63.2638C51.3554 63.3164 51.303 63.3654 51.2469 63.4039C51.2154 63.4284 51.1874 63.4494 51.1594 63.474C50.9212 63.6771 50.6725 63.8767 50.4343 64.0728C50.3993 64.1008 50.3678 64.1289 50.3327 64.1569C50.2837 64.1884 50.2138 64.2444 50.1682 64.2795C49.832 64.5456 49.5098 64.7803 49.2646 64.9589C48.8794 65.239 48.5363 65.4772 48.2036 65.6908C48.1931 65.6978 48.1825 65.7048 48.1685 65.7118C47.9094 65.8869 47.6431 66.0515 47.3769 66.2161L47.0724 66.4053C46.3509 66.8465 45.6083 67.2493 44.8239 67.6345C44.8029 67.645 44.7854 67.6555 44.7644 67.6625C44.3861 67.8622 43.9799 68.0478 43.5596 68.2229C43.5491 68.2264 43.5351 68.2334 43.5246 68.2369C43.1323 68.405 42.7192 68.5766 42.3164 68.7342C41.9907 68.8638 41.6405 68.9933 41.2728 69.1194C41.2133 69.1404 41.1572 69.1614 41.0977 69.186C41.0452 69.207 40.9926 69.228 40.94 69.242C40.898 69.2525 40.8595 69.2665 40.8174 69.277C40.5338 69.3681 40.2571 69.4521 39.991 69.5292C39.9139 69.5502 39.8369 69.5782 39.7634 69.6097C39.6968 69.6237 39.6198 69.6412 39.5568 69.6623C39.2486 69.7533 38.9369 69.8304 38.6462 69.9039C38.6007 69.9144 38.5552 69.9284 38.5062 69.9424C38.3801 69.9809 38.2539 70.0125 38.1383 70.03C38.0788 70.0405 38.0228 70.051 37.9632 70.065C37.6936 70.1315 37.4239 70.1876 37.1438 70.2471C36.8426 70.3137 36.5344 70.3662 36.2402 70.4082V58.704C36.2717 58.697 36.4188 58.655 36.4363 58.648C36.5309 58.62 36.6185 58.5955 36.706 58.5675C36.7165 58.564 36.7306 58.5605 36.7411 58.557C37.2349 58.3994 37.7286 58.2172 38.2084 58.0141C38.4396 57.9196 38.6566 57.818 38.8702 57.7164L38.9019 57.7024C38.9684 57.6709 39.049 57.6324 39.112 57.5974C39.3292 57.5028 39.5566 57.3837 39.8333 57.2226C40.1135 57.0755 40.3833 56.9074 40.6074 56.7604C41.0907 56.4557 41.5775 56.1055 42.0959 55.6817C42.299 55.5101 42.516 55.328 42.7192 55.1424C42.7682 55.1003 42.8033 55.0688 42.8488 55.0233L42.8802 54.9918C43.0518 54.8377 43.2234 54.6696 43.3845 54.5085C43.409 54.484 43.5071 54.3824 43.5316 54.3579C43.7312 54.1478 43.917 53.9481 44.0956 53.7415C44.4843 53.3248 44.873 52.866 45.3177 52.2986C45.3247 52.2881 45.3773 52.2251 45.3948 52.2006C45.9762 51.4126 46.463 50.6666 46.8762 49.9277C47.328 49.1117 47.7098 48.2887 48.0495 47.3991C48.9285 45.0212 49.3522 42.5346 49.3522 39.7644C49.3522 34.2135 47.6326 29.6397 44.099 25.7769C43.7137 25.3426 43.311 24.9224 42.8592 24.4916C42.8172 24.4531 42.7752 24.4145 42.7332 24.3795C42.5231 24.2044 42.3094 24.0223 42.0993 23.8402C42.0888 23.8332 42.0783 23.8227 42.0678 23.8157C41.6721 23.4865 41.2308 23.1608 40.7545 22.8526C40.7055 22.8211 40.6565 22.7931 40.6074 22.765C37.8548 21 34.5101 20.1069 30.6682 20.1069C30.0413 20.1069 29.3971 20.1349 28.7001 20.1945C28.7001 20.1945 28.4793 20.2085 28.4443 20.212C26.9384 20.3661 25.4955 20.6778 24.1542 21.14C23.9826 21.1996 23.8356 21.2486 23.692 21.3116C22.3226 21.83 21.0304 22.5164 19.8502 23.3569C19.0973 23.8962 18.3757 24.5091 17.6963 25.1885L17.6893 25.1955C17.4931 25.3846 17.2656 25.6158 17.0275 25.8784C17.0275 25.8784 16.9959 25.9135 16.9854 25.924C15.0837 28.0813 13.7039 30.4873 12.8844 33.0788L12.7023 33.6742C12.6953 33.6987 12.5622 34.196 12.5622 34.196C12.3521 35.0015 12.1945 35.814 12.0894 36.6265C11.9528 37.6036 11.8863 38.6648 11.8863 39.7609C11.8863 40.7696 11.9493 41.7922 12.0684 42.7973C12.2015 43.7884 12.3835 44.727 12.6182 45.62C13.4236 48.6424 14.8596 51.2865 17.0205 53.7135C17.0275 53.724 17.0379 53.7345 17.0449 53.7415C17.6368 54.3824 18.2496 54.9708 18.922 55.5346C18.9395 55.5486 19.3738 55.8918 19.3738 55.8918C19.4053 55.9163 19.4404 55.9444 19.4754 55.9654C19.5069 55.9864 19.9938 56.3366 20.0043 56.3436C20.7257 56.8479 21.4541 57.2682 22.235 57.6324C22.4732 57.755 22.7219 57.86 22.9635 57.9616L23.0791 58.0106C23.2787 58.0947 23.4925 58.1822 23.7096 58.2558L24.0107 58.3608C24.1753 58.4204 24.3609 58.4799 24.5465 58.5394L24.592 58.5535C24.8196 58.627 24.9948 58.6795 25.1734 58.7181C25.401 58.7951 25.6393 58.8476 25.8844 58.9002V70.3977L25.8948 70.3767Z" fill="#272827"/>
<path d="M44.9608 78.9883H16.1172V89.3441H44.9608V78.9883Z" fill="#272827"/>
<path d="M49.8087 4.20311C50.8744 4.20311 51.7383 3.33917 51.7383 2.27343C51.7383 1.2077 50.8744 0.34375 49.8087 0.34375C48.7429 0.34375 47.8789 1.2077 47.8789 2.27343C47.8789 3.33917 48.7429 4.20311 49.8087 4.20311Z" fill="#272827"/>
<path d="M54.7582 3.93413C55.4487 3.93413 56.0084 3.37436 56.0084 2.68386C56.0084 1.99336 55.4487 1.43359 54.7582 1.43359C54.0677 1.43359 53.5078 1.99336 53.5078 2.68386C53.5078 3.37436 54.0677 3.93413 54.7582 3.93413Z" fill="#272827"/>
<path d="M62.1189 38.1283C62.0979 37.6345 62.0558 37.1372 62.0103 36.6539C61.9472 36.0095 61.8597 35.3722 61.7616 34.7383C61.6986 34.318 61.611 33.8872 61.5234 33.467C61.4254 32.9627 61.3063 32.4654 61.1802 31.9716C61.0507 31.4638 60.9105 30.9805 60.7599 30.4972C60.6303 30.0664 60.4903 29.6567 60.3397 29.2364C60.2872 29.0753 60.2207 28.9142 60.1576 28.7531C60.1366 28.6656 60.0945 28.571 60.0595 28.4834C59.9509 28.2033 59.8318 27.9126 59.7163 27.6324C59.5342 27.2017 59.3382 26.7709 59.135 26.3506C59.114 26.2876 59.0825 26.2316 59.0475 26.1685C58.8969 25.8568 58.7462 25.5556 58.5851 25.2545C58.445 24.9953 58.3049 24.7256 58.1543 24.4805C58.0563 24.2879 57.9512 24.1023 57.8322 23.9201C57.6921 23.6715 57.5415 23.4263 57.3804 23.1777C57.2718 22.9956 57.1527 22.81 57.0372 22.6384C56.8866 22.4002 56.7254 22.1761 56.5643 21.9484C56.4032 21.6998 56.2316 21.4651 56.046 21.2375C55.983 21.1289 55.8955 21.0239 55.808 20.9258C55.6049 20.6351 55.3771 20.355 55.1635 20.0853C53.7731 18.3938 52.2252 16.8563 50.5231 15.4975C50.243 15.2593 49.9629 15.0457 49.6722 14.8286C49.329 14.5694 48.9823 14.3243 48.6286 14.0861C48.401 13.925 48.1767 13.7744 47.9386 13.6238C47.8405 13.5608 47.746 13.4943 47.6375 13.4312C47.3783 13.2701 47.1086 13.109 46.8425 12.9479C46.3907 12.6783 45.9389 12.4191 45.4767 12.1845C45.1755 12.0234 44.8638 11.8728 44.5486 11.7222C44.1599 11.5296 43.7746 11.3545 43.3754 11.1828C42.9131 10.9797 42.4507 10.7941 41.985 10.6225C41.7923 10.5455 41.5962 10.4719 41.4035 10.4194C41.0498 10.2793 40.6822 10.1602 40.318 10.0517C39.8452 9.90106 39.3583 9.76097 38.8645 9.6314H38.8436C38.3498 9.50182 37.8525 9.38274 37.3482 9.28819C36.8754 9.19013 36.3991 9.10607 35.9263 9.02903C35.8738 9.01852 35.8177 9.00801 35.7757 9.00801C35.2714 8.93097 34.7635 8.86793 34.2592 8.8154H34.2488C33.797 8.76286 33.3347 8.72784 32.8724 8.70683C32.7638 8.69632 32.6658 8.69632 32.5712 8.69632C32.0879 8.6648 31.5906 8.6543 31.1073 8.6543H31.0654C30.5926 8.6543 30.1163 8.6648 29.6435 8.69632C28.5683 8.73835 27.5106 8.83641 26.4669 8.99751C25.9941 9.07455 25.5284 9.1481 25.0661 9.24616C24.6668 9.32321 24.2816 9.40726 23.8928 9.50532C23.7948 9.51582 23.7108 9.53684 23.6127 9.55785C23.224 9.66642 22.8387 9.76097 22.4605 9.88005C22.3975 9.88005 22.331 9.90106 22.268 9.93258C21.8372 10.0622 21.4064 10.2022 20.9861 10.3423C20.5448 10.4929 20.1141 10.654 19.6728 10.8256C12.2973 13.7219 6.30162 19.3744 2.95007 26.5117C2.92905 26.5538 2.908 26.5888 2.908 26.6308C2.50875 27.4398 2.16555 28.2768 1.86437 29.1173C1.51065 30.0874 1.20944 31.0645 0.960786 32.0766C0.831207 32.5284 0.733174 33.0012 0.638616 33.467C0.554565 33.8557 0.488072 34.2305 0.425033 34.6192C0.361995 34.9729 0.316405 35.3301 0.27438 35.6838C0.24286 35.8555 0.221957 36.0271 0.21145 36.2127C0.179931 36.4718 0.148426 36.731 0.137919 36.9866C0.1064 37.2983 0.0854006 37.5995 0.0643877 37.9112C0.0538813 38.0408 0.0537855 38.1599 0.0537855 38.2789C0.0222662 38.7622 0.0117188 39.249 0.0117188 39.7323C0.0117188 40.2506 0.0222662 40.755 0.0537855 41.2733C0.0747984 41.725 0.106413 42.1873 0.151941 42.6391C0.172954 42.9508 0.204323 43.2625 0.260357 43.5742C0.270864 43.7458 0.292013 43.9069 0.313026 44.068C0.344546 44.3166 0.386517 44.5618 0.432045 44.7999C0.47407 45.1326 0.540618 45.4688 0.614163 45.8015C0.635176 45.9521 0.666695 46.1027 0.701716 46.2428C0.754249 46.5125 0.81029 46.7821 0.883835 47.0413C0.925861 47.2549 0.981881 47.4721 1.04492 47.6752C1.15349 48.1165 1.27249 48.5472 1.41258 48.9675C1.49663 49.2582 1.59472 49.5488 1.70328 49.829C1.87489 50.3683 2.07799 50.8937 2.29512 51.4225C2.5753 52.1439 2.88697 52.8444 3.24419 53.5238C3.37377 53.8039 3.514 54.0736 3.65409 54.3433L4.10571 55.1523C4.13722 55.2153 4.16886 55.2819 4.22489 55.3449C4.36498 55.604 4.51551 55.8632 4.68712 56.1084C4.80619 56.322 4.93582 56.5286 5.08641 56.7422C5.24751 56.9909 5.40866 57.236 5.58027 57.4742C7.07568 59.6385 8.84426 61.5962 10.8335 63.2983C11.1452 63.5574 11.4462 63.8166 11.7579 64.0617C11.8105 64.1143 11.8771 64.1598 11.9296 64.2018C12.9312 65.0003 13.9959 65.7323 15.0956 66.3766C15.4738 66.6148 15.8484 66.8284 16.2372 67.035C16.6259 67.2382 17.0112 67.4448 17.4104 67.6374C17.8097 67.83 18.2089 68.0262 18.6152 68.1978C19.0144 68.3799 19.4347 68.541 19.8409 68.7056C20.2401 68.8667 20.6394 69.0068 21.0456 69.1468C21.0876 69.1679 21.1332 69.1889 21.1752 69.1889C21.5745 69.329 21.9737 69.448 22.38 69.5671C22.7862 69.6862 23.2099 69.8052 23.6302 69.9103C23.7387 69.9418 23.8474 69.9628 23.9525 69.9874C24.2957 70.0644 24.6528 70.1379 25.0066 70.215C25.3077 70.278 25.609 70.3341 25.9101 70.3761V58.875C25.6615 58.8225 25.4269 58.7665 25.1993 58.6929C25.0067 58.6509 24.8209 58.5949 24.6283 58.5318C24.4252 58.4688 24.2186 58.4023 24.0154 58.3287C23.9174 58.2972 23.8334 58.2657 23.7353 58.2307C23.5182 58.1536 23.3045 58.0696 23.1014 57.982C22.8212 57.8629 22.5306 57.7439 22.2609 57.6038C21.4765 57.236 20.7304 56.8053 20.009 56.301C19.8479 56.1819 19.6762 56.0628 19.5151 55.9473C19.4941 55.9367 19.4626 55.9157 19.4416 55.8947C19.291 55.7757 19.13 55.6461 18.9794 55.527C18.3105 54.9667 17.6765 54.3643 17.0636 53.6954C14.9413 51.3174 13.4566 48.6243 12.6511 45.5879C12.4129 44.6844 12.2307 43.7353 12.1011 42.7652C11.9821 41.7846 11.919 40.7725 11.919 39.7288C11.919 38.6852 11.9821 37.6065 12.1222 36.5944C12.2307 35.7644 12.3919 34.9484 12.595 34.1604C12.637 33.9993 12.6826 33.8382 12.7246 33.6771C12.7876 33.4635 12.8541 33.2569 12.9172 33.0432C13.7577 30.3956 15.1445 28.0036 17.0532 25.8498L17.0636 25.8393C17.2808 25.6012 17.505 25.3665 17.7326 25.1494C18.412 24.47 19.1334 23.8571 19.8864 23.3178C21.0806 22.4668 22.3624 21.7873 23.7317 21.2725C23.8823 21.2095 24.033 21.1535 24.1941 21.1009C25.56 20.6281 27.0168 20.3164 28.5542 20.1658C28.6172 20.1658 28.6733 20.1553 28.7363 20.1553C29.3807 20.1028 30.0392 20.0678 30.7082 20.0678C34.529 20.0678 37.856 20.9398 40.6472 22.7259H40.6576C41.1654 23.0481 41.6593 23.4053 42.1216 23.7906C42.3597 23.9937 42.5943 24.2003 42.8324 24.3929C43.2842 24.8237 43.7151 25.265 44.1353 25.7378C47.6445 29.5726 49.3885 34.1464 49.3885 39.7253C49.3885 42.513 48.9472 45.0346 48.0857 47.36C47.753 48.232 47.3644 49.0725 46.9126 49.8885C46.4608 50.6975 45.9424 51.4715 45.3821 52.2245C45.3821 52.2245 45.3715 52.2245 45.3715 52.235C44.9828 52.7288 44.5765 53.2261 44.1317 53.6989C43.9286 53.937 43.7116 54.1612 43.498 54.3888C43.498 54.3888 43.4874 54.3888 43.4874 54.3993C43.3053 54.5814 43.1127 54.7775 42.9166 54.9491C42.864 55.0017 42.808 55.0577 42.7555 55.0997C42.5524 55.2818 42.3351 55.4675 42.132 55.6391C41.6592 56.0278 41.162 56.392 40.6472 56.7142C40.3985 56.8753 40.1394 57.0364 39.8732 57.1765C39.6351 57.3166 39.4004 57.4462 39.1518 57.5547C39.0782 57.5968 39.0117 57.6423 38.9382 57.6633C38.7106 57.7719 38.4863 57.8769 38.2482 57.975C37.7649 58.1781 37.2675 58.3637 36.7632 58.5248C36.6546 58.5564 36.5497 58.5879 36.4306 58.6229C36.3781 58.6334 36.3325 58.6544 36.2799 58.6649V70.3691C36.5811 70.3271 36.8823 70.271 37.1835 70.208C37.4952 70.1449 37.7964 70.0784 38.0975 70.0049C38.2691 69.9838 38.4407 69.9418 38.6018 69.8858C39.0011 69.7877 39.3899 69.6932 39.7646 69.5741C39.7857 69.5846 39.8066 69.5741 39.8276 69.5531C40.2058 69.4445 40.5701 69.3395 40.9273 69.2204C41.0254 69.1994 41.1094 69.1679 41.197 69.1223C41.5857 68.9927 41.971 68.8527 42.3492 68.7021C42.7589 68.541 43.1792 68.3694 43.5749 68.1943C43.9952 68.0226 44.4154 67.8265 44.8251 67.6129C45.5991 67.2347 46.3557 66.8284 47.0981 66.3731C47.4764 66.135 47.8512 65.9109 48.2189 65.6622C48.5866 65.4241 48.9403 65.1789 49.294 64.9198C49.6372 64.6711 49.9734 64.4259 50.3061 64.1563C50.3377 64.1458 50.3587 64.1248 50.3937 64.0932C50.6739 63.8656 50.9644 63.631 51.2446 63.3928C51.3217 63.3403 51.3952 63.2737 51.4722 63.2002C51.7629 62.941 52.0537 62.6819 52.3339 62.4262C52.6561 62.125 52.9677 61.8239 53.2724 61.5122C54.2004 60.5771 55.0585 59.586 55.8465 58.5388C56.0846 58.2166 56.3193 57.8944 56.5469 57.5687C56.5994 57.5267 56.6344 57.4707 56.6449 57.4287C56.8515 57.138 57.0548 56.8473 57.2369 56.5461C57.3104 56.4481 57.3769 56.343 57.4294 56.2449C57.6221 55.9438 57.8042 55.6426 57.9898 55.3309C58.0213 55.2783 58.0564 55.2223 58.0774 55.1698C58.2595 54.8686 58.4311 54.5569 58.5957 54.2452C58.8864 53.7059 59.1561 53.156 59.4047 52.5992C59.5448 52.3085 59.6742 52.0073 59.8038 51.6957C60.084 51.0372 60.3328 50.3718 60.5569 49.6924C60.655 49.4123 60.7495 49.1321 60.837 48.8414C60.9666 48.4317 61.0752 48.0219 61.1802 47.6157C61.2012 47.5281 61.2328 47.444 61.2433 47.346C61.3624 46.9047 61.4708 46.4529 61.5549 46.0012C61.639 45.6019 61.7161 45.2027 61.7687 44.8069C61.8107 44.5688 61.8562 44.3236 61.8877 44.075C61.9087 43.9139 61.9297 43.7528 61.9402 43.5812C61.9927 43.2695 62.0242 42.9578 62.0488 42.6461C62.0908 42.1943 62.1224 41.7321 62.1469 41.2803C62.1784 40.762 62.1888 40.2576 62.1888 39.7393C62.1888 39.221 62.1784 38.6747 62.1469 38.1353L62.1189 38.1283Z" fill="#272827"/>
</svg>
