<svg width="85" height="54" viewBox="0 0 85 54" fill="none" xmlns="http://www.w3.org/2000/svg">
<path d="M6.66416 33.0669L6.20633 30.859L12.5653 25.0506C17.1098 21.0425 20.2299 18.028 21.9511 16.0324C23.6637 14.0284 24.9016 12.6527 25.6647 11.9224C26.4193 11.1922 27.2756 10.0882 28.2422 8.61914C29.2002 7.15007 29.7768 6.28391 29.9803 6.01217L31.7947 2.80232C32.8036 1.19738 33.3547 0.263244 33.4565 0C35.0674 0.53498 35.8814 2.13996 35.8814 4.81486C33.058 10.4279 28.9204 17.3826 23.4687 25.6706C18.017 33.9585 15.2954 38.2723 15.2954 38.6035C15.2954 38.9432 15.3717 39.1045 15.5243 39.1045C15.6769 39.1045 16.4315 38.3997 17.7965 36.9985C19.1616 35.5974 22.8667 32.0818 28.9204 26.4688C41.2313 15.2427 49.5573 7.69356 53.8984 3.81284C55.611 1.94465 56.798 1.01052 57.4594 1.01052C58.1122 1.01052 58.6718 1.30773 59.1212 1.91064C59.579 2.51356 59.7995 3.35425 59.7995 4.41572C59.7995 5.48568 58.994 7.69356 57.3746 11.0308C55.7552 14.3766 54.0425 17.5864 52.2281 20.6519C47.4801 28.6681 44.555 33.415 43.4443 34.8841C42.9355 35.9541 42.6897 36.5909 42.6897 36.7947C42.6897 36.9901 42.7405 37.092 42.8423 37.092C43.546 37.092 54.7547 26.5962 76.4514 5.61308C79.9785 2.27583 82.3525 0.602933 83.5649 0.602933C84.4721 0.602933 84.93 1.9022 84.93 4.50917C84.93 7.11613 83.4123 11.0223 80.3855 16.2363C77.3586 21.4502 74.0265 26.265 70.3977 30.6722C60.7067 42.4333 55.8654 48.921 55.8654 50.1183C55.8654 50.2542 56.0689 50.3136 56.4674 50.3136C57.6798 50.3136 64.4881 45.0318 76.9092 34.4765L83.1156 29.0673L83.2682 31.6742C67.0147 45.9743 57.1287 53.1244 53.5931 53.1244C52.9912 53.1244 52.6859 52.7253 52.6859 51.927C52.6859 46.9848 55.0345 41.1341 59.7232 34.3831C64.4118 27.6322 69.0835 21.552 73.7298 16.1343C78.3676 10.7251 80.6907 7.1501 80.6907 5.40929C80.6907 5.13755 80.6144 5.01015 80.4618 5.01015C80.3092 5.01015 79.9785 5.21397 79.4782 5.61308C78.9695 6.01219 72.6445 11.8969 60.4777 23.2589C48.311 34.6209 41.2229 41.2699 39.205 43.206C37.1871 45.1421 34.7113 48.0548 31.7862 51.927C30.7773 52.997 29.2087 53.532 27.0976 53.532C24.9779 53.532 23.9181 53.2348 23.9181 52.6319C23.9181 52.029 24.3166 51.1968 25.1305 50.1268C31.1842 42.1106 37.6703 33.0159 44.5804 22.8598C51.4904 12.7037 55.1023 7.21803 55.4076 6.41981C55.4076 6.0207 55.2549 5.81688 54.9497 5.81688C53.9408 5.81688 47.7344 11.1327 36.3307 21.7559C24.927 32.3791 18.3137 38.5695 16.4993 40.3018C11.7513 44.9808 9.25861 47.4179 9.00425 47.6217C8.7499 47.817 8.22423 48.5219 7.41876 49.7277C5.60434 52.2667 3.93405 53.5405 2.42486 53.5405C0.907196 53.0055 0.101743 52.6064 0 52.3346C2.32313 48.8615 8.07162 39.5716 17.2539 24.4648L6.66416 33.0669Z" fill="#272827"/>
</svg>
