<svg width="70" height="70" viewBox="0 0 70 70" fill="none" xmlns="http://www.w3.org/2000/svg">
<path d="M11.8955 41.1255H0.0169576C2.56901 55.7738 14.0999 67.3225 28.7085 69.8785V57.9647C20.5267 55.7738 14.0999 49.32 11.8955 41.1255ZM0 28.753H11.8955C14.0829 20.5585 20.5267 14.1048 28.7085 11.9139V0C14.0999 2.55602 2.56901 14.1048 0 28.753ZM57.8748 28.753H69.7703C67.2013 14.1048 55.6704 2.57296 41.0618 0.0169482V11.9139C49.2436 14.1217 55.6873 20.5585 57.8748 28.753ZM41.0618 57.9647V69.8615C55.6704 67.3055 67.2013 55.7568 69.7533 41.1255H57.8748C55.6704 49.3031 49.2351 55.7568 41.0618 57.9647Z" fill="#272827"/>
<path d="M34.8895 41.9922C38.7807 41.9922 41.9352 38.8328 41.9352 34.9355C41.9352 31.0383 38.7807 27.8789 34.8895 27.8789C30.9982 27.8789 27.8438 31.0383 27.8438 34.9355C27.8438 38.8328 30.9982 41.9922 34.8895 41.9922Z" fill="#272827"/>
</svg>
