<svg width="69" height="62" viewBox="0 0 69 62" fill="none" xmlns="http://www.w3.org/2000/svg">
<path d="M0 62V59.0788C2.22496 58.9637 3.75516 58.4415 4.57303 57.5297C5.3909 56.6179 5.8482 55.3432 5.93615 53.7233C6.02409 52.1034 6.06806 50.2533 6.06806 48.1907V9.92319C6.06806 8.74586 6.09444 7.60394 6.156 6.51513C6.21756 5.42633 6.27033 4.43489 6.33189 3.54969C5.27657 3.61165 4.22126 3.66476 3.16594 3.72673C2.11063 3.78869 1.05531 3.8418 0 3.90377V0H19.7959V2.92119C17.6238 2.98315 16.1111 3.47887 15.2669 4.42604C14.4138 5.37322 13.9477 6.63906 13.8598 8.23244C13.7719 9.82581 13.7279 11.6848 13.7279 13.8093V51.8112C13.7279 53.4046 13.7103 54.7678 13.6839 55.8832C13.6575 57.0074 13.5784 57.9546 13.4641 58.7159L29.9182 58.4503C33.6118 58.3883 36.4172 57.211 38.3255 54.9095C40.2339 52.6079 41.1837 48.8547 41.1837 43.6585H44.1737L43.6461 61.9911H0V62Z" fill="#272827"/>
<path d="M69.0018 0V2.92119C66.7769 3.03626 65.2467 3.55854 64.4288 4.4703C63.6109 5.38207 63.1536 6.65677 63.0657 8.2767C62.9778 9.89663 62.9338 11.7467 62.9338 13.8093V52.0768C62.9338 53.2541 62.9074 54.3961 62.8458 55.4849C62.7843 56.5737 62.7315 57.5651 62.67 58.4503C63.7253 58.3883 64.7806 58.3352 65.8359 58.2733C66.8912 58.2113 67.9465 58.1582 69.0018 58.0962V61.9911H49.2059V59.07C51.3781 59.008 52.8907 58.5123 53.735 57.5651C54.588 56.6179 55.0541 55.3521 55.142 53.7587C55.23 52.1653 55.274 50.3064 55.274 48.1819V10.1887C55.274 8.59537 55.2915 7.23215 55.3179 6.11679C55.3443 4.99258 55.4235 4.0454 55.5378 3.28412L39.0837 3.54969C35.3901 3.61165 32.5847 4.78898 30.6763 7.09052C28.768 9.39206 27.8182 13.1453 27.8182 18.3415H24.8281L25.3558 0.00885208H69.0018V0Z" fill="#272827"/>
</svg>
