<svg width="108" height="87" viewBox="0 0 108 87" fill="none" xmlns="http://www.w3.org/2000/svg">
<path d="M106.489 33.4013C106.489 44.7038 100.401 54.5713 91.3293 59.9126C86.9543 62.494 81.8841 64.014 76.4663 64.1329C69.8106 58.7831 61.722 55.1317 52.8789 53.8494C50.5557 53.5098 48.1817 53.3315 45.7653 53.3315C25.9848 53.3315 8.94283 65.0416 1.16797 81.9147C2.56694 66.9947 10.6216 54.0108 22.3305 45.9776C29.1388 41.2986 37.3037 38.9804 45.5618 39.1842C45.5958 39.1842 45.6212 39.1842 45.6551 39.1842C49.2755 39.2776 53.006 39.4729 56.5501 39.7277C60.4587 39.9994 64.1554 40.3391 67.2331 40.6448C67.4281 40.6703 67.6147 40.6873 67.8012 40.7042C67.8097 40.7042 67.8181 40.7042 67.8181 40.7127C72.1083 41.1543 75.1097 41.5279 75.6947 41.6044C75.7117 41.6129 75.7287 41.6129 75.7456 41.6129C75.788 41.6214 75.805 41.6213 75.805 41.6213C75.8304 41.6298 75.8558 41.6298 75.8813 41.6298C81.6721 42.5809 87.1324 38.2671 87.5732 32.4078C88.0226 26.4551 83.3339 21.4874 77.4837 21.4874C74.5501 21.4874 71.9048 22.7357 70.0649 24.7397C68.3947 26.5485 67.3688 28.9601 67.3688 31.6181C67.3688 33.2994 67.7757 34.8874 68.5049 36.28L53.3367 35.9658C52.6076 34.5732 52.5143 33.2994 52.5143 31.6181C52.5143 27.4146 55.0663 23.8141 58.7037 22.2771C58.7121 22.2771 58.7121 22.2771 58.7121 22.2771C59.7465 21.8271 60.1365 21.4534 60.6453 21.1138C61.9933 20.2052 62.536 19.0588 62.6292 18.4389C62.7649 17.5897 61.8238 6.28718 61.7983 6.03243C65.9528 3.901 70.65 2.67821 75.6269 2.65273C92.601 2.56781 106.489 16.4093 106.489 33.4013Z" fill="#272827"/>
<path fill-rule="evenodd" clip-rule="evenodd" d="M105.731 33.4018C105.731 16.8281 92.1832 3.32685 75.6293 3.40966C70.9548 3.43359 66.5339 4.54027 62.5941 6.47892C62.6763 7.46395 62.8578 9.69199 63.0271 11.9569C63.1379 13.44 63.244 14.945 63.3139 16.1341C63.3488 16.728 63.375 17.2477 63.3881 17.6482C63.3999 18.0071 63.4058 18.359 63.3755 18.5543C63.2464 19.4059 62.5697 20.7285 61.0666 21.7416L61.0639 21.7434C60.9679 21.8074 60.8695 21.8788 60.7626 21.9562C60.3787 22.2344 59.8863 22.5911 59.0125 22.9713L58.8682 23.0341H58.8586C55.5654 24.4887 53.2693 27.7828 53.2693 31.6186C53.2693 33.094 53.3454 34.1431 53.8154 35.2198L67.3226 35.4995C66.861 34.2932 66.611 32.9835 66.611 31.6186C66.611 28.762 67.7144 26.1697 69.5071 24.2279C71.4853 22.0736 74.3302 20.7316 77.4823 20.7316C83.7705 20.7316 88.8088 26.0714 88.3261 32.4653C87.8534 38.7466 82.0221 43.3735 75.8109 42.3854C75.7763 42.3834 75.7311 42.379 75.6805 42.3694C75.674 42.3685 75.6674 42.3676 75.6607 42.3666C75.6492 42.3656 75.6371 42.3644 75.6246 42.3629C75.5987 42.3596 75.5699 42.3548 75.5388 42.3476C74.8423 42.2577 71.8985 41.8938 67.7393 41.4657L67.0603 41.3958V41.3884C64.0062 41.0857 60.354 40.751 56.4962 40.4828L56.4945 40.4827C52.9634 40.2288 49.248 40.0343 45.644 39.9411H45.5511L45.5418 39.9409C37.4362 39.7409 29.4291 42.0165 22.7575 46.6015C12.3823 53.7197 4.92168 64.7847 2.5278 77.6322C11.1302 62.6596 27.267 52.5756 45.7639 52.5756C48.2174 52.5756 50.6277 52.7566 52.9862 53.1014C61.871 54.3898 70.005 58.0329 76.7212 63.37C81.9038 63.2099 86.751 61.7355 90.9435 59.2617C99.794 54.0508 105.731 44.4257 105.731 33.4018ZM67.7998 41.4612C67.8025 41.4612 67.8009 41.4612 67.7965 41.4612H67.7998ZM75.6217 1.89688C93.0161 1.80986 107.244 15.9917 107.244 33.4018C107.244 44.9827 101.006 55.0927 91.7123 60.5645C87.2283 63.2104 82.0319 64.7679 76.4815 64.8897L76.2059 64.8957L75.991 64.723C69.4375 59.4553 61.4743 55.8608 52.7689 54.5986C50.4814 54.2641 48.143 54.0884 45.7639 54.0884C26.2898 54.0884 9.50965 65.6164 1.85355 82.2318L0 86.2544L0.41348 81.8446C1.83411 66.6936 10.0136 53.5102 21.9012 45.3544C28.8435 40.5835 37.1623 38.2228 45.5696 38.4283H45.6635L45.6732 38.4286C49.3065 38.5223 53.0485 38.7183 56.602 38.9737C60.5205 39.2461 64.2248 39.5865 67.3065 39.8926L67.3181 39.8938L67.3297 39.8953C67.5017 39.9178 67.6681 39.9333 67.8491 39.9497C67.8515 39.9499 67.8541 39.95 67.8567 39.9502C67.8795 39.9517 67.9281 39.9557 67.9895 39.9707C72.2353 40.4086 75.2034 40.7781 75.7913 40.8549L75.8076 40.857H75.8192L75.841 40.8614L75.8709 40.8653L75.9256 40.8651L75.962 40.8773L76.0025 40.8839C81.3529 41.7627 86.4098 37.7707 86.8176 32.3516C87.2337 26.84 82.8946 22.2444 77.4823 22.2444C74.7676 22.2444 72.3222 23.3985 70.6208 25.2518L70.6193 25.2534C69.0719 26.9291 68.1238 29.1597 68.1238 31.6186C68.1238 33.1768 68.5007 34.6445 69.1736 35.9297L69.7671 37.0633L52.8726 36.7133L52.6652 36.3172C51.8472 34.7549 51.7565 33.3261 51.7565 31.6186C51.7565 27.1009 54.5001 23.2322 58.4078 21.5809L58.549 21.5213H58.5502C59.1663 21.2411 59.4844 21.0114 59.8258 20.7648C59.9498 20.6752 60.077 20.5834 60.2226 20.4861C61.4131 19.6831 61.8215 18.7151 61.8799 18.3269L61.8807 18.3216C61.8804 18.3229 61.8805 18.3212 61.8808 18.316C61.8817 18.3004 61.8844 18.2532 61.8848 18.1597C61.8853 18.0434 61.8824 17.8887 61.8761 17.6977C61.8637 17.3166 61.8384 16.8119 61.8037 16.2229C61.7345 15.0459 61.6292 13.5502 61.5185 12.0697C61.4079 10.5898 61.2922 9.12822 61.2026 8.02052C61.1578 7.46672 61.1196 7.0016 61.0917 6.66714C61.0778 6.49988 61.0665 6.36549 61.0583 6.26912L61.0484 6.15438L61.0454 6.12077C61.0446 6.11158 61.0443 6.10811 61.0443 6.10812L60.9931 5.59525L61.4517 5.35997C65.7082 3.17621 70.522 1.92299 75.6217 1.89688Z" fill="#272827"/>
<path d="M82.5121 15.7051C78.4509 15.7051 74.6948 17.0213 71.651 19.2546C68.4715 21.5814 66.5045 25.2668 66.4876 29.2069C66.4706 33.0961 67.7424 36.2721 67.7424 36.2721L67.31 28.0436L70.1927 22.94L73.8979 20.4434L82.4528 21.1568L87.8621 25.1479L90.855 34.1406L84.0128 41.7068L67.0556 43.1334L66.4113 43.0994L36.414 41.7068L24.2981 46.5556L12.8944 56.6947C12.8944 56.6947 2.63534 65.9677 1.21094 81.2444C3.68668 74.5614 4.16997 73.2876 6.24722 70.4853C12.1907 62.4945 20.1436 56.1937 29.309 52.3214C45.5709 45.4346 53.829 49.273 66.3689 51.328C70.286 51.9648 81.0283 52.5847 82.5036 52.5847C87.0397 52.5847 91.1857 50.9458 94.3991 48.2199C96.1372 46.7509 97.604 44.9506 98.6977 42.9296C98.7062 42.9126 98.7147 42.9041 98.7232 42.8871C98.7655 42.8022 98.7995 42.7258 98.8334 42.6409C100.114 39.7707 100.834 36.6797 100.919 33.5717C100.622 23.6618 92.4914 15.7051 82.5121 15.7051Z" fill="#272827"/>
<path d="M67.9544 35.0317C67.9544 35.0317 67.8527 34.8109 67.717 34.4203C64.7495 26.0305 72.0157 17.5642 80.7656 19.0927C85.5814 19.9334 88.5744 22.3705 88.5744 22.3705C88.5744 22.3705 86.8786 18.2605 84.937 17.4453C93.1698 20.3325 103.429 40.7806 80.5536 44.8482C85.7255 45.4681 91.6691 44.2028 91.6691 44.2028C91.6691 44.2028 66.7674 50.7839 50.9464 43.9905C51.7264 45.5955 54.6855 46.6654 54.6855 46.6654C54.6855 46.6654 39.2968 40.5598 20.1607 51.701C26.2568 49.3488 30.0976 49.3488 30.0976 49.3488C30.0976 49.3488 8.51109 54.5967 1.16016 81.9147C1.88084 81.9147 2.1691 63.4536 14.9039 52.2275C27.6388 41.0014 33.9638 40.1013 33.9638 40.1013C33.9638 40.1013 46.3425 36.9933 64.5121 40.39C82.6817 43.7867 84.9794 39.855 86.5565 36.0932C88.1335 32.3314 89.2696 24.0604 79.2988 21.6657C69.328 19.271 67.3864 30.9387 67.3864 30.9387L67.9544 35.0317Z" fill="#272827"/>
<path fill-rule="evenodd" clip-rule="evenodd" d="M61.8806 6.04266H61.7148V6.03552L61.8806 6.03516V6.04266Z" fill="#272827"/>
<path fill-rule="evenodd" clip-rule="evenodd" d="M105.731 33.4018C105.731 16.8281 92.1832 3.32685 75.6293 3.40966C70.9548 3.43359 66.5339 4.54027 62.5941 6.47892C62.6763 7.46395 62.8578 9.69199 63.0271 11.9569C63.1379 13.44 63.244 14.945 63.3139 16.1341C63.3488 16.728 63.375 17.2477 63.3881 17.6482C63.3999 18.0071 63.4058 18.359 63.3755 18.5543C63.2464 19.4059 62.5697 20.7285 61.0666 21.7416L61.0639 21.7434C60.9679 21.8074 60.8695 21.8788 60.7626 21.9562C60.3787 22.2344 59.8863 22.5911 59.0125 22.9713L58.8682 23.0341H58.8586C55.5654 24.4887 53.2693 27.7828 53.2693 31.6186C53.2693 33.094 53.3454 34.1431 53.8154 35.2198L67.3226 35.4995C66.861 34.2932 66.611 32.9835 66.611 31.6186C66.611 28.762 67.7144 26.1697 69.5071 24.2279C71.4853 22.0736 74.3302 20.7316 77.4823 20.7316C83.7705 20.7316 88.8088 26.0714 88.3261 32.4653C87.8534 38.7466 82.0221 43.3735 75.8109 42.3854C75.7763 42.3834 75.7311 42.379 75.6805 42.3694C75.674 42.3685 75.6674 42.3676 75.6607 42.3666C75.6492 42.3656 75.6371 42.3644 75.6246 42.3629C75.5987 42.3596 75.5699 42.3548 75.5388 42.3476C74.8423 42.2577 71.8985 41.8938 67.7393 41.4657L67.0603 41.3958V41.3884C64.0062 41.0857 60.354 40.751 56.4962 40.4828L56.4945 40.4827C52.9634 40.2288 49.248 40.0343 45.644 39.9411H45.5511L45.5418 39.9409C37.4362 39.7409 29.4291 42.0165 22.7575 46.6015C12.3823 53.7197 4.92168 64.7847 2.5278 77.6322C11.1302 62.6596 27.267 52.5756 45.7639 52.5756C48.2174 52.5756 50.6277 52.7566 52.9862 53.1014C61.871 54.3898 70.005 58.0329 76.7212 63.37C81.9038 63.2099 86.751 61.7355 90.9435 59.2617C99.794 54.0508 105.731 44.4257 105.731 33.4018ZM67.7998 41.4612C67.8025 41.4612 67.8009 41.4612 67.7965 41.4612H67.7998ZM75.6217 1.89688C93.0161 1.80986 107.244 15.9917 107.244 33.4018C107.244 44.9827 101.006 55.0927 91.7123 60.5645C87.2283 63.2104 82.0319 64.7679 76.4815 64.8897L76.2059 64.8957L75.991 64.723C69.4375 59.4553 61.4743 55.8608 52.7689 54.5986C50.4814 54.2641 48.143 54.0884 45.7639 54.0884C26.2898 54.0884 9.50965 65.6164 1.85355 82.2318L0 86.2544L0.41348 81.8446C1.83411 66.6936 10.0136 53.5102 21.9012 45.3544C28.8435 40.5835 37.1623 38.2228 45.5696 38.4283H45.6635L45.6732 38.4286C49.3065 38.5223 53.0485 38.7183 56.602 38.9737C60.5205 39.2461 64.2248 39.5865 67.3065 39.8926L67.3181 39.8938L67.3297 39.8953C67.5017 39.9178 67.6681 39.9333 67.8491 39.9497C67.8515 39.9499 67.8541 39.95 67.8567 39.9502C67.8795 39.9517 67.9281 39.9557 67.9895 39.9707C72.2353 40.4086 75.2034 40.7781 75.7913 40.8549L75.8076 40.857H75.8192L75.841 40.8614L75.8709 40.8653L75.9256 40.8651L75.962 40.8773L76.0025 40.8839C81.3529 41.7627 86.4098 37.7707 86.8176 32.3516C87.2337 26.84 82.8946 22.2444 77.4823 22.2444C74.7676 22.2444 72.3222 23.3985 70.6208 25.2518L70.6193 25.2534C69.0719 26.9291 68.1238 29.1597 68.1238 31.6186C68.1238 33.1768 68.5007 34.6445 69.1736 35.9297L69.7671 37.0633L52.8726 36.7133L52.6652 36.3172C51.8472 34.7549 51.7565 33.3261 51.7565 31.6186C51.7565 27.1009 54.5001 23.2322 58.4078 21.5809L58.549 21.5213H58.5502C59.1663 21.2411 59.4844 21.0114 59.8258 20.7648C59.9498 20.6752 60.077 20.5834 60.2226 20.4861C61.4131 19.6831 61.8215 18.7151 61.8799 18.3269L61.8807 18.3216C61.8804 18.3229 61.8805 18.3212 61.8808 18.316C61.8817 18.3004 61.8844 18.2532 61.8848 18.1597C61.8853 18.0434 61.8824 17.8887 61.8761 17.6977C61.8637 17.3166 61.8384 16.8119 61.8037 16.2229C61.7345 15.0459 61.6292 13.5502 61.5185 12.0697C61.4079 10.5898 61.2922 9.12822 61.2026 8.02052C61.1578 7.46672 61.1196 7.0016 61.0917 6.66714C61.0778 6.49988 61.0665 6.36549 61.0583 6.26912L61.0484 6.15438L61.0454 6.12077C61.0446 6.11158 61.0443 6.10811 61.0443 6.10812L60.9931 5.59525L61.4517 5.35997C65.7082 3.17621 70.522 1.92299 75.6217 1.89688Z" fill="#272827"/>
<path d="M56.3417 4.17494C56.0534 -0.537977 53.637 -0.393605 50.9239 4.71843C49.2282 7.91132 46.0911 8.24248 43.9715 8.03867H39.6304C37.5108 8.24248 34.3737 7.91981 32.678 4.71843C29.9733 -0.393605 27.5484 -0.537977 27.2602 4.17494C27.0482 7.64806 26.6073 12.6412 26.3869 15.0274C26.2512 16.5389 26.9973 18.008 28.3454 18.7043C28.3624 18.7128 28.3793 18.7213 28.3963 18.7298C30.109 19.5875 34.0939 23.5955 35.8066 28.0877C37.0868 31.4589 39.817 31.8156 41.0972 31.7816C41.5635 31.7731 42.0214 31.7731 42.4877 31.7816C43.768 31.8156 46.4981 31.4504 47.7784 28.0877C49.491 23.5955 53.476 19.5875 55.1886 18.7298C55.2056 18.7213 55.2225 18.7128 55.2395 18.7043C56.5791 18.008 57.3337 16.5389 57.1981 15.0274C56.9946 12.6412 56.5537 7.64806 56.3417 4.17494Z" fill="#272827"/>
<path fill-rule="evenodd" clip-rule="evenodd" d="M56.4182 1.19032C56.8049 1.90176 57.0204 2.90508 57.0952 4.12759C57.2812 7.175 57.6443 11.4002 57.8677 13.9995C57.898 14.352 57.9257 14.6745 57.9501 14.9602C58.1108 16.7574 57.215 18.528 55.5869 19.3743L55.5768 19.3795L55.5258 19.405C54.8066 19.7652 53.4615 20.8887 52.0576 22.5354C50.6709 24.1619 49.3005 26.2133 48.4836 28.356C47.7766 30.213 46.6438 31.2896 45.4731 31.8821C44.3237 32.4638 43.1864 32.5553 42.4692 32.5366C42.0143 32.5284 41.5677 32.5284 41.1127 32.5366C40.397 32.5553 39.2595 32.4664 38.1094 31.8856C36.9379 31.2939 35.8051 30.2168 35.0982 28.3556C34.2813 26.2131 32.911 24.1618 31.5244 22.5354C30.1205 20.8887 28.7754 19.7652 28.0561 19.405L27.9968 19.3752C26.356 18.5277 25.4709 16.7539 25.632 14.9586L25.6322 14.9567C25.8526 12.5708 26.2925 7.58796 26.5037 4.12769C26.5785 2.90491 26.7946 1.9013 27.1823 1.18972C27.5861 0.448376 28.2455 -0.0697179 29.1275 0.00764528C29.9023 0.0755924 30.6321 0.597024 31.2836 1.29804C31.9566 2.02229 32.6511 3.0518 33.3449 4.3632C34.823 7.15374 37.5448 7.478 39.5565 7.28457L39.5927 7.2811H44.0063L44.0424 7.28457C46.0525 7.47784 48.776 7.14616 50.2544 4.36246C50.9503 3.05124 51.6458 2.02192 52.3191 1.29786C52.9706 0.597188 53.7003 0.0756316 54.4745 0.00765154C55.3567 -0.0698107 56.0153 0.449125 56.4182 1.19032ZM53.427 2.32802C52.8751 2.92147 52.2512 3.82715 51.5906 5.07185C49.688 8.65422 46.1656 9.00104 43.9343 8.7939H39.6646C37.4349 9.00099 33.9109 8.66374 32.0081 5.0713C31.3497 3.82683 30.7267 2.92107 30.1754 2.32784C29.6025 1.7113 29.201 1.5327 28.9954 1.51466C28.8971 1.50604 28.7272 1.51602 28.5107 1.91337C28.2781 2.34046 44.8593 20.4203 44.79 21.5539M53.427 2.32802C54.0006 1.71114 54.4018 1.53266 54.6068 1.51465L53.427 2.32802ZM54.6068 1.51465C54.7038 1.50613 54.873 1.51528 55.089 1.91277L54.6068 1.51465ZM55.089 1.91277C55.3213 2.34001 55.5159 3.086 55.5852 4.21995L55.089 1.91277ZM55.5852 4.21995C55.7725 7.28824 56.1375 11.5354 56.3607 14.1316C56.391 14.484 56.4186 14.806 56.4429 15.0905L56.4432 15.0939C56.553 16.3174 55.9416 17.4824 54.8937 18.0296L54.8485 18.0523C53.8551 18.5498 52.3513 19.8591 50.9064 21.5539C49.4443 23.2689 47.9659 25.4675 47.0701 27.817C46.4969 29.3225 45.6244 30.1101 44.79 30.5323C43.9359 30.9646 43.0696 31.0392 42.5063 31.0243L42.5 31.0242C42.0245 31.0155 41.5575 31.0155 41.082 31.0242L41.0757 31.0243C40.511 31.0393 39.6449 30.9663 38.7914 30.5352C37.9579 30.1143 37.0855 29.3276 36.5122 27.818C35.6164 25.4684 34.1377 23.2689 32.6756 21.5539C31.2306 19.8591 29.7269 18.5498 28.7335 18.0523L28.6873 18.0291C27.6345 17.4833 27.029 16.3208 27.1387 15.0948C27.3592 12.7079 44.5773 25.0394 44.79 21.5539" fill="#272827"/>
<path d="M41.8073 24.7318L31.5312 21.3945C31.5312 21.3945 33.3626 23.5854 34.3546 24.8761C34.8633 25.53 35.796 27.3302 36.593 28.9182C37.4663 30.676 39.2552 31.7884 41.2138 31.7884H41.8073H42.4008C44.3593 31.7884 46.1483 30.676 47.0216 28.9182C47.8101 27.3218 48.7428 25.53 49.26 24.8761C50.2605 23.5939 52.0833 21.3945 52.0833 21.3945L41.8073 24.7318Z" fill="#272827"/>
<path d="M41.4183 8.35148C41.4183 8.35148 39.8243 8.52982 38.5271 7.83349C38.0099 7.55327 37.4164 7.45138 36.8398 7.58725C34.186 8.21564 30.7353 1.43074 30.7353 1.43074L29.1328 0.539062C29.1328 0.539062 31.1083 7.31547 33.3721 8.60622C35.2967 9.70165 40.0363 9.76113 41.4183 9.75264C42.7918 9.76113 47.5398 9.70165 49.4645 8.60622C51.7283 7.32397 54.3057 0.887253 54.3057 0.887253L53.4833 1.00615C53.4833 1.00615 49.6679 8.47889 44.8182 7.79955C44.4197 7.77407 44.0212 7.79951 43.6312 7.86744C42.4018 8.07124 41.4183 8.35148 41.4183 8.35148Z" fill="#272827"/>
<path fill-rule="evenodd" clip-rule="evenodd" d="M56.4182 1.19032C56.8049 1.90176 57.0204 2.90508 57.0952 4.12759C57.2812 7.175 57.6443 11.4002 57.8677 13.9995C57.898 14.352 57.9257 14.6745 57.9501 14.9602C58.1108 16.7574 57.215 18.528 55.5869 19.3743L55.5768 19.3795L55.5258 19.405C54.8066 19.7652 53.4615 20.8887 52.0576 22.5354C50.6709 24.1619 49.3005 26.2133 48.4836 28.356C47.7766 30.213 46.6438 31.2896 45.4731 31.8821C44.3237 32.4638 43.1864 32.5553 42.4692 32.5366C42.0143 32.5284 41.5677 32.5284 41.1127 32.5366C40.397 32.5553 39.2595 32.4664 38.1094 31.8856C36.9379 31.2939 35.8051 30.2168 35.0982 28.3556C34.2813 26.2131 32.911 24.1618 31.5244 22.5354C30.1205 20.8887 28.7754 19.7652 28.0561 19.405L27.9968 19.3752C26.356 18.5277 25.4709 16.7539 25.632 14.9586L25.6322 14.9567C25.8526 12.5708 26.2925 7.58796 26.5037 4.12769C26.5785 2.90491 26.7946 1.9013 27.1823 1.18972C27.5861 0.448376 28.2455 -0.0697179 29.1275 0.00764528C29.9023 0.0755924 30.6321 0.597024 31.2836 1.29804C31.9566 2.02229 32.6511 3.0518 33.3449 4.3632C34.823 7.15374 37.5448 7.478 39.5565 7.28457L39.5927 7.2811H44.0063L44.0424 7.28457C46.0525 7.47784 48.776 7.14616 50.2544 4.36246C50.9503 3.05124 51.6458 2.02192 52.3191 1.29786C52.9706 0.597188 53.7003 0.0756316 54.4745 0.00765154C55.3567 -0.0698107 56.0153 0.449125 56.4182 1.19032ZM53.427 2.32802C52.8751 2.92147 52.2512 3.82715 51.5906 5.07185C49.688 8.65422 46.1656 9.00104 43.9343 8.7939H39.6646C37.4349 9.00099 33.9109 8.66374 32.0081 5.0713C31.3497 3.82683 30.7267 2.92107 30.1754 2.32784C29.6025 1.7113 29.201 1.5327 28.9954 1.51466C28.8971 1.50604 28.7272 1.51602 28.5107 1.91337C28.2781 2.34046 43.3164 21.4017 43.2471 22.5354M53.427 2.32802C54.0006 1.71114 54.4018 1.53266 54.6068 1.51465L53.427 2.32802ZM54.6068 1.51465C54.7038 1.50613 54.873 1.51528 55.089 1.91277L54.6068 1.51465ZM55.089 1.91277C55.3213 2.34001 55.5159 3.086 55.5852 4.21995L55.089 1.91277ZM55.5852 4.21995C55.7725 7.28824 56.1375 11.5354 56.3607 14.1316C56.391 14.484 56.4186 14.806 56.4429 15.0905L56.4432 15.0939C56.553 16.3174 55.9416 17.4824 54.8937 18.0296L54.8485 18.0523C53.8551 18.5498 52.3513 19.8591 50.9064 21.5539C49.4443 23.2689 47.9659 25.4675 47.0701 27.817C46.4969 29.3225 45.6244 30.1101 44.79 30.5323C43.9359 30.9646 43.0696 31.0392 42.5063 31.0243L42.5 31.0242C42.0245 31.0155 41.5575 31.0155 41.082 31.0242L41.0757 31.0243C40.511 31.0393 39.6449 30.9663 38.7914 30.5352C37.9579 30.1143 37.0855 29.3276 36.5122 27.818C35.6164 25.4684 34.1377 23.2689 32.6756 21.5539C31.2306 19.8591 29.7269 18.5498 28.7335 18.0523L28.6873 18.0291C27.6345 17.4833 27.029 16.3208 27.1387 15.0948C27.3592 12.7079 43.0343 26.0208 43.2471 22.5354" fill="#272827"/>
<path opacity="0.12" d="M49.1329 15.9342C49.1244 15.9342 49.1159 15.9427 49.1159 15.9427C48.7005 16.138 41.9261 19.3904 41.8074 21.0378C41.7904 21.0378 41.765 21.0378 41.748 21.0463V21.0378C41.6802 20.0527 39.2045 18.4818 37.1527 17.3439C37.0933 17.3099 37.034 17.276 36.9661 17.242C36.8983 17.208 36.8304 17.1741 36.7626 17.1316C36.432 16.9618 36.0589 16.7834 35.635 16.6051C35.2704 16.4438 34.9143 16.2484 34.5836 16.0107C34.4904 15.9597 34.431 15.9343 34.4141 15.9258C34.5752 16.189 40.1117 25.0968 39.2808 28.6209C39.2808 28.6209 41.7141 27.5764 41.7395 27.2962C41.748 27.2198 41.7565 26.8631 41.7735 26.3536C41.7819 26.8631 41.7989 27.2198 41.8074 27.2962C41.8328 27.5849 44.2577 28.6209 44.2577 28.6209C43.4268 25.1053 48.9633 16.189 49.1329 15.9342Z" fill="#272827"/>
<path d="M49.5676 15.5437C49.432 15.6796 49.2878 15.8154 49.1352 15.9343C49.1267 15.9343 49.1182 15.9428 49.1182 15.9428C48.7028 16.1381 41.9284 19.3905 41.8097 21.0379C41.7928 21.0379 41.7673 21.0379 41.7504 21.0464V21.0379C41.6825 20.0528 39.2068 18.4819 37.155 17.344C37.0956 17.31 37.0363 17.276 36.9684 17.2421C36.9006 17.2081 36.8328 17.1741 36.7649 17.1317C36.4343 16.9618 36.0612 16.7835 35.6373 16.6052C35.2727 16.4438 34.9166 16.2485 34.586 16.0108C34.391 15.8664 34.2044 15.7136 34.0348 15.5437C32.3052 13.7859 34.1281 12.8264 36.6971 13.166C39.6392 13.5567 41.8012 13.5566 41.8012 13.5566C41.8012 13.5566 43.9548 13.5567 46.8969 13.166C49.4743 12.8179 51.2972 13.7859 49.5676 15.5437Z" fill="#272827"/>
<path d="M41.8073 31.7886C43.2261 31.7886 44.3763 30.6366 44.3763 29.2155C44.3763 27.7945 43.2261 26.6426 41.8073 26.6426C40.3885 26.6426 39.2383 27.7945 39.2383 29.2155C39.2383 30.6366 40.3885 31.7886 41.8073 31.7886Z" fill="#272827"/>
<path opacity="0.84" d="M45.291 23.5938L41.7979 24.7232L38.3047 23.5938C38.3047 23.5938 39.8987 26.6338 39.2204 29.2068C41.7894 29.2068 41.7894 29.2068 41.7894 29.2068C41.7894 29.2068 41.7894 29.2068 44.3584 29.2068C43.6971 26.6338 45.291 23.5938 45.291 23.5938Z" fill="#272827"/>
</svg>
