<svg width="96" height="54" viewBox="0 0 96 54" fill="none" xmlns="http://www.w3.org/2000/svg">
<path d="M32.3751 10.9979V53.3632H21.6328V0C27.6965 0 32.3751 4.92476 32.3751 10.9979Z" fill="#272827"/>
<path d="M42.4375 5.35666C42.4375 7.88455 44.192 10.004 46.5543 10.5512C46.9391 10.6437 47.3469 10.6899 47.7625 10.6899C50.702 10.6899 53.0874 8.30073 53.0874 5.35666C53.0874 4.86341 53.0182 4.37788 52.8874 3.92317C52.2641 1.67273 50.2018 0.0234375 47.7625 0.0234375C44.823 0.0234375 42.4375 2.41259 42.4375 5.35666Z" fill="#272827"/>
<path d="M69.062 0.0078125V0.0155035C69.6545 1.68021 69.9777 3.48364 69.9777 5.35644C69.9777 7.22153 69.6545 9.02498 69.062 10.6897V10.7051C78.4884 10.7051 85.9988 18.8745 84.9369 28.5237C84.1289 35.853 78.2037 41.7874 70.8857 42.5966C61.2515 43.6602 53.1102 36.1459 53.0948 26.7048C51.4327 27.2982 49.632 27.6219 47.7621 27.6219C45.8845 27.6219 44.0839 27.2982 42.4141 26.6971C42.4141 42.0725 55.3879 54.4037 70.955 53.3247C84.0904 52.4153 94.7404 41.7489 95.6484 28.593C96.7257 12.9941 84.4136 0.0078125 69.062 0.0078125Z" fill="#272827"/>
<path d="M10.75 10.9979V53.3632H0V0C6.0637 0 10.75 4.92476 10.75 10.9979Z" fill="#272827"/>
</svg>
