<svg width="69" height="68" viewBox="0 0 69 68" fill="none" xmlns="http://www.w3.org/2000/svg">
<path d="M13.1249 33.9585C13.1249 28.4473 15.2106 23.6155 19.3905 19.4291C23.562 15.3446 28.6067 13.3065 34.5163 13.3065C37.6958 13.3065 40.6718 13.9944 43.4443 15.3615L52.9233 5.86777C47.2596 1.95308 40.9685 0 34.067 0C25.1051 0 17.2115 3.42218 10.3863 10.2495C3.45926 16.9835 0 24.7365 0 33.5084C0 40.6585 2.0603 47.0612 6.18089 52.6998L15.6091 43.2569C13.9558 40.4122 13.1249 37.3212 13.1249 33.9585Z" fill="#272827"/>
<path d="M62.2652 14.9023L52.9896 24.1923C54.6345 27.0116 55.4484 30.1196 55.4484 33.5078C55.4484 39.0189 53.3627 43.8677 49.1828 48.0371C45.0113 52.1217 40.1276 54.1597 34.5148 54.1597C31.1488 54.1597 28.0202 53.4634 25.1544 52.0707L15.5312 61.7173C21.3221 65.6575 27.7998 67.6191 34.9811 67.6191C43.731 67.6191 51.472 64.1969 58.187 57.3696C65.0208 50.3214 68.4291 42.3647 68.4291 33.4993C68.4376 26.6634 66.3858 20.4729 62.2652 14.9023Z" fill="#272827"/>
</svg>
