<svg width="89" height="71" viewBox="0 0 89 71" fill="none" xmlns="http://www.w3.org/2000/svg">
<path d="M31.8129 9.57692C31.5822 9.19657 31.3331 8.83524 31.0839 8.48342C30.8256 8.12208 30.558 7.77977 30.2719 7.44696C29.9859 7.11415 29.6906 6.79084 29.3768 6.48656C29.0631 6.18228 28.7309 5.89702 28.3895 5.63078C28.0481 5.35502 27.7067 5.08877 27.3468 4.85105C26.9869 4.60382 26.6086 4.38512 26.2303 4.18544C25.8519 3.97624 25.4552 3.80508 25.0584 3.63393C24.6616 3.46277 24.2556 3.30113 23.8496 3.168C23.4436 3.03488 23.0283 2.92077 22.6039 2.81617C22.1794 2.72108 21.7642 2.61649 21.3397 2.55944C20.9153 2.50239 20.4816 2.49287 20.0479 2.47385C19.6142 2.45483 19.1897 2.45483 18.756 2.47385C18.3316 2.49287 17.8979 2.53091 17.4734 2.59747C17.049 2.66403 16.6245 2.74011 16.2093 2.84471C15.794 2.94931 15.3788 3.07292 14.9728 3.21555C14.5668 3.35818 14.17 3.51982 13.7732 3.71C13.3856 3.89066 12.9981 4.08085 12.6198 4.29955C12.2507 4.51825 11.8908 4.76548 11.5309 5.01271C11.1803 5.25994 10.8481 5.53569 10.5067 5.82095C10.1745 6.09671 9.85154 6.38197 9.54704 6.69576C9.24253 7.00955 8.94725 7.32334 8.67965 7.66566C8.40283 8.00798 8.16291 8.3598 7.92299 8.72114C7.68308 9.08247 7.46161 9.45331 7.24938 9.84317C7.04638 10.2235 6.85261 10.6229 6.68652 11.0223C6.5112 11.4216 6.35432 11.8305 6.21591 12.2489C6.0775 12.6673 5.95755 13.0857 5.85605 13.5136C5.75455 13.9415 5.67149 14.3694 5.60689 14.8068C5.5423 15.2442 5.48695 15.6721 5.45004 16.1095C5.42236 16.5469 5.40389 16.9843 5.40389 17.4217C5.40389 17.8591 5.42234 18.2965 5.45925 18.7339C5.49616 19.1713 5.55155 19.6087 5.62537 20.0366C5.69919 20.4645 5.8099 20.8924 5.92986 21.3203C6.04982 21.7387 6.18823 22.1571 6.33587 22.5659C6.49274 22.9748 6.65883 23.3742 6.85261 23.7735C7.04638 24.1634 7.2494 24.5533 7.47086 24.9241C7.68309 25.3045 7.93222 25.6658 8.18136 26.0176C8.4305 26.3695 8.6981 26.7118 8.98415 27.0446C9.2702 27.3774 9.56548 27.6912 9.87921 27.986C10.1929 28.2807 10.5251 28.5565 10.8666 28.8227C11.208 29.089 11.5402 29.3647 11.9 29.6024C12.2599 29.8402 12.629 30.0589 13.0073 30.2585C13.3857 30.4582 13.764 30.6579 14.1608 30.8291C14.5575 31.0002 14.9636 31.1334 15.3696 31.2665C15.7756 31.3996 16.1816 31.5232 16.5968 31.6183C17.012 31.7134 17.4273 31.818 17.8517 31.8845C18.2762 31.9511 18.7007 31.9797 19.1251 31.9987C19.5496 32.0272 19.9741 32.0462 20.4077 32.0367C20.8322 32.0177 21.2567 31.9702 21.6811 31.9131C22.1056 31.856 22.5301 31.799 22.9453 31.7039C23.3605 31.6088 23.7758 31.4947 24.1818 31.3521C24.5878 31.2189 24.9753 31.0288 25.3629 30.8481C25.7597 30.6674 26.1564 30.4868 26.5348 30.2776C26.9223 30.0684 27.3007 29.8497 27.6513 29.612C28.0112 29.3647 28.3526 29.089 28.6848 28.8132C29.0262 28.5375 29.3399 28.2332 29.6444 27.9289C29.9582 27.6151 30.2535 27.3013 30.5395 26.9685C30.8163 26.6262 31.0931 26.2839 31.3331 25.9225C31.5822 25.5612 31.8036 25.1809 32.0159 24.8005C32.2281 24.4202 32.4403 24.0303 32.6249 23.6214C32.8094 23.2221 32.9386 22.7941 33.0863 22.3757C33.2339 21.9574 33.3539 21.539 33.4646 21.1016C33.5753 20.6737 33.6676 20.2363 33.7322 19.7989C33.7968 19.3615 33.8798 18.9241 33.9075 18.4772C33.9352 18.0398 33.9167 17.5928 33.9167 17.1459C33.9075 16.7085 33.8798 16.2616 33.8337 15.8242C33.7876 15.3868 33.7414 14.9494 33.6584 14.512C33.5753 14.0841 33.4923 13.6467 33.3723 13.2188C33.2524 12.8004 33.1047 12.382 32.9479 11.9636C32.791 11.5548 32.6249 11.1459 32.4311 10.7465C32.2466 10.3567 32.0067 9.9763 31.7852 9.59594C31.7944 9.58643 31.8129 9.57692 31.8129 9.57692ZM32.2097 9.3297C32.4311 9.69103 32.6434 10.0524 32.8279 10.4327C33.0217 10.8131 33.1878 11.1934 33.3539 11.5833C33.52 11.9731 33.6584 12.3725 33.7876 12.7719C33.9167 13.1712 34.0459 13.5801 34.1474 13.989C34.2489 14.3979 34.332 14.8163 34.4058 15.2347C34.4796 15.6531 34.5442 16.0714 34.5904 16.4898C34.6365 16.9082 34.6826 17.3361 34.6919 17.7545C34.7103 18.1824 34.7011 18.6008 34.6919 19.0287C34.6826 19.4566 34.6457 19.8749 34.5996 20.3028C34.5534 20.7212 34.4704 21.1396 34.3966 21.558C34.3228 21.9764 34.2674 22.3948 34.1659 22.8037C34.0644 23.2125 33.9444 23.6214 33.806 24.0208C33.6768 24.4202 33.52 24.8195 33.3631 25.2094C33.2062 25.5992 33.0217 25.9796 32.8371 26.3599C32.6526 26.7403 32.4496 27.1111 32.2281 27.4725C32.0159 27.8338 31.7852 28.1856 31.5361 28.5279C31.2869 28.8893 31.0193 29.2316 30.7425 29.5644C30.4657 29.9067 30.1889 30.2395 29.8936 30.5438C29.5983 30.8576 29.2846 31.1714 28.9708 31.4567C28.6479 31.7514 28.3065 32.0177 27.9743 32.2744C27.6329 32.5407 27.2822 32.7784 26.9223 33.0161C26.5625 33.2538 26.2026 33.482 25.8243 33.6912C25.4459 33.9004 25.0584 34.0906 24.6708 34.2617C24.2833 34.4424 23.8865 34.6041 23.4805 34.7467C23.0745 34.8893 22.6685 35.0129 22.2625 35.127C21.8472 35.2412 21.432 35.3362 21.0168 35.4218C20.6015 35.4979 20.1771 35.574 19.7526 35.6215C19.3281 35.6691 18.9037 35.6976 18.4792 35.7071C18.0547 35.7261 17.6303 35.7166 17.2058 35.7071C16.7814 35.6881 16.3569 35.65 15.9324 35.6025C15.508 35.5549 15.0927 35.4789 14.6775 35.3933C14.2623 35.3077 13.847 35.2221 13.4318 35.108C13.0258 34.9939 12.6105 34.8703 12.2138 34.7277C11.817 34.5851 11.4202 34.4234 11.0234 34.2523C10.6359 34.0811 10.2575 33.8814 9.87921 33.6722C9.50089 33.4725 9.13178 33.2538 8.77191 33.0256C8.41203 32.7974 8.06141 32.5407 7.71999 32.2839C7.37857 32.0272 7.05561 31.7514 6.73264 31.4567C6.40968 31.1714 6.08673 30.8861 5.79145 30.5724C5.49617 30.2586 5.22858 29.9257 4.95175 29.5834C4.68416 29.2506 4.41654 28.9083 4.15818 28.5565C3.90903 28.2046 3.67837 27.8338 3.45691 27.463C3.23545 27.0826 3.00475 26.7118 2.81097 26.3314C2.6172 25.9416 2.43266 25.5422 2.27579 25.1428C2.1097 24.7339 1.98051 24.3156 1.8421 23.9067C1.70369 23.4883 1.57451 23.0699 1.47301 22.6515C1.37151 22.2236 1.29768 21.7862 1.23309 21.3583C1.15927 20.9209 1.09467 20.493 1.05776 20.0556C1.02085 19.6182 1.01163 19.1808 1.0024 18.7434C0.993172 18.306 1.01164 17.8686 1.03932 17.4312C1.067 16.9938 1.07621 16.5564 1.14081 16.119C1.19617 15.6816 1.27922 15.2537 1.37149 14.8258C1.46377 14.3979 1.58374 13.9795 1.7037 13.5611C1.82365 13.1427 1.94359 12.7243 2.09123 12.306C2.23887 11.8971 2.39574 11.4882 2.58029 11.0888C2.75561 10.6895 2.95863 10.3091 3.17086 9.91924C3.37386 9.53889 3.60455 9.16805 3.83524 8.79721C4.06592 8.43587 4.30582 8.06503 4.56419 7.72271C4.82255 7.38039 5.10863 7.04758 5.39468 6.72428C5.68073 6.40098 5.95753 6.06818 6.26203 5.7639C6.56654 5.45962 6.88951 5.17436 7.2217 4.88909C7.55389 4.61334 7.89532 4.3566 8.24596 4.09986C8.5966 3.85263 8.9657 3.63393 9.33479 3.41523C9.69467 3.19653 10.0638 2.95881 10.4421 2.76864C10.8204 2.57846 11.208 2.39778 11.614 2.23613C12.0015 2.07448 12.4168 1.94137 12.8228 1.81776C13.2288 1.68463 13.644 1.58953 14.0592 1.49445C14.4653 1.39936 14.8897 1.30428 15.3142 1.23772C15.7202 1.17116 16.1262 1.12361 16.5414 1.08558C16.9567 1.04754 17.3627 1 17.7779 1C18.1931 1 18.5992 1.01901 19.0144 1.04753C19.4296 1.07606 19.8356 1.13312 20.2417 1.19017C20.6477 1.25673 21.0537 1.3328 21.4597 1.42789C21.8657 1.52298 22.2532 1.63708 22.65 1.76069C23.0468 1.88431 23.4344 2.00793 23.8219 2.16007C24.2095 2.31221 24.5878 2.47385 24.9569 2.65452C25.326 2.83519 25.6951 3.02536 26.0549 3.23456C26.4148 3.44375 26.7562 3.68148 27.0977 3.90969C27.4391 4.1379 27.7805 4.38513 28.1127 4.64187C28.4449 4.89861 28.7494 5.17436 29.0631 5.45963C29.3676 5.74489 29.6629 6.03966 29.9489 6.34394C30.235 6.64822 30.5303 6.94299 30.7979 7.2758C31.0562 7.59909 31.2961 7.95092 31.5361 8.30275C31.776 8.60703 31.9974 8.95886 32.2097 9.3297Z" fill="#272827"/>
<path d="M31.8129 9.57692C31.5822 9.19657 31.3331 8.83524 31.0839 8.48342C30.8256 8.12208 30.558 7.77977 30.2719 7.44696C29.9859 7.11415 29.6906 6.79085 29.3768 6.48656C29.0631 6.18228 28.7309 5.89702 28.3895 5.63078C28.0481 5.35502 27.7067 5.08877 27.3468 4.85105C26.9869 4.60382 26.6086 4.38512 26.2303 4.18544C25.8519 3.97624 25.4552 3.80508 25.0584 3.63393C24.6616 3.46277 24.2556 3.30113 23.8496 3.168C23.4436 3.03488 23.0283 2.92077 22.6039 2.81617C22.1794 2.72108 21.7642 2.61649 21.3397 2.55944C20.9153 2.50239 20.4816 2.49287 20.0479 2.47385C19.6142 2.45483 19.1897 2.45483 18.756 2.47385C18.3316 2.49287 17.8979 2.53091 17.4734 2.59747C17.049 2.66403 16.6245 2.74011 16.2093 2.84471C15.794 2.94931 15.3788 3.07292 14.9728 3.21555C14.5668 3.35818 14.17 3.51982 13.7732 3.71C13.3856 3.89066 12.9981 4.08085 12.6198 4.29955C12.2507 4.51825 11.8908 4.76548 11.5309 5.01271C11.1803 5.25994 10.8481 5.53569 10.5067 5.82095C10.1745 6.09671 9.85154 6.38197 9.54704 6.69576C9.24253 7.00955 8.94725 7.32334 8.67965 7.66566C8.40283 8.00798 8.16291 8.3598 7.92299 8.72114C7.68308 9.08247 7.46161 9.45331 7.24938 9.84317C7.04638 10.2235 6.85261 10.6229 6.68652 11.0223C6.5112 11.4216 6.35432 11.8305 6.21591 12.2489C6.0775 12.6673 5.95755 13.0857 5.85605 13.5136C5.75455 13.9415 5.67149 14.3694 5.60689 14.8068C5.5423 15.2442 5.48695 15.6721 5.45004 16.1095C5.42236 16.5469 5.40389 16.9843 5.40389 17.4217C5.40389 17.8591 5.42234 18.2965 5.45925 18.7339C5.49616 19.1713 5.55155 19.6087 5.62537 20.0366C5.69919 20.4645 5.8099 20.8924 5.92986 21.3203C6.04982 21.7387 6.18823 22.1571 6.33587 22.5659C6.49274 22.9748 6.65883 23.3742 6.85261 23.7735C7.04638 24.1634 7.2494 24.5533 7.47086 24.9241C7.68309 25.3045 7.93222 25.6658 8.18136 26.0176C8.4305 26.3695 8.6981 26.7118 8.98415 27.0446C9.2702 27.3774 9.56548 27.6912 9.87921 27.986C10.1929 28.2807 10.5251 28.5565 10.8666 28.8227C11.208 29.089 11.5402 29.3647 11.9 29.6024C12.2599 29.8402 12.629 30.0589 13.0073 30.2585C13.3857 30.4582 13.764 30.6579 14.1608 30.8291C14.5575 31.0002 14.9636 31.1334 15.3696 31.2665C15.7756 31.3996 16.1816 31.5232 16.5968 31.6183C17.012 31.7134 17.4273 31.818 17.8517 31.8845C18.2762 31.9511 18.7007 31.9797 19.1251 31.9987C19.5496 32.0272 19.9741 32.0462 20.4077 32.0367C20.8322 32.0177 21.2567 31.9702 21.6811 31.9131C22.1056 31.856 22.5301 31.799 22.9453 31.7039C23.3605 31.6088 23.7758 31.4947 24.1818 31.3521C24.5878 31.2189 24.9753 31.0288 25.3629 30.8481C25.7597 30.6674 26.1564 30.4868 26.5348 30.2776C26.9223 30.0684 27.3007 29.8497 27.6513 29.612C28.0112 29.3647 28.3526 29.089 28.6848 28.8132C29.0262 28.5375 29.3399 28.2332 29.6444 27.9289C29.9582 27.6151 30.2535 27.3013 30.5395 26.9685C30.8163 26.6262 31.0931 26.2839 31.3331 25.9225C31.5822 25.5612 31.8036 25.1809 32.0159 24.8005C32.2281 24.4202 32.4403 24.0303 32.6249 23.6214C32.8094 23.2221 32.9386 22.7941 33.0863 22.3758C33.2339 21.9574 33.3539 21.539 33.4646 21.1016C33.5753 20.6737 33.6676 20.2363 33.7322 19.7989C33.7968 19.3615 33.8798 18.9241 33.9075 18.4772C33.9352 18.0398 33.9167 17.5928 33.9167 17.1459C33.9075 16.7085 33.8798 16.2616 33.8337 15.8242C33.7876 15.3868 33.7414 14.9494 33.6584 14.512C33.5753 14.0841 33.4923 13.6467 33.3723 13.2188C33.2524 12.8004 33.1047 12.382 32.9479 11.9636C32.791 11.5548 32.6249 11.1459 32.4311 10.7465C32.2466 10.3567 32.0067 9.9763 31.7852 9.59594C31.7944 9.58643 31.8129 9.57692 31.8129 9.57692ZM32.2097 9.3297C32.4311 9.69103 32.6434 10.0524 32.8279 10.4327C33.0217 10.8131 33.1878 11.1934 33.3539 11.5833C33.52 11.9731 33.6584 12.3725 33.7876 12.7719C33.9167 13.1712 34.0459 13.5801 34.1474 13.989C34.2489 14.3979 34.332 14.8163 34.4058 15.2347C34.4796 15.6531 34.5442 16.0714 34.5903 16.4898C34.6365 16.9082 34.6826 17.3361 34.6919 17.7545C34.7103 18.1824 34.7011 18.6008 34.6919 19.0287C34.6826 19.4566 34.6457 19.8749 34.5996 20.3028C34.5534 20.7212 34.4704 21.1396 34.3966 21.558C34.3228 21.9764 34.2674 22.3948 34.1659 22.8037C34.0644 23.2125 33.9444 23.6214 33.806 24.0208C33.6768 24.4202 33.52 24.8195 33.3631 25.2094C33.2062 25.5992 33.0217 25.9796 32.8371 26.3599C32.6526 26.7403 32.4496 27.1111 32.2281 27.4725C32.0159 27.8338 31.7852 28.1856 31.5361 28.5279C31.2869 28.8893 31.0193 29.2316 30.7425 29.5644C30.4657 29.9067 30.1889 30.2395 29.8936 30.5438C29.5983 30.8576 29.2846 31.1714 28.9708 31.4567C28.6479 31.7514 28.3065 32.0177 27.9743 32.2744C27.6329 32.5407 27.2822 32.7784 26.9223 33.0161C26.5625 33.2538 26.2026 33.482 25.8243 33.6912C25.4459 33.9004 25.0584 34.0906 24.6708 34.2617C24.2833 34.4424 23.8865 34.6041 23.4805 34.7467C23.0745 34.8893 22.6685 35.0129 22.2625 35.127C21.8472 35.2412 21.432 35.3362 21.0168 35.4218C20.6015 35.4979 20.1771 35.574 19.7526 35.6215C19.3281 35.6691 18.9037 35.6976 18.4792 35.7071C18.0547 35.7261 17.6303 35.7166 17.2058 35.7071C16.7814 35.6881 16.3569 35.65 15.9324 35.6025C15.508 35.5549 15.0927 35.4789 14.6775 35.3933C14.2623 35.3077 13.847 35.2221 13.4318 35.108C13.0258 34.9939 12.6105 34.8703 12.2138 34.7277C11.817 34.5851 11.4202 34.4234 11.0234 34.2523C10.6359 34.0811 10.2575 33.8814 9.87921 33.6722C9.50089 33.4725 9.13178 33.2538 8.77191 33.0256C8.41203 32.7974 8.06141 32.5407 7.71999 32.2839C7.37857 32.0272 7.05561 31.7514 6.73264 31.4567C6.40968 31.1714 6.08673 30.8861 5.79145 30.5724C5.49618 30.2586 5.22858 29.9257 4.95175 29.5834C4.68416 29.2506 4.41654 28.9083 4.15818 28.5565C3.90903 28.2046 3.67837 27.8338 3.45691 27.463C3.23545 27.0826 3.00475 26.7118 2.81097 26.3314C2.6172 25.9416 2.43266 25.5422 2.27579 25.1428C2.1097 24.7339 1.98051 24.3156 1.8421 23.9067C1.70369 23.4883 1.57451 23.0699 1.47301 22.6515C1.37151 22.2236 1.29768 21.7862 1.23309 21.3583C1.15927 20.9209 1.09467 20.493 1.05776 20.0556C1.02085 19.6182 1.01163 19.1808 1.0024 18.7434C0.993172 18.306 1.01164 17.8686 1.03932 17.4312C1.067 16.9938 1.07621 16.5564 1.14081 16.119C1.19617 15.6816 1.27922 15.2537 1.37149 14.8258C1.46377 14.3979 1.58374 13.9795 1.7037 13.5611C1.82365 13.1427 1.94359 12.7243 2.09123 12.306C2.23887 11.8971 2.39574 11.4882 2.58029 11.0888C2.75561 10.6895 2.95863 10.3091 3.17086 9.91924C3.37386 9.53889 3.60455 9.16805 3.83524 8.79721C4.06592 8.43587 4.30582 8.06503 4.56419 7.72271C4.82255 7.38039 5.10863 7.04758 5.39468 6.72428C5.68073 6.40098 5.95753 6.06818 6.26204 5.7639C6.56654 5.45962 6.88951 5.17436 7.2217 4.88909C7.55389 4.61334 7.89532 4.3566 8.24596 4.09986C8.5966 3.85263 8.9657 3.63393 9.3348 3.41523C9.69467 3.19653 10.0638 2.95881 10.4421 2.76864C10.8204 2.57846 11.208 2.39778 11.614 2.23613C12.0015 2.07448 12.4168 1.94137 12.8228 1.81776C13.2288 1.68463 13.644 1.58953 14.0593 1.49445C14.4653 1.39936 14.8897 1.30428 15.3142 1.23772C15.7202 1.17116 16.1262 1.12361 16.5414 1.08558C16.9567 1.04754 17.3627 1 17.7779 1C18.1932 1 18.5992 1.01901 19.0144 1.04753C19.4296 1.07606 19.8357 1.13312 20.2417 1.19017C20.6477 1.25673 21.0537 1.3328 21.4597 1.42789C21.8657 1.52298 22.2532 1.63708 22.65 1.76069C23.0468 1.88431 23.4344 2.00793 23.8219 2.16007C24.2095 2.31221 24.5878 2.47385 24.9569 2.65452C25.326 2.83519 25.6951 3.02536 26.0549 3.23456C26.4148 3.44375 26.7562 3.68148 27.0977 3.90969C27.4391 4.1379 27.7805 4.38513 28.1127 4.64187C28.4449 4.89861 28.7494 5.17436 29.0631 5.45963C29.3676 5.74489 29.6629 6.03966 29.9489 6.34394C30.235 6.64822 30.5303 6.94299 30.7979 7.2758C31.0562 7.59909 31.2961 7.95092 31.5361 8.30275C31.776 8.60703 31.9974 8.95886 32.2097 9.3297Z" stroke="#272827" stroke-width="0.5714" stroke-miterlimit="10" stroke-linecap="round" stroke-linejoin="round"/>
<path d="M83.1432 5.87688C77.4683 0.865747 68.9698 0.808693 63.1934 5.66769C62.6859 6.15264 62.0492 6.70414 61.5694 7.22713C53.2093 15.8706 39.2574 30.2955 30.8881 38.9485C30.2145 39.6426 29.467 40.3938 28.9134 41.2116C28.166 42.2385 27.6492 43.4366 27.2709 44.6632C26.219 48.3907 27.0587 52.5746 29.6055 55.4748C33.3426 59.4399 40.3001 66.3338 44.1756 70.299C55.9591 58.2608 73.3436 40.7266 84.9148 28.5839C90.5251 21.9753 89.7131 11.4776 83.1432 5.87688ZM71.0367 37.9025L70.926 38.0356L44.1571 68.4352L31.331 53.8487L31.3125 53.8297C29.8915 51.7758 29.2917 49.0848 29.8638 46.6221C30.1683 45.1672 30.9065 43.8075 31.8846 42.7425C32.2906 42.3336 32.8627 41.8106 33.2872 41.4113C36.6091 38.2924 40.6415 34.4603 43.9449 31.2844C51.2808 24.2574 58.552 16.8976 65.7587 9.75647L66.1462 9.39515L66.5706 9.08136C66.949 8.75806 67.4657 8.4823 67.8902 8.21605C73.1775 5.33489 79.9505 7.41731 82.8202 12.8373C84.9149 16.7074 84.6196 21.7566 82.0636 25.3414C81.3161 26.4254 79.8397 27.9183 78.6309 29.2875" fill="#272827"/>
</svg>
