<svg width="77" height="98" viewBox="0 0 77 98" fill="none" xmlns="http://www.w3.org/2000/svg">
<path d="M72.5936 65.6327C72.4495 65.2251 72.2545 64.8344 72.0256 64.4693C72.0256 64.4693 72.0256 64.4693 72.0256 64.4608C70.9742 62.7964 69.1174 61.684 67.0063 61.684H66.9978C65.3699 61.4547 63.7081 61.5482 62.1141 61.9728C61.9615 62.0152 61.8174 62.0492 61.6732 62.0831C59.4264 62.6266 57.4339 63.807 55.8823 65.4289C56.8828 62.2869 57.5611 58.9921 57.8748 55.5954C57.9426 54.9246 57.9935 54.2453 58.0274 53.5574C58.0698 52.7252 58.0953 51.8846 58.0953 51.0354C58.0953 45.8299 57.2559 40.8113 55.7128 36.1239C55.5432 35.6144 55.3736 35.1134 55.1871 34.6124C54.1697 33.8481 53.1014 33.1433 51.9907 32.5064C51.6515 32.3111 51.3378 32.0648 51.0835 31.7676C50.1084 30.6297 49.2182 29.4239 48.4212 28.1416C48.4042 28.1162 48.3873 28.0907 48.3788 28.0737C46.9968 25.8404 45.903 23.4202 45.14 20.8472C45.0043 20.3887 44.8856 19.9386 44.7669 19.4716C44.7076 19.2338 44.6567 18.9875 44.5973 18.7498C44.5719 18.6394 44.555 18.529 44.5295 18.4186C44.4702 18.1469 44.4193 17.8751 44.3769 17.6034C44.2497 16.9071 44.1565 16.2107 44.0802 15.5059C43.9784 14.4869 43.9191 13.4594 43.9191 12.4149C43.9191 7.98224 44.8856 3.77883 46.6237 0C43.3764 3.77883 40.7142 8.08414 38.781 12.7631C38.5012 13.4339 38.2384 14.1133 37.9925 14.8011C37.7975 15.3446 37.6025 15.8965 37.4329 16.4485C37.2295 17.0684 37.0429 17.6968 36.8734 18.3252C36.4664 19.8027 36.1357 21.3058 35.8729 22.8343C35.8135 23.1655 35.7627 23.5051 35.7118 23.8363C35.5168 25.1356 35.3727 26.4518 35.2879 27.785C35.2709 28.0907 35.254 28.4049 35.237 28.7191C35.2285 28.8549 35.22 28.9993 35.22 29.1352C35.2031 29.4663 35.1946 29.7975 35.1946 30.1287C35.1861 30.4089 35.1861 30.6892 35.1861 30.9694C35.1861 31.0798 35.1861 31.1987 35.1861 31.3091C35.1861 31.6827 35.1946 32.0478 35.2031 32.4215C35.237 33.5848 35.3133 34.7397 35.432 35.8776C35.5592 37.1004 35.6694 38.3232 35.7372 39.5461C35.7372 41.4737 35.9238 43.3673 36.2714 45.1931C36.9836 48.9379 38.408 52.4365 40.392 55.536C40.2902 55.7228 40.1885 55.9096 40.0783 56.088C39.2728 55.0435 38.5267 53.9396 37.8653 52.7847C37.6534 52.445 37.4669 52.0883 37.2803 51.7317C37.0514 51.2986 36.8394 50.857 36.6275 50.407C36.2714 49.6427 35.9492 48.853 35.6609 48.0463C35.6355 47.9783 35.6101 47.9104 35.5846 47.8425C35.2624 46.9169 34.9826 45.9828 34.7452 45.0147C34.618 44.4883 34.4993 43.9533 34.3976 43.4183C34.2789 42.7814 34.1772 42.1445 34.1009 41.4906C34.0415 40.9896 33.9906 40.4886 33.9652 39.9791C33.9143 39.2998 33.8889 38.612 33.8889 37.9156C33.8889 37.5165 33.8974 37.1174 33.9143 36.7268C33.9313 36.2428 33.9652 35.7587 34.0076 35.2747C33.8041 34.9181 33.5921 34.5699 33.3802 34.2217C33.1343 34.9265 32.9139 35.6399 32.7189 36.3617C32.1169 38.595 31.7692 40.9302 31.7014 43.3334C31.7014 43.5966 31.6929 43.8598 31.6929 44.1231C31.6929 44.1995 31.6929 44.276 31.6929 44.3524C31.6929 44.5477 31.6929 44.7345 31.7014 44.9213C31.7269 45.8299 31.7947 46.7301 31.8964 47.6132C31.9219 47.8255 31.9473 48.0378 31.9727 48.2586C32.083 49.0483 32.2186 49.8211 32.3882 50.5853C32.6425 51.7317 32.9562 52.8441 33.3378 53.9395C33.6939 54.9501 34.1009 55.9351 34.5502 56.8947C34.9996 57.8458 35.4998 58.7629 36.0509 59.6545C36.2968 60.7245 36.6105 61.7774 36.9751 62.7964C36.5512 62.2699 36.1442 61.7265 35.7457 61.1745C35.7118 61.1321 35.6779 61.0811 35.6524 61.0302C34.9148 59.9602 34.245 58.8478 33.6515 57.6844C33.1682 56.7588 32.7443 55.7992 32.3627 54.8142C31.9219 53.6678 31.5488 52.4875 31.2521 51.2816C31.0231 50.3475 30.8366 49.388 30.6925 48.4199C30.6501 48.1312 30.5823 47.5453 30.5738 47.4943C30.5738 47.4943 30.3533 48.2841 30.2601 48.6747C30.2346 48.7851 30.2092 48.887 30.1837 48.9889C30.1583 49.0908 30.1329 49.2012 30.1159 49.3031C30.0057 49.7786 29.9124 50.2541 29.8361 50.7382C29.8277 50.7891 29.8192 50.8486 29.8107 50.8995C29.7937 51.0099 29.7768 51.1118 29.7598 51.2222C29.7344 51.3666 29.7174 51.5109 29.692 51.6553C29.675 51.7996 29.6496 51.944 29.6411 52.0884C29.5903 52.496 29.5479 52.9036 29.514 53.3197C29.5055 53.447 29.497 53.5659 29.4885 53.6848C29.4716 53.8631 29.4631 54.05 29.4546 54.2198C29.4461 54.3557 29.4376 54.483 29.4376 54.6104C29.4292 54.7463 29.4207 54.8736 29.4207 55.001C29.4122 55.1114 29.4122 55.2218 29.4122 55.3322C29.4122 55.4851 29.4122 55.6379 29.4122 55.7907C29.4122 56.6569 29.4546 57.5061 29.5224 58.3553C29.5733 58.9327 29.6411 59.5101 29.7174 60.0706C29.904 61.3274 30.1583 62.5672 30.4975 63.773C30.8875 65.1826 31.3792 66.5498 31.9642 67.866C31.7777 68.1123 31.5912 68.3585 31.3962 68.6048C30.6077 69.5899 29.7513 70.5154 28.8441 71.3986C28.5389 71.6958 28.2167 71.993 27.8945 72.2817C27.8013 72.3581 27.708 72.4431 27.6147 72.528C24.2403 75.4407 20.2045 77.6061 15.7617 78.7694C13.3622 79.3978 10.8441 79.729 8.24119 79.729C6.05371 79.729 3.91709 79.4912 1.86527 79.0411C0.932629 80.9263 0.313695 82.9983 0.093252 85.1892C0.0339019 85.7751 0 86.378 0 86.9809C0 87.8811 0.0678121 88.7642 0.194991 89.6303C0.237384 89.9021 0.279788 90.1738 0.339138 90.4456C3.13707 87.9065 6.42676 85.8855 10.0386 84.5608C12.2431 83.7541 14.5832 83.1936 16.9996 82.9304C17.2454 82.9049 17.4913 82.8794 17.7372 82.8624C18.5681 82.786 19.4075 82.752 20.2638 82.752L28.2082 82.9728C30.6162 82.9728 32.9732 83.1511 35.2794 83.4993C35.2879 83.4993 35.2963 83.4993 35.3048 83.4993C36.4409 83.6691 37.5601 83.9833 38.6454 84.3825C40.0783 84.9005 41.5959 85.2486 43.1729 85.3845C43.2577 85.393 43.3425 85.4015 43.4273 85.4015C43.8682 85.4354 44.3006 85.4524 44.75 85.4524C46.912 85.4524 48.9723 85.0703 50.8885 84.3655C52.5163 83.7626 54.034 82.9304 55.3991 81.9114C55.433 81.8859 55.4669 81.8604 55.4923 81.8349L55.7213 81.6651C55.8824 81.5292 56.0434 81.4018 56.2045 81.2745C56.213 81.266 56.2215 81.2575 56.2215 81.2575C56.23 81.249 56.2384 81.2405 56.2469 81.232C56.2978 81.1896 56.3656 81.1386 56.4165 81.0877C56.4334 81.0707 56.4504 81.0537 56.4674 81.0452C58.6379 79.211 60.5456 77.0711 62.1141 74.6849C62.2582 74.4726 62.4024 74.2518 62.538 74.031C62.5804 73.9546 62.6313 73.8782 62.6737 73.8018C62.6906 73.7678 62.7161 73.7423 62.7246 73.7083C62.9874 73.2837 63.2333 72.8422 63.4707 72.4006C63.6063 72.1544 63.7335 71.9081 63.8607 71.6533C64.1235 71.1269 64.4457 70.6258 64.8612 70.2012C65.1918 69.8616 65.5479 69.5389 65.921 69.2417C67.8287 67.6962 70.2366 66.7366 72.8565 66.6262H75.4679C75.4679 66.6347 74.832 65.5648 72.5936 65.6327ZM69.1683 65.4459C68.668 65.4459 68.2611 65.0383 68.2611 64.5373C68.2611 64.0362 68.668 63.6286 69.1683 63.6286C69.6685 63.6286 70.0755 64.0362 70.0755 64.5373C70.0755 65.0383 69.6685 65.4459 69.1683 65.4459Z" fill="#191D20"/>
<path d="M74.4922 67.1101C74.5007 67.1186 74.5092 67.1271 74.5092 67.1356C74.5431 67.0931 74.5686 67.042 74.5941 66.9995C74.6705 66.8465 74.7044 66.685 74.6959 66.5234C74.6959 66.685 74.6535 66.8465 74.5686 66.991C74.5516 67.025 74.5261 67.0676 74.4922 67.1101Z" fill="black"/>
<path d="M68.9331 66.9141H75.5125C75.5125 66.9141 75.5124 66.7357 75.47 66.7018C75.3937 66.6678 68.9331 66.5234 68.9331 66.5234L68.4922 66.7188L68.9331 66.9141Z" fill="#0E1216"/>
<path d="M17.9169 83.1328C10.2438 86.1134 8.95506 91.2849 6.86085 94.5712C3.28289 94.5712 0.527344 90.7159 0.527344 90.7159C3.32528 88.1769 6.61497 86.1559 10.2268 84.8312C12.4313 84.0244 14.7714 83.464 17.1878 83.2008C17.4252 83.1753 17.6625 83.1498 17.9169 83.1328Z" fill="#191D20"/>
<path opacity="0.63" d="M15.5053 84.0176C9.33288 86.4123 8.2985 91.0997 6.61126 93.7406C3.73702 93.7406 1.51562 90.6411 1.51562 90.6411C3.76245 88.5946 6.40778 86.9727 9.31593 85.9112C11.088 85.2574 12.9702 84.2893 14.9118 84.077C15.1068 84.0516 15.3018 84.0346 15.5053 84.0176Z" fill="url(#paint0_linear_1480_8453)"/>
<path d="M74.3929 70.668C74.376 70.6426 74.359 70.6171 74.3421 70.5831C74.2742 70.4557 74.2573 70.3199 74.2657 70.1755C74.2742 70.0481 74.3166 69.9208 74.3929 69.8104C74.3675 69.7764 74.3336 69.7339 74.2996 69.6915C74.2912 69.683 74.2912 69.6745 74.2827 69.666C74.2742 69.683 74.2573 69.6915 74.2488 69.7085C74.147 69.8443 74.0877 70.0057 74.0877 70.167C74.0792 70.3199 74.0962 70.4812 74.1725 70.6341C74.1979 70.6935 74.2403 70.7445 74.2742 70.7954C74.2827 70.7869 74.2827 70.7869 74.2912 70.7784C74.3336 70.7445 74.359 70.7105 74.3929 70.668Z" fill="black"/>
<path d="M74.4961 68.5107C74.5046 68.5192 74.513 68.5362 74.5215 68.5447C74.6063 68.6721 74.6402 68.8079 74.6402 68.9523C74.6402 69.0966 74.6148 69.2325 74.547 69.3599C74.53 69.3854 74.5131 69.4108 74.4961 69.4363C74.5215 69.4703 74.547 69.5042 74.5809 69.5297C74.5894 69.5382 74.5978 69.5467 74.5978 69.5552C74.6317 69.5127 74.6657 69.4618 74.6911 69.4108C74.7674 69.2665 74.7929 69.1051 74.7759 68.9523C74.7674 68.7994 74.7165 68.6381 74.6233 68.5022C74.6063 68.4767 74.5809 68.4513 74.5639 68.4258C74.5385 68.4513 74.5131 68.4767 74.4961 68.5107Z" fill="black"/>
<path d="M74.3957 73.1804C74.3703 73.1379 74.3448 73.1039 74.3279 73.0615C74.2685 72.9341 74.26 72.7897 74.277 72.6539C74.2855 72.535 74.3279 72.4246 74.3957 72.3227C74.3872 72.3142 74.3872 72.3142 74.3872 72.3057C74.3618 72.2717 74.3363 72.2463 74.3109 72.2123C74.3024 72.2038 74.3024 72.1953 74.294 72.1953C74.1922 72.3227 74.1244 72.484 74.1074 72.6454C74.0905 72.7982 74.1074 72.9596 74.1753 73.1124C74.2092 73.1889 74.2516 73.2568 74.3024 73.3162C74.3024 73.3162 74.3024 73.3077 74.3109 73.3077C74.3279 73.2568 74.3618 73.2143 74.3957 73.1804Z" fill="black"/>
<path d="M74.3969 68.2229C74.3715 68.1889 74.3545 68.1635 74.3291 68.1295C74.2528 68.0021 74.2189 67.8577 74.2189 67.7134C74.2189 67.569 74.2528 67.4247 74.3291 67.2973C74.3461 67.2633 74.3715 67.2378 74.3885 67.2039C74.38 67.1954 74.3715 67.1784 74.363 67.1699C74.3376 67.2039 74.3037 67.2379 74.2782 67.2718C74.185 67.4077 74.1426 67.5605 74.1341 67.7049C74.1256 67.8578 74.1511 68.0106 74.2359 68.155C74.2613 68.2059 74.2952 68.2484 74.3206 68.2908C74.3546 68.2653 74.3715 68.2484 74.3969 68.2229Z" fill="black"/>
<path d="M74.4961 71.0675C74.5724 71.1779 74.6063 71.2883 74.6233 71.4157C74.6317 71.56 74.6148 71.6959 74.5555 71.8233C74.5385 71.8572 74.5215 71.8912 74.4961 71.9252C74.5215 71.9676 74.5555 72.0016 74.5894 72.0441C74.5894 72.0525 74.5978 72.0525 74.5978 72.061C74.6402 72.0016 74.6826 71.9421 74.7165 71.8742C74.7844 71.7214 74.8013 71.56 74.7928 71.4072C74.7844 71.2543 74.725 71.0845 74.6148 70.9571C74.6063 70.9486 74.6063 70.9401 74.5978 70.9316C74.5894 70.9401 74.5894 70.9401 74.5809 70.9486C74.5554 70.9911 74.5215 71.0335 74.4961 71.0675Z" fill="black"/>
<path d="M74.4965 78.6C74.5474 78.6765 74.5813 78.7529 74.5983 78.8293C74.6322 78.9652 74.6237 79.1095 74.5898 79.2454C74.5728 79.3218 74.5389 79.3898 74.488 79.4577C74.522 79.5002 74.5474 79.5341 74.5813 79.5766C74.5898 79.5851 74.5898 79.5851 74.5983 79.5936C74.6746 79.5002 74.7339 79.3897 74.7594 79.2794C74.8018 79.118 74.8018 78.9652 74.7678 78.8123C74.7424 78.6934 74.6746 78.5746 74.5983 78.4727C74.5898 78.4811 74.5813 78.4981 74.5644 78.5066C74.5474 78.5321 74.5135 78.5661 74.4965 78.6Z" fill="black"/>
<path d="M74.547 76.0171C74.53 76.0426 74.5131 76.0596 74.4961 76.0851C74.5554 76.17 74.5894 76.2549 74.6063 76.3568C74.6318 76.4927 74.6233 76.637 74.5809 76.7644C74.5639 76.8239 74.53 76.8833 74.4961 76.9343C74.53 76.9767 74.5639 77.0192 74.6063 77.0701C74.6657 76.9852 74.725 76.9003 74.7589 76.7984C74.8098 76.6455 74.8098 76.4842 74.7844 76.3313C74.7589 76.1955 74.6911 76.0596 74.6063 75.9492C74.5978 75.9662 74.5809 75.9747 74.5724 75.9917L74.547 76.0171Z" fill="black"/>
<path d="M74.5215 73.5472C74.513 73.5557 74.5046 73.5727 74.4961 73.5812C74.5639 73.6746 74.5978 73.7765 74.6148 73.8869C74.6318 74.0228 74.6233 74.1671 74.5724 74.2945C74.5554 74.3454 74.53 74.3879 74.4961 74.4304C74.53 74.4728 74.5639 74.5153 74.6063 74.5662C74.6572 74.4983 74.7081 74.4219 74.742 74.337C74.8013 74.1841 74.8098 74.0228 74.7928 73.8699C74.7759 73.717 74.7081 73.5642 74.6063 73.4453C74.5978 73.4538 74.5894 73.4623 74.5894 73.4708C74.5639 73.4963 74.5385 73.5217 74.5215 73.5472Z" fill="black"/>
<path d="M74.394 90.7925C74.3855 90.784 74.377 90.7671 74.3685 90.7586C74.2837 90.6312 74.2498 90.4953 74.2498 90.351C74.2498 90.2066 74.2753 90.0707 74.3431 89.9433C74.36 89.9179 74.377 89.8924 74.394 89.8669C74.3685 89.833 74.3346 89.799 74.3092 89.765C74.3007 89.7565 74.3007 89.7565 74.2922 89.748C74.2583 89.7905 74.2244 89.8414 74.1989 89.8924C74.1226 90.0368 74.0972 90.1981 74.1142 90.351C74.1226 90.5038 74.1735 90.6651 74.2668 90.7925C74.2837 90.818 74.3007 90.8435 74.3261 90.869C74.3516 90.852 74.3685 90.818 74.394 90.7925Z" fill="black"/>
<path d="M74.3105 75.5333C74.2596 75.406 74.2596 75.2616 74.2766 75.1258C74.2935 75.0239 74.3275 74.9305 74.3953 74.837C74.3868 74.8201 74.3699 74.8031 74.3614 74.7861C74.3444 74.7691 74.3275 74.7521 74.319 74.7351C74.3105 74.7267 74.302 74.7182 74.2936 74.7012C74.2003 74.8201 74.1325 74.9644 74.107 75.1088C74.0816 75.2616 74.0901 75.423 74.1494 75.5758C74.1833 75.6692 74.2342 75.7457 74.2936 75.8221C74.336 75.7796 74.3699 75.7287 74.4038 75.6862C74.3614 75.6353 74.3275 75.5843 74.3105 75.5333Z" fill="black"/>
<path d="M74.3437 83.2783C74.3607 83.2528 74.3776 83.2358 74.3946 83.2103C74.3352 83.1254 74.3013 83.0405 74.2844 82.9386C74.2589 82.8027 74.2674 82.6584 74.3098 82.531C74.3267 82.4715 74.3607 82.4121 74.3946 82.3527C74.3607 82.3102 74.3267 82.2677 74.2844 82.2168C74.225 82.3017 74.1657 82.3866 74.1317 82.4885C74.0809 82.6414 74.0809 82.8027 74.1063 82.9556C74.1317 83.0914 74.1996 83.2273 74.2844 83.3377C74.2928 83.3207 74.3098 83.3122 74.3183 83.2952L74.3437 83.2783Z" fill="black"/>
<path d="M74.4961 81.1046C74.5385 81.1641 74.5724 81.232 74.5894 81.2999C74.6318 81.4273 74.6318 81.5802 74.6063 81.7075C74.5894 81.7924 74.547 81.8774 74.4961 81.9538C74.5131 81.9793 74.5385 82.0047 74.5639 82.0387C74.5809 82.0557 74.5894 82.0727 74.6063 82.0896C74.6911 81.9792 74.7589 81.8604 74.7844 81.733C74.8183 81.5717 74.8098 81.4188 74.7674 81.2659C74.742 81.1555 74.6741 81.0622 74.6063 80.9688C74.5639 81.0197 74.53 81.0622 74.4961 81.1046Z" fill="black"/>
<path d="M74.3929 88.237C74.3251 88.1266 74.2827 88.0077 74.2742 87.8888C74.2658 87.753 74.2742 87.6086 74.3336 87.4812C74.3505 87.4473 74.3675 87.4133 74.3929 87.3793C74.359 87.3369 74.3336 87.3029 74.2912 87.2605L74.2827 87.252C74.2403 87.3114 74.198 87.3708 74.164 87.4388C74.0962 87.5916 74.0792 87.753 74.0877 87.9058C74.0962 88.0587 74.164 88.22 74.2658 88.3559C74.2743 88.3644 74.2742 88.3729 74.2827 88.3729C74.2912 88.3644 74.2912 88.3644 74.2997 88.3559C74.3336 88.3049 74.359 88.271 74.3929 88.237Z" fill="black"/>
<path d="M74.3939 80.7045C74.343 80.6281 74.3091 80.5601 74.2921 80.4752C74.2582 80.3393 74.2582 80.195 74.2921 80.0591C74.3091 79.9827 74.343 79.9147 74.3939 79.8468C74.3684 79.8043 74.3345 79.7704 74.3006 79.7279C74.2921 79.7194 74.2921 79.7194 74.2836 79.7109C74.2073 79.8043 74.148 79.9147 74.1225 80.0251C74.0802 80.1865 74.0801 80.3393 74.1141 80.4922C74.1395 80.6111 74.2073 80.73 74.2836 80.8319C74.2921 80.8234 74.3006 80.8064 74.3091 80.7979C74.343 80.7724 74.3684 80.7384 74.3939 80.7045Z" fill="black"/>
<path d="M74.301 78.0046C74.284 77.9366 74.2756 77.8687 74.2671 77.8008C74.2671 77.7328 74.2671 77.6564 74.284 77.597C74.301 77.5036 74.3434 77.4271 74.3943 77.3507C74.3773 77.3252 74.3519 77.2998 74.3264 77.2658C74.3095 77.2488 74.301 77.2318 74.284 77.2148C74.1992 77.3252 74.1314 77.4441 74.106 77.58C74.089 77.6564 74.0805 77.7413 74.089 77.8178C74.089 77.8942 74.106 77.9791 74.1229 78.0555C74.1484 78.1574 74.2162 78.2593 74.284 78.3443C74.3264 78.2933 74.3603 78.2508 74.3943 78.2084C74.3519 78.132 74.3179 78.0725 74.301 78.0046Z" fill="black"/>
<path d="M74.3689 85.7573C74.3774 85.7488 74.3858 85.7318 74.3943 85.7233C74.3265 85.6299 74.2926 85.528 74.2756 85.4176C74.2586 85.2817 74.2671 85.1374 74.318 85.01C74.335 84.959 74.3604 84.9166 74.3943 84.8741C74.3604 84.8317 74.3265 84.7892 74.2841 84.7383C74.2332 84.8062 74.1823 84.8826 74.1484 84.9675C74.0891 85.1204 74.0806 85.2817 74.0976 85.4346C74.1145 85.5874 74.1823 85.7318 74.2841 85.8592C74.2926 85.8507 74.301 85.8422 74.301 85.8337C74.3265 85.8082 74.3434 85.7828 74.3689 85.7573Z" fill="black"/>
<path d="M74.5781 83.7705C74.6289 83.8979 74.6289 84.0423 74.612 84.1781C74.595 84.28 74.5611 84.3735 74.4933 84.4669C74.5017 84.4838 74.5187 84.5008 74.5272 84.5178C74.5441 84.5348 74.5526 84.5518 74.5696 84.5688C74.578 84.5773 74.5865 84.5942 74.595 84.6027C74.6883 84.4838 74.7561 84.3395 74.7731 84.1951C74.7816 84.1187 74.79 84.0423 74.7815 83.9574C74.7731 83.8809 74.7646 83.796 74.7307 83.7196C74.6968 83.6262 74.6459 83.5498 74.5865 83.4648C74.5442 83.5073 74.5102 83.5582 74.4763 83.6007C74.5272 83.6601 74.5526 83.7196 74.5781 83.7705Z" fill="black"/>
<path d="M74.4961 91.0823C74.5215 91.1163 74.547 91.1417 74.5639 91.1757C74.6402 91.3031 74.6741 91.4474 74.6741 91.5918C74.6741 91.7362 74.6402 91.8805 74.5639 92.0079C74.547 92.0419 74.5215 92.0673 74.4961 92.1013C74.5046 92.1098 74.513 92.1268 74.5215 92.1353C74.547 92.1013 74.5809 92.0673 74.6063 92.0249C74.6996 91.889 74.742 91.7362 74.7504 91.5918C74.7589 91.4389 74.7335 91.2861 74.6572 91.1417C74.6318 91.0908 74.5979 91.0483 74.5639 91.0059C74.5385 91.0313 74.5131 91.0568 74.4961 91.0823Z" fill="black"/>
<path d="M74.4961 88.6281C74.5131 88.6535 74.53 88.6875 74.547 88.713C74.6063 88.8404 74.6317 88.9762 74.6233 89.1206C74.6148 89.2479 74.5724 89.3753 74.4961 89.4857C74.5215 89.5282 74.5555 89.5621 74.5894 89.6046C74.5979 89.6131 74.5978 89.6131 74.6063 89.6216C74.6148 89.6046 74.6318 89.5961 74.6402 89.5791C74.742 89.4433 74.8013 89.2819 74.8013 89.1206C74.8098 88.9677 74.7929 88.8064 74.7165 88.6535C74.6911 88.5941 74.6487 88.5431 74.6063 88.4922C74.5978 88.5007 74.5979 88.5007 74.5894 88.5092C74.5555 88.5516 74.5215 88.5941 74.4961 88.6281Z" fill="black"/>
<path d="M74.4961 86.1229C74.5215 86.1653 74.547 86.1993 74.5639 86.2418C74.6233 86.3691 74.6318 86.5135 74.6148 86.6494C74.6063 86.7683 74.5639 86.8701 74.4961 86.972C74.5046 86.9805 74.5046 86.989 74.513 86.989C74.5385 87.023 74.5639 87.0485 74.5894 87.0824C74.5979 87.0909 74.5978 87.0994 74.6063 87.0994C74.7081 86.9721 74.7759 86.8107 74.7928 86.6494C74.8098 86.4965 74.7928 86.3352 74.7335 86.1823C74.6996 86.1059 74.6572 86.038 74.6063 85.9785C74.6063 85.9785 74.6063 85.987 74.5978 85.987C74.5639 86.038 74.5215 86.0804 74.4961 86.1229Z" fill="black"/>
<path d="M74.5305 80.9257C74.6407 80.8068 74.734 80.6539 74.7764 80.5011C74.7933 80.4247 74.8018 80.3483 74.8018 80.2718C74.8018 80.1869 74.7933 80.1105 74.7679 80.0256C74.7255 79.8642 74.6238 79.7199 74.522 79.601C74.4203 79.4821 74.3355 79.3632 74.3016 79.2273C74.2846 79.1594 74.2761 79.083 74.2761 79.015C74.2761 78.9471 74.2846 78.8792 74.3016 78.8197C74.3355 78.6839 74.4118 78.565 74.5135 78.4461C74.6153 78.3272 74.7255 78.1913 74.7764 78.03C74.8018 77.9536 74.8103 77.8771 74.8103 77.7922C74.8103 77.7837 74.8103 77.7668 74.8103 77.7583C74.8103 77.6903 74.8018 77.6224 74.7933 77.5545C74.7679 77.3931 74.6662 77.2488 74.5644 77.1214C74.4542 76.994 74.3609 76.8836 74.3185 76.7562C74.2931 76.6798 74.2761 76.5949 74.2761 76.5015C74.2761 76.4505 74.2846 76.3911 74.2931 76.3401C74.3185 76.2043 74.3864 76.0854 74.4881 75.9665C74.5898 75.8476 74.7085 75.7203 74.7594 75.5589C74.7933 75.457 74.8103 75.3551 74.8103 75.2532C74.8103 75.2022 74.8103 75.1428 74.8018 75.0919C74.7849 74.9305 74.7001 74.7777 74.5899 74.6503C74.4881 74.5229 74.3779 74.4125 74.3355 74.2852C74.3016 74.1917 74.2846 74.0983 74.2846 73.9964C74.2846 73.954 74.2846 73.9115 74.2931 73.8775C74.3101 73.7417 74.3694 73.6143 74.4627 73.4954C74.5559 73.3765 74.6831 73.2491 74.7425 73.0963C74.7933 72.9774 74.8103 72.8585 74.8103 72.7397C74.8103 72.6972 74.8103 72.6632 74.8018 72.6208C74.7849 72.4679 74.717 72.3066 74.6153 72.1707C74.5136 72.0433 74.4033 71.9329 74.344 71.8056C74.2931 71.7037 74.2761 71.5933 74.2761 71.4829C74.2761 71.4574 74.2761 71.4319 74.2761 71.3979C74.2846 71.2621 74.3355 71.1262 74.4288 71.0073C74.5135 70.8884 74.6407 70.7696 74.717 70.6167C74.7849 70.4893 74.8103 70.345 74.8103 70.2091C74.8103 70.1921 74.8103 70.1666 74.8103 70.1497C74.8018 69.9968 74.7509 69.827 74.6492 69.6911C74.5474 69.5553 74.4287 69.4448 74.3609 69.326C74.2931 69.2071 74.2677 69.0712 74.2677 68.9353C74.2677 68.9268 74.2677 68.9269 74.2677 68.9184C74.2677 68.774 74.3016 68.6381 74.3864 68.5108C74.4627 68.3834 74.5899 68.273 74.6662 68.1286C74.734 68.0013 74.7679 67.8654 74.7679 67.7295C74.7679 67.7125 74.7679 67.6955 74.7679 67.6786C74.7594 67.5257 74.717 67.3729 74.6238 67.2455C74.5305 67.1096 74.4033 67.0077 74.327 66.8719C74.2422 66.7445 74.1998 66.5916 74.1998 66.4473C74.1998 66.4558 74.1998 66.4727 74.1998 66.4812C74.1998 66.6171 74.2337 66.753 74.3016 66.8804C74.3779 67.0162 74.4966 67.1351 74.5814 67.2625C74.6577 67.3898 74.6916 67.5257 74.6916 67.6701V67.6786C74.6916 67.8229 74.6577 67.9673 74.5814 68.0947C74.5051 68.222 74.3779 68.3324 74.2846 68.4683C74.1829 68.6042 74.132 68.757 74.132 68.9184C74.132 68.9438 74.132 68.9608 74.132 68.9863C74.132 69.1137 74.1574 69.2495 74.2253 69.3769C74.3016 69.5213 74.4203 69.6487 74.5051 69.7675C74.5899 69.8864 74.6322 70.0138 74.6407 70.1582C74.6407 70.1836 74.6407 70.2006 74.6407 70.2261C74.6407 70.345 74.6153 70.4554 74.5644 70.5658C74.5051 70.6931 74.3864 70.8035 74.2846 70.9309C74.1829 71.0668 74.1235 71.2281 74.1066 71.381C74.1066 71.4149 74.1066 71.4404 74.1066 71.4744C74.1066 71.6017 74.132 71.7291 74.1829 71.848C74.2507 72.0009 74.3779 72.1198 74.4711 72.2386C74.5644 72.3575 74.6153 72.4849 74.6322 72.6208C74.6322 72.6547 74.6407 72.6887 74.6407 72.7227C74.6407 72.8246 74.6238 72.935 74.5814 73.0284C74.5305 73.1557 74.4203 73.2661 74.3185 73.3935C74.2083 73.5209 74.1405 73.6822 74.1235 73.8351C74.115 73.8775 74.115 73.9285 74.115 73.9709C74.115 74.0813 74.132 74.1917 74.1744 74.3021C74.2337 74.455 74.3525 74.5908 74.4542 74.7012C74.5559 74.8201 74.6153 74.939 74.6322 75.0834C74.6407 75.1258 74.6407 75.1768 74.6407 75.2277C74.6407 75.3211 74.6238 75.4146 74.5983 75.4995C74.5559 75.6268 74.4542 75.7457 74.344 75.8646C74.2338 75.992 74.149 76.1448 74.1235 76.2977C74.115 76.3571 74.1066 76.4166 74.1066 76.4845C74.1066 76.5779 74.1235 76.6798 74.149 76.7732C74.1998 76.9346 74.31 77.0704 74.4118 77.1808C74.5135 77.2997 74.5899 77.4186 74.6153 77.5545C74.6238 77.6139 74.6322 77.6734 74.6322 77.7328C74.6322 77.7413 74.6322 77.7498 74.6322 77.7667C74.6322 77.8347 74.6238 77.9026 74.5983 77.9706C74.5644 78.1064 74.4711 78.2168 74.3609 78.3442C74.2507 78.4631 74.1574 78.6159 74.1235 78.7688C74.1066 78.8452 74.0981 78.9216 74.0981 78.9896C74.0981 79.0745 74.1066 79.1509 74.132 79.2358C74.1744 79.3972 74.2761 79.5415 74.3864 79.6604C74.4881 79.7793 74.5729 79.8982 74.6068 80.0341C74.6238 80.102 74.6322 80.1784 74.6322 80.2464C74.6322 80.3143 74.6238 80.3822 74.6068 80.4417C74.5729 80.5775 74.4966 80.6964 74.3948 80.8153C74.2931 80.9342 74.1829 81.0785 74.1405 81.2314C74.1151 81.3163 74.1066 81.4097 74.1066 81.4946C74.1066 81.5626 74.115 81.6305 74.1235 81.6984C74.1574 81.8598 74.2507 82.0041 74.3525 82.1315C74.4627 82.2589 74.5559 82.3693 74.5899 82.4967C74.6153 82.5731 74.6238 82.658 74.6238 82.7429C74.6238 82.7939 74.6153 82.8533 74.6068 82.9043C74.5814 83.0401 74.5135 83.159 74.4118 83.2779C74.31 83.3968 74.1914 83.5326 74.1405 83.6855C74.1151 83.7619 74.0981 83.8383 74.0896 83.9233C74.0896 83.9487 74.0896 83.9742 74.0896 83.9997C74.0896 84.0506 74.0896 84.1016 74.0981 84.161C74.1235 84.3224 74.1998 84.4752 74.3101 84.6026C74.4118 84.73 74.522 84.8404 74.5644 84.9678C74.5983 85.0612 74.6153 85.1546 74.6153 85.2565C74.6153 85.2989 74.6153 85.3414 74.6068 85.3838C74.5898 85.5197 74.5305 85.6471 74.4372 85.766C74.344 85.8849 74.2168 86.0122 74.1574 86.1651C74.1066 86.284 74.0896 86.4029 74.0896 86.5133C74.0896 86.5557 74.0896 86.5897 74.0981 86.6321C74.115 86.785 74.1829 86.9463 74.2846 87.0822C74.3864 87.2096 74.4966 87.32 74.5559 87.4474C74.6068 87.5493 74.6238 87.6596 74.6238 87.77C74.6238 87.7955 74.6238 87.8295 74.6238 87.8549C74.6153 87.9908 74.5644 88.1267 74.4711 88.2456C74.3864 88.3644 74.2592 88.4833 74.1829 88.6362C74.115 88.7636 74.0896 88.9079 74.0896 89.0353C74.0896 89.0608 74.0896 89.0777 74.0896 89.0947C74.0981 89.2476 74.149 89.4174 74.2507 89.5533C74.3524 89.6892 74.4711 89.7911 74.539 89.9184C74.6068 90.0373 74.6322 90.1732 74.6322 90.3091C74.6322 90.3176 74.6322 90.3176 74.6322 90.326C74.6322 90.4704 74.5983 90.6063 74.5135 90.7337C74.4287 90.861 74.3101 90.9714 74.2337 91.1158C74.1659 91.2431 74.132 91.379 74.132 91.5149C74.132 91.5319 74.132 91.5489 74.132 91.5658C74.1405 91.7187 74.1829 91.8715 74.2761 91.9989C74.4457 92.2452 74.5898 92.5424 74.4881 92.8141C74.4796 92.8311 74.4711 92.8481 74.4627 92.8651C74.4627 92.8651 74.4627 92.8651 74.4542 92.8736C74.4457 92.8906 74.4288 92.9245 74.4288 92.916C74.4288 92.9075 74.4203 92.8736 74.4203 92.8736H74.4118C74.4118 92.8736 74.4203 92.8906 74.4203 92.899C74.4203 92.9075 74.4203 92.9245 74.4203 92.933C74.4203 92.933 74.4203 92.9755 74.4203 92.984C74.4203 92.9925 74.4288 92.9755 74.4288 92.9755C74.4288 92.9755 74.4287 92.95 74.4372 92.9245C74.4457 92.9075 74.4542 92.8905 74.4542 92.8905L74.4627 92.8736C74.4796 92.8481 74.4966 92.8141 74.5051 92.7971C74.6238 92.5254 74.4796 92.2197 74.3185 91.9649C74.2422 91.8376 74.2083 91.7017 74.2083 91.5574V91.5489C74.2083 91.4045 74.2422 91.2601 74.3185 91.1328C74.3948 91.0054 74.522 90.895 74.6153 90.7591C74.717 90.6233 74.7679 90.4704 74.7679 90.3175C74.7679 90.2921 74.7679 90.2666 74.7679 90.2496C74.7679 90.1222 74.7425 89.9864 74.6746 89.859C74.5983 89.7147 74.4796 89.5873 74.3948 89.4684C74.3101 89.3495 74.2677 89.2221 74.2592 89.0778C74.2592 89.0523 74.2592 89.0353 74.2592 89.0098C74.2592 88.891 74.2846 88.7805 74.3355 88.6701C74.3948 88.5428 74.5136 88.4324 74.6153 88.305C74.717 88.1691 74.7764 88.0078 74.7933 87.8549C74.7933 87.821 74.7933 87.7955 74.7933 87.7615C74.7933 87.6342 74.7679 87.5068 74.717 87.3879C74.6492 87.2351 74.522 87.1162 74.4288 86.9973C74.3355 86.8784 74.2846 86.751 74.2677 86.6152C74.2677 86.5812 74.2592 86.5472 74.2592 86.5133C74.2592 86.4114 74.2761 86.301 74.3185 86.2075C74.3694 86.0802 74.4796 85.9698 74.5814 85.8424C74.6916 85.715 74.7594 85.5537 74.7848 85.4008C74.7933 85.3499 74.7933 85.3074 74.7933 85.2565C74.7933 85.1461 74.7764 85.0357 74.734 84.9253C74.6746 84.7725 74.5559 84.6366 74.4542 84.5262C74.3525 84.4073 74.2931 84.2884 74.2677 84.1441C74.2592 84.0931 74.2592 84.0506 74.2592 83.9997C74.2592 83.9063 74.2761 83.8129 74.3016 83.7364C74.344 83.6091 74.4457 83.4902 74.5475 83.3713C74.6577 83.2439 74.7425 83.0911 74.7679 82.9382C74.7764 82.8788 74.7848 82.8108 74.7848 82.7514C74.7848 82.658 74.7679 82.5646 74.7425 82.4627C74.6916 82.3013 74.5814 82.1655 74.4796 82.0466C74.3779 81.9277 74.3016 81.8088 74.2761 81.673C74.2677 81.6135 74.2592 81.5541 74.2592 81.4946C74.2592 81.4182 74.2677 81.3333 74.2931 81.2653C74.3355 81.1634 74.4288 81.0531 74.5305 80.9257Z" fill="black"/>
<path d="M76.9543 95.1828C76.9458 95.1319 76.9458 95.0809 76.9373 95.03C76.9203 94.9026 76.8949 94.7752 76.8525 94.6478C76.8271 94.5714 76.8016 94.495 76.7677 94.4101C76.7168 94.2827 76.649 94.1468 76.5727 94.0279C76.5388 93.977 76.5049 93.926 76.4625 93.8751C76.4201 93.8156 76.3692 93.7562 76.3268 93.7052C76.2845 93.6543 76.2421 93.6118 76.1912 93.5694C76.1403 93.5184 76.0894 93.476 76.0386 93.4335C75.9453 93.3571 75.852 93.2891 75.7418 93.2212C75.5722 93.1193 75.3772 93.0429 75.1822 92.9749C75.1144 92.9495 75.0466 92.9325 74.9703 92.924C74.8855 92.907 74.8092 92.89 74.7159 92.8815C74.6311 92.8731 74.5463 92.873 74.4531 92.873C74.3683 92.873 74.2835 92.8731 74.1902 92.8815C73.8511 92.9155 73.5289 93.0174 73.2406 93.1788C73.1728 93.2127 73.105 93.2552 73.0287 93.2976C72.9015 93.391 72.7658 93.4929 72.6556 93.6118C72.4861 93.7817 72.3419 93.9855 72.2232 94.1893C72.113 94.41 72.0282 94.6393 71.9688 94.8941C71.9349 95.0554 71.918 95.2338 71.918 95.4036C71.918 95.998 72.1384 96.567 72.4691 97C72.5369 97.085 72.6047 97.1614 72.698 97.2378C72.7913 97.3227 72.893 97.4076 73.0117 97.5011C73.2491 97.6539 73.495 97.7813 73.7833 97.8577C73.8426 97.8747 73.902 97.8832 73.9613 97.8917C74.0291 97.9087 74.1055 97.9256 74.1902 97.9256C74.4276 97.9511 74.6481 97.9426 74.877 97.9002C74.9364 97.8917 74.9872 97.8832 75.0466 97.8662C75.1144 97.8492 75.1738 97.8322 75.2416 97.8152C75.3009 97.7898 75.3688 97.7643 75.4281 97.7388C75.6062 97.6709 75.7842 97.569 75.9368 97.4416C76.0471 97.3567 76.1658 97.2633 76.259 97.1529C76.4032 97.0085 76.5388 96.8387 76.6321 96.6604C76.666 96.6009 76.6999 96.533 76.7253 96.4735C76.7593 96.4056 76.7847 96.3462 76.8016 96.2782C76.8271 96.2103 76.8525 96.1424 76.8695 96.066C76.8949 95.9725 76.9119 95.8791 76.9288 95.7772C76.9288 95.7603 76.9373 95.7348 76.9373 95.7178C76.9458 95.6159 76.9543 95.5225 76.9543 95.4121C76.9627 95.3356 76.9627 95.2507 76.9543 95.1828ZM74.4361 92.9495C74.4955 92.9495 74.5463 92.9919 74.5463 93.0599C74.5463 93.1193 74.4955 93.1703 74.4361 93.1703C74.3768 93.1703 74.3259 93.1193 74.3259 93.0599C74.3259 92.9919 74.3768 92.9495 74.4361 92.9495Z" fill="#0A2E4D"/>
<path d="M76.9533 95.1828C76.9533 95.1319 76.9449 95.0809 76.9364 95.03C76.9194 94.9026 76.894 94.7752 76.8516 94.6478C76.8262 94.5714 76.8007 94.495 76.7668 94.4101C76.7159 94.2827 76.6481 94.1468 76.5718 94.0279C76.5379 93.977 76.504 93.926 76.4616 93.8751C76.4192 93.8156 76.3683 93.7562 76.3259 93.7052C76.2835 93.6543 76.2411 93.6118 76.1903 93.5694C76.1394 93.5184 76.0885 93.476 76.0377 93.4335C75.9529 93.3571 75.8511 93.2891 75.7409 93.2212C75.5713 93.1193 75.3763 93.0429 75.1813 92.9749C75.1559 92.9665 75.1304 92.958 75.105 92.9495C75.0626 92.941 75.0202 92.924 74.9778 92.924C74.893 92.907 74.8167 92.89 74.7235 92.8815C74.6387 92.8731 74.5539 92.873 74.4606 92.873C74.3758 92.873 74.2911 92.8731 74.1978 92.8815C73.8586 92.907 73.5365 93.0089 73.2482 93.1788C73.1804 93.2127 73.1125 93.2552 73.0362 93.2976C72.9091 93.391 72.7734 93.4929 72.6632 93.6118C72.4936 93.7732 72.341 93.977 72.2308 94.1893C72.129 94.3591 72.0612 94.5459 72.0018 94.7412C71.9849 94.7922 71.9764 94.8431 71.9764 94.8856C71.9425 95.0469 71.9255 95.2253 71.9255 95.3951C71.9255 95.4036 71.9255 95.4036 71.9255 95.4121C71.9255 95.5055 71.9425 95.5904 71.951 95.6838C71.9595 95.7517 71.9679 95.8197 71.9764 95.8961C71.9934 95.998 72.0273 96.0999 72.0527 96.2018C72.0697 96.2528 72.0866 96.3037 72.1036 96.3462C72.146 96.4396 72.1799 96.5415 72.2308 96.6264C72.2986 96.7623 72.3834 96.8812 72.4682 97C72.536 97.085 72.6038 97.1614 72.6971 97.2378C72.7904 97.3312 72.8921 97.4161 73.0108 97.5011C73.2482 97.6539 73.4941 97.7813 73.7823 97.8577C73.8417 97.8747 73.901 97.8832 73.9604 97.8917C74.0282 97.9087 74.1045 97.9256 74.1893 97.9256C74.4267 97.9511 74.6472 97.9426 74.8761 97.9002C74.9354 97.8917 74.9863 97.8832 75.0457 97.8662C75.1135 97.8492 75.1728 97.8322 75.2407 97.8152C75.3 97.7898 75.3678 97.7643 75.4272 97.7388C75.6052 97.6624 75.7833 97.569 75.9359 97.4416C76.0461 97.3567 76.1648 97.2633 76.2581 97.1529C76.4022 97.0085 76.5294 96.8387 76.6311 96.6604C76.6651 96.6009 76.699 96.533 76.7244 96.4735C76.7583 96.4056 76.7838 96.3462 76.8007 96.2782C76.8262 96.2103 76.8516 96.1424 76.8685 96.066C76.894 95.9725 76.9109 95.8791 76.9279 95.7772C76.9279 95.7603 76.9364 95.7348 76.9364 95.7178C76.9449 95.6159 76.9533 95.5225 76.9533 95.4121C76.9618 95.3356 76.9618 95.2507 76.9533 95.1828ZM74.4352 93.1703C74.3758 93.1703 74.325 93.1193 74.325 93.0599C74.325 92.9919 74.3758 92.9495 74.4352 92.9495C74.4945 92.9495 74.5454 92.9919 74.5454 93.0599C74.5454 93.1193 74.4945 93.1703 74.4352 93.1703Z" fill="#3F3F40"/>
<path d="M74.4426 97.5521C75.632 97.5521 76.5962 96.5864 76.5962 95.3952C76.5962 94.204 75.632 93.2383 74.4426 93.2383C73.2533 93.2383 72.2891 94.204 72.2891 95.3952C72.2891 96.5864 73.2533 97.5521 74.4426 97.5521Z" fill="#256EA3"/>
<path d="M74.9957 93.3056C73.8426 92.9999 72.6641 93.6792 72.3504 94.8341C72.0452 95.989 72.7235 97.1693 73.8765 97.4835C75.0296 97.7892 76.2082 97.1099 76.5219 95.955C76.8271 94.8001 76.1403 93.6198 74.9957 93.3056Z" fill="#1B1C1E"/>
<path d="M74.4449 96.9825C75.3205 96.9825 76.0304 96.2716 76.0304 95.3946C76.0304 94.5176 75.3205 93.8066 74.4449 93.8066C73.5692 93.8066 72.8594 94.5176 72.8594 95.3946C72.8594 96.2716 73.5692 96.9825 74.4449 96.9825Z" fill="#E7E7E7"/>
<path d="M74.4448 96.236C74.9084 96.236 75.2842 95.8597 75.2842 95.3954C75.2842 94.9311 74.9084 94.5547 74.4448 94.5547C73.9813 94.5547 73.6055 94.9311 73.6055 95.3954C73.6055 95.8597 73.9813 96.236 74.4448 96.236Z" fill="#1A1C1E"/>
<path d="M74.4425 92.9582C74.4425 92.9412 74.434 92.9157 74.434 92.9157L74.4 92.8307C74.3491 92.6861 74.2896 92.5926 74.3321 92.4566C74.3406 92.4141 74.366 92.329 74.4 92.295C74.3915 92.2865 74.383 92.278 74.383 92.2695C74.3491 92.312 74.3321 92.3971 74.3151 92.4481C74.2472 92.6266 74.4425 92.8477 74.451 92.9922C74.434 92.9837 74.434 92.9667 74.4425 92.9582Z" fill="black"/>
<path d="M70.0754 64.5371C70.0754 65.0381 69.6684 65.4457 69.1682 65.4457C68.7782 65.4457 68.4475 65.1995 68.3203 64.8598C68.4899 65.0636 68.7358 65.191 69.0156 65.191C69.5158 65.191 69.9228 64.7833 69.9228 64.2823C69.9228 64.1635 69.8973 64.0531 69.8549 63.9512C69.9906 64.1125 70.0754 64.3163 70.0754 64.5371Z" fill="#2C2F31"/>
<path d="M31.5733 67.8574C31.3868 68.1036 31.2002 68.3499 31.0052 68.5876C30.6152 69.0802 30.1998 69.5557 29.7758 70.0228C29.6656 70.1416 29.5639 70.252 29.4536 70.3709C29.3265 70.5068 29.1993 70.6342 29.0721 70.77C28.9788 70.8634 28.8856 70.9568 28.7923 71.0502C28.6821 71.1606 28.5719 71.271 28.4532 71.3814C28.4108 71.4239 28.3684 71.4579 28.326 71.5003C28.2158 71.6022 28.1056 71.7041 28.0038 71.806C27.8427 71.9589 27.6732 72.1117 27.5036 72.2561C27.4103 72.341 27.317 72.4174 27.2238 72.5024C26.9016 72.7826 26.5794 73.0458 26.2487 73.3091C23.9171 72.4089 21.7297 71.2286 19.7287 69.802C15.9218 67.1016 12.7847 63.5096 10.6057 59.3486C13.3698 61.6244 16.5492 63.4162 20.017 64.5795C15.2774 62.1509 11.2755 58.4825 8.43522 54.0073C8.19782 53.6422 7.97739 53.2686 7.75695 52.8864C5.74752 49.3793 4.42486 45.4137 3.99245 41.1848C4.93358 42.7812 6.01035 44.2843 7.22279 45.6684C7.85021 46.3902 8.51152 47.0781 9.19829 47.7319C13.2426 51.5617 18.3552 54.2706 24.0528 55.349C18.4145 53.9394 13.4206 50.9078 9.57984 46.7809C8.74894 45.8892 7.97738 44.9551 7.26517 43.9701C5.89164 42.0849 4.73857 40.0214 3.83984 37.8391C3.8568 36.37 3.9755 34.9349 4.18747 33.5253C5.22186 35.5378 6.47668 37.406 7.91804 39.1213C9.04569 40.4545 10.2836 41.6858 11.6232 42.7982C15.0231 45.626 19.0674 47.7065 23.4932 48.7934C23.3151 48.734 23.1371 48.6745 22.959 48.6066C22.7556 48.5301 22.5605 48.4622 22.3655 48.3858C22.1705 48.3094 21.9671 48.2329 21.772 48.1565C21.7636 48.1565 21.7551 48.148 21.7466 48.148C21.611 48.0971 21.4838 48.0376 21.3481 47.9867C21.2718 47.9527 21.1955 47.9272 21.1277 47.8933C21.0005 47.8338 20.8733 47.7829 20.7377 47.7234C20.6105 47.664 20.4833 47.6131 20.3646 47.5536C20.2374 47.4942 20.1102 47.4347 19.9831 47.3753C19.8559 47.3158 19.7287 47.2564 19.61 47.1885C19.4828 47.129 19.3641 47.0611 19.237 47.0016C19.1098 46.9422 18.9911 46.8743 18.8639 46.8063C18.635 46.679 18.4061 46.5516 18.1771 46.4242C18.033 46.3393 17.8889 46.2629 17.7532 46.1779C17.626 46.1015 17.4904 46.0166 17.3632 45.9402C17.3547 45.9317 17.3547 45.9317 17.3462 45.9317C17.3462 45.9317 17.3377 45.9317 17.3377 45.9232C17.2021 45.8383 17.0664 45.7534 16.9308 45.6684C16.8206 45.6005 16.7188 45.5326 16.6086 45.4561C16.5068 45.3882 16.3966 45.3118 16.2949 45.2439C16.0829 45.0995 15.8794 44.9636 15.6759 44.8193C15.6759 44.8193 15.6675 44.8193 15.6675 44.8108C15.6166 44.7768 15.5572 44.7344 15.5064 44.6919C15.4555 44.6579 15.3961 44.6155 15.3453 44.573C15.1926 44.4626 15.04 44.3522 14.8959 44.2333C14.7687 44.1399 14.6415 44.038 14.5228 43.9446C14.4465 43.8852 14.3702 43.8257 14.2939 43.7578C14.1074 43.6049 13.9209 43.4521 13.7343 43.2992C13.7259 43.2907 13.7174 43.2823 13.7089 43.2738C13.7004 43.2653 13.692 43.2653 13.692 43.2568C13.5987 43.1719 13.5054 43.0954 13.4121 43.0105C13.3528 42.9511 13.285 42.9001 13.2172 42.8407C13.1663 42.7982 13.1069 42.7473 13.0561 42.6963C13.0306 42.6793 13.0137 42.6539 12.9882 42.6369C12.878 42.535 12.7678 42.4416 12.6576 42.3312C12.5473 42.2293 12.4287 42.1189 12.3184 42.0085C12.31 42 12.3015 41.9915 12.293 41.983C12.2591 41.9491 12.2251 41.9151 12.1912 41.8811C12.0301 41.7283 11.8775 41.5754 11.7249 41.4141C11.6571 41.3461 11.5977 41.2867 11.5299 41.2188C11.4451 41.1339 11.3603 41.0489 11.284 40.9555C11.2077 40.8706 11.1314 40.7942 11.0551 40.7093C10.9618 40.6159 10.8771 40.5139 10.7923 40.412C10.6905 40.3017 10.5973 40.1912 10.4955 40.0809C10.3853 39.9535 10.2751 39.8261 10.1733 39.6987C10.0801 39.5884 9.97832 39.4695 9.88505 39.3506C9.8257 39.2742 9.76638 39.1977 9.69855 39.1213C9.57137 38.9685 9.44419 38.8071 9.32549 38.6458C9.26614 38.5778 9.21527 38.5014 9.16439 38.4335C9.15592 38.425 9.14742 38.4165 9.14742 38.408C9.08807 38.3316 9.03721 38.2551 8.97786 38.1787C8.96939 38.1617 8.95242 38.1448 8.94394 38.1278C8.91851 38.0938 8.89307 38.0513 8.86764 38.0174C8.8422 37.9834 8.82523 37.9579 8.7998 37.924C8.79132 37.9155 8.79133 37.907 8.78285 37.8985C8.73198 37.8306 8.6896 37.7711 8.63873 37.7032C8.54546 37.5758 8.46065 37.4484 8.37587 37.321C6.91755 35.1811 5.72207 32.8374 4.85726 30.3493C5.70512 27.1989 7.05322 24.2608 8.81677 21.6113C8.91851 21.9085 9.02024 22.1973 9.12199 22.486C9.24916 22.8426 9.38483 23.1993 9.52897 23.5559C9.56288 23.6324 9.5883 23.7088 9.62222 23.7852C9.69005 23.9635 9.76636 24.1419 9.83418 24.3117C9.89353 24.4561 9.94442 24.5919 10.0038 24.7278C10.0886 24.9401 10.1818 25.1439 10.2751 25.3477C10.2836 25.3732 10.292 25.3902 10.309 25.4156C10.3175 25.4411 10.3259 25.4666 10.3429 25.4836C10.3683 25.5345 10.3938 25.594 10.4192 25.6449C10.4362 25.6959 10.4616 25.7468 10.4871 25.7893C10.5973 26.0355 10.716 26.2818 10.8347 26.528C10.9025 26.6724 10.9703 26.8253 11.0466 26.9696C11.089 27.0545 11.1229 27.131 11.1653 27.2159C11.1738 27.2329 11.1823 27.2498 11.1908 27.2583C11.2586 27.3857 11.318 27.5216 11.3858 27.649C11.4027 27.6914 11.4282 27.7339 11.4451 27.7678C11.4621 27.8018 11.479 27.8358 11.496 27.8697C11.496 27.8697 11.496 27.8782 11.5045 27.8782C11.5129 27.8952 11.5214 27.9207 11.5299 27.9377C11.5469 27.9716 11.5638 27.9971 11.5808 28.0311C11.6656 28.2009 11.7588 28.3792 11.8521 28.5491C11.9454 28.7274 12.0386 28.9057 12.1404 29.0756C12.1488 29.0925 12.1573 29.1095 12.1658 29.118C12.1912 29.169 12.2167 29.2114 12.2506 29.2624C12.2591 29.2794 12.2675 29.2963 12.276 29.3133C12.3015 29.3558 12.3184 29.3983 12.3439 29.4322C12.3608 29.4662 12.3778 29.4917 12.3947 29.5256C12.4202 29.5681 12.4371 29.6106 12.4626 29.6445C12.4626 29.653 12.471 29.6615 12.471 29.6615C12.4965 29.704 12.5134 29.7464 12.5389 29.7804C12.5982 29.8908 12.666 30.0012 12.7254 30.1116C12.8526 30.3323 12.9798 30.5446 13.1069 30.7569C13.1069 30.7654 13.1154 30.7654 13.1154 30.7739C13.1832 30.8843 13.2596 31.0032 13.3274 31.1136C13.3443 31.1391 13.3613 31.173 13.3783 31.1985L13.3867 31.207C13.3952 31.224 13.4037 31.241 13.4206 31.2579C13.4376 31.2834 13.4461 31.3004 13.463 31.3259C13.5224 31.4193 13.5817 31.5212 13.6495 31.6146C13.658 31.6316 13.675 31.6571 13.692 31.674C13.7089 31.6995 13.7174 31.7165 13.7343 31.7335C13.7852 31.8099 13.8361 31.8948 13.8869 31.9713C13.8869 31.9797 13.8954 31.9797 13.8954 31.9882C13.9039 32.0052 13.9209 32.0222 13.9294 32.0392C13.9802 32.1241 14.0311 32.2005 14.0905 32.2854C14.1074 32.3109 14.1244 32.3364 14.1328 32.3534C14.1413 32.3619 14.1413 32.3619 14.1413 32.3704C14.1413 32.3789 14.1413 32.3789 14.1498 32.3789L14.1583 32.3873C14.1667 32.3958 14.1668 32.3958 14.1668 32.3958C14.2007 32.4553 14.2431 32.5062 14.277 32.5657C14.3279 32.6421 14.3787 32.7185 14.4296 32.795C14.4974 32.8884 14.5568 32.9903 14.6246 33.0837C14.6416 33.1091 14.6585 33.1261 14.667 33.1516L14.6755 33.1601C14.7179 33.2195 14.7687 33.2875 14.8111 33.3469C14.8196 33.3639 14.8281 33.3809 14.845 33.3979C14.862 33.4233 14.8874 33.4573 14.9044 33.4828C14.9637 33.5677 15.0231 33.6611 15.0909 33.746C15.1757 33.8564 15.252 33.9753 15.3368 34.0857C15.447 34.2385 15.5657 34.3914 15.6759 34.5443C15.7183 34.6037 15.7607 34.6631 15.8031 34.7141C15.8286 34.7481 15.854 34.782 15.8794 34.816C15.8879 34.8245 15.8964 34.833 15.8964 34.8415C15.8964 34.85 15.9049 34.85 15.9049 34.85L15.9133 34.8584C15.9388 34.9009 15.9727 34.9349 16.0066 34.9773C16.0405 35.0198 16.0744 35.0707 16.1168 35.1217C16.1168 35.1217 16.1168 35.1302 16.1253 35.1302C16.1592 35.1726 16.1846 35.2066 16.2186 35.2491C16.244 35.283 16.2695 35.317 16.2949 35.351C16.3203 35.3849 16.3458 35.4189 16.3712 35.4529C16.5832 35.7161 16.7951 35.9878 17.0071 36.2426C17.0156 36.2511 17.0155 36.2511 17.0155 36.2596C17.0664 36.3275 17.1258 36.3955 17.1851 36.4634C17.1936 36.4719 17.1936 36.4804 17.2021 36.4889C17.2021 36.4974 17.2106 36.4974 17.2106 36.4974C17.236 36.5228 17.2529 36.5483 17.2784 36.5823C17.2869 36.5992 17.3038 36.6162 17.3208 36.6332C17.3377 36.6587 17.3632 36.6842 17.3886 36.7097C17.3971 36.7266 17.4141 36.7351 17.4225 36.7521C17.4395 36.7776 17.4564 36.7946 17.4734 36.8116C17.4988 36.8455 17.5243 36.871 17.5497 36.905C17.7362 37.1257 17.9228 37.338 18.1093 37.5503C18.2026 37.6522 18.2958 37.7626 18.3891 37.8645C18.4485 37.941 18.5163 38.0089 18.5841 38.0853C18.6095 38.1193 18.6435 38.1532 18.6774 38.1872C18.6858 38.1957 18.6858 38.2042 18.6943 38.2042C18.7028 38.2127 18.7113 38.2212 18.7198 38.2297C18.7282 38.2382 18.7282 38.2467 18.7367 38.2467C18.7367 38.2552 18.7452 38.2551 18.7452 38.2551L18.7621 38.2721L18.7706 38.2806C18.7876 38.2976 18.8045 38.3231 18.8215 38.3401C18.8384 38.357 18.8554 38.374 18.8639 38.391C18.8978 38.425 18.9232 38.4505 18.9572 38.4844C18.9741 38.5014 18.9911 38.5184 19.008 38.5439C19.025 38.5693 19.0504 38.5863 19.0759 38.6118C19.0843 38.6203 19.0928 38.6288 19.1013 38.6373C19.2709 38.8156 19.4404 38.9939 19.61 39.1723C19.6863 39.2572 19.7626 39.3336 19.8474 39.4185C19.8813 39.4525 19.9068 39.478 19.9407 39.5119C20.0085 39.5799 20.0763 39.6478 20.1441 39.7157C20.1441 39.7157 20.1442 39.7157 20.1526 39.7242C20.1781 39.7497 20.2035 39.7752 20.2374 39.8006C20.2629 39.8261 20.2883 39.8516 20.3222 39.8771C20.3646 39.9195 20.407 39.9705 20.4579 40.0129C20.5257 40.0809 20.5935 40.1488 20.6614 40.2167C20.7122 40.2677 20.7546 40.3102 20.8055 40.3611C20.8818 40.4375 20.9581 40.514 21.0344 40.5819C21.1531 40.6923 21.2633 40.8027 21.382 40.9131C21.4075 40.9385 21.4329 40.964 21.4668 40.9895C21.6364 41.1508 21.8144 41.3122 21.9925 41.465C22.0688 41.5329 22.1451 41.6094 22.2299 41.6773C22.4419 41.8641 22.6623 42.0595 22.8827 42.2463C23.1201 42.4501 23.366 42.6539 23.6034 42.8492C23.6882 42.9171 23.773 42.985 23.8578 43.053C24.0189 43.1803 24.18 43.3162 24.3411 43.4436C24.5361 43.5965 24.7311 43.7493 24.9261 43.9021C25.0024 43.9616 25.0702 44.0125 25.1465 44.072C25.3839 44.2503 25.6298 44.4371 25.8757 44.607C26.1216 44.7853 26.3674 44.9636 26.6133 45.1335C26.7998 45.2608 26.9864 45.3882 27.1729 45.5156C27.2916 45.592 27.4103 45.6769 27.529 45.7534C27.6392 45.8298 27.7494 45.8977 27.8597 45.9741C27.9699 46.0506 28.0801 46.1185 28.1903 46.1864C28.4277 46.3393 28.6567 46.4837 28.8941 46.628C28.9449 46.662 29.0043 46.6959 29.0636 46.7299C29.0806 46.7384 29.0891 46.7469 29.106 46.7554C29.2247 46.8318 29.3434 46.8997 29.4621 46.9677C29.5808 47.0441 29.6995 47.112 29.8182 47.18C29.886 47.2139 29.9454 47.2564 30.0132 47.2904C30.0726 47.3328 30.1404 47.3668 30.2082 47.4008V47.4092C30.2082 47.4177 30.1998 47.4177 30.1998 47.4262C30.1489 47.5961 30.098 47.7659 30.0556 47.9442C29.9963 48.165 29.9454 48.3773 29.8861 48.5981C29.8606 48.7 29.8352 48.8104 29.8097 48.9123C29.7843 49.0142 29.7589 49.1246 29.7334 49.2265C29.708 49.3284 29.691 49.4218 29.6656 49.5237C29.6656 49.5407 29.6571 49.5577 29.6571 49.5661C29.6232 49.7275 29.5893 49.8888 29.5554 50.0587C29.513 50.254 29.4791 50.4578 29.4452 50.6616C29.4367 50.721 29.4282 50.772 29.4197 50.8314C29.4028 50.9418 29.3858 51.0437 29.3689 51.1541C29.3689 51.1711 29.3604 51.1881 29.3604 51.2135C29.3434 51.3409 29.3265 51.4683 29.3095 51.5872C29.2925 51.7315 29.2671 51.8759 29.2502 52.0203C29.2502 52.0288 29.2502 52.0287 29.2502 52.0287C29.2247 52.2241 29.2078 52.4279 29.1823 52.6317C29.1823 52.6487 29.1738 52.6741 29.1738 52.6911C29.1569 52.8609 29.1399 53.0308 29.1315 53.2006C29.1315 53.2176 29.1314 53.2346 29.123 53.2516C29.1145 53.328 29.106 53.3959 29.106 53.4639C29.0975 53.5148 29.0975 53.5658 29.0975 53.6167C29.0891 53.6592 29.0891 53.7101 29.0891 53.7526C29.0806 53.8884 29.0721 54.0158 29.0636 54.1517C29.0552 54.2791 29.0467 54.4149 29.0467 54.5423C29.0467 54.5508 29.0467 54.5678 29.0467 54.5763C29.0382 54.6952 29.0382 54.8141 29.0382 54.9329C29.0297 55.0433 29.0297 55.1537 29.0297 55.2641C29.0297 55.417 29.0212 55.5698 29.0212 55.7227V55.7991C29.0212 55.901 29.0212 55.9944 29.0212 56.0878C29.0212 56.1727 29.0212 56.2661 29.0297 56.351V56.3765C29.0382 56.5888 29.0382 56.8011 29.0551 57.0134C29.0636 57.1747 29.0721 57.3276 29.0806 57.4889C29.0806 57.5399 29.0891 57.5824 29.0891 57.6333C29.0975 57.7097 29.0975 57.7777 29.106 57.8541C29.1145 57.9985 29.123 58.1428 29.1399 58.2872C29.1739 58.7457 29.2247 59.1958 29.2841 59.6458C29.301 59.7647 29.318 59.8836 29.3349 60.011C29.3604 60.1723 29.3773 60.3252 29.4113 60.478C29.4282 60.6054 29.4536 60.7328 29.4706 60.8602C29.496 61.0215 29.53 61.1913 29.5639 61.3527C29.5808 61.4291 29.5893 61.514 29.6063 61.5905C29.725 62.1849 29.8606 62.7708 30.0132 63.3483C30.0471 63.4671 30.0726 63.5945 30.115 63.7134C30.1743 63.9342 30.2337 64.1465 30.3015 64.3588C30.3439 64.4946 30.3863 64.622 30.4287 64.7579C30.4795 64.9277 30.5389 65.106 30.5983 65.2759C30.683 65.5221 30.7678 65.7769 30.8611 66.0232C30.895 66.1081 30.9204 66.193 30.9543 66.2694C31.0137 66.4393 31.0815 66.6006 31.1494 66.7704C31.2257 66.9488 31.2935 67.1271 31.3698 67.3054C31.4207 67.4328 31.48 67.5686 31.5394 67.696C31.5394 67.7894 31.5563 67.8234 31.5733 67.8574Z" fill="#191D20"/>
<defs>
<linearGradient id="paint0_linear_1480_8453" x1="1.51266" y1="88.8801" x2="15.5017" y2="88.8801" gradientUnits="userSpaceOnUse">
<stop stop-color="#545454" stop-opacity="0.61"/>
<stop offset="1" stop-color="#1F1F1F" stop-opacity="0"/>
</linearGradient>
</defs>
</svg>
