<svg width="74" height="93" viewBox="0 0 74 93" fill="none" xmlns="http://www.w3.org/2000/svg">
<path d="M33.465 54.0879C28.9544 55.2767 25.2153 58.3507 23.1296 62.4182C23.0533 62.5626 22.9855 62.707 22.9177 62.8598C22.4089 61.688 22.1292 60.3718 22.1292 58.9876C22.1292 57.3487 22.5276 55.8117 23.2144 54.487C23.2229 54.47 23.2314 54.4446 23.2483 54.4276C24.5201 54.6144 25.8258 54.7078 27.1485 54.7078C27.6911 54.7078 28.2337 54.6992 28.7764 54.6653C28.7509 54.6907 28.717 54.7248 28.6916 54.7503C28.7509 54.7503 28.8018 54.7418 28.8611 54.7418C30.3873 54.6399 31.9304 54.4191 33.465 54.0879Z" fill="url(#paint0_linear_1480_8573)"/>
<path d="M23.1288 62.4101C21.3992 65.9852 20.4326 70.0018 20.4326 74.2392C20.4326 81.075 22.9507 87.325 27.1137 92.1058C19.6865 84.3019 15.125 73.7296 15.125 62.0959C15.125 58.7672 15.5065 55.5149 16.2103 52.3984C16.2442 52.4154 16.2696 52.4239 16.3035 52.4408C18.4825 53.3919 20.8141 54.0628 23.2475 54.411C24.5193 54.5978 25.825 54.6912 27.1476 54.6912C27.6903 54.6912 28.2329 54.6827 28.7755 54.6488C28.7501 54.6742 28.7162 54.7082 28.6907 54.7337C26.41 56.9415 24.5278 59.5314 23.1288 62.4101Z" fill="url(#paint1_linear_1480_8573)"/>
<path d="M43.7 21.2246C41.733 28.0095 35.4758 32.9602 28.0655 32.9602C27.4974 32.9602 26.9378 32.9347 26.3867 32.8753C31.0923 27.7038 37.0104 23.6617 43.7 21.2246Z" fill="url(#paint2_linear_1480_8573)"/>
<path d="M53.3067 34.7608C52.4673 37.8433 51.0853 40.7135 49.2794 43.2611L49.2709 43.2696C44.9129 46.5134 39.5459 48.4834 33.7381 48.6278C33.7042 48.6278 33.6788 48.6278 33.6448 48.6278C33.5855 48.6278 33.5261 48.6278 33.4668 48.6278C33.3311 48.6278 33.204 48.6278 33.0768 48.6278C32.7461 48.6278 32.4239 48.6193 32.1017 48.6108C27.5402 48.4495 23.2586 47.1588 19.5365 45.0104C19.2906 44.866 19.0447 44.7216 18.7989 44.5688C11.0833 39.7794 5.94531 31.2198 5.94531 21.4543C5.94531 15.5865 7.80211 10.1432 10.9646 5.70204C15.4837 2.33082 21.088 0.34375 27.1502 0.34375C27.3707 0.34375 27.5827 0.343758 27.7946 0.35225C27.7946 0.35225 27.8031 0.343758 27.8116 0.35225C27.82 0.343758 27.8285 0.343758 27.8455 0.35225H27.854C28.9477 0.377725 30.033 0.471141 31.0843 0.623992C31.0928 0.6155 31.1013 0.623992 31.1097 0.623992C35.4508 1.4392 39.1983 3.99523 41.5808 7.53628C39.1051 6.01626 36.1969 5.15011 33.0852 5.15011C24.0979 5.15011 16.8064 12.453 16.8064 21.4543C16.8064 24.834 17.8238 27.9589 19.5789 30.5574C20.8422 32.4341 22.487 34.0305 24.4032 35.2449C26.9128 36.8413 29.8973 37.7584 33.0852 37.7584C38.4522 37.7584 43.2172 35.1599 46.1847 31.1518C46.244 31.2113 46.2949 31.2792 46.3543 31.3386C48.1178 33.2578 50.5681 34.523 53.3067 34.7608Z" fill="url(#paint3_linear_1480_8573)"/>
<path d="M43.7 21.2246C41.733 28.0095 35.4758 32.9602 28.0655 32.9602C27.4974 32.9602 26.9378 32.9347 26.3867 32.8753C31.0923 27.7038 37.0104 23.6617 43.7 21.2246Z" fill="url(#paint4_linear_1480_8573)"/>
<path d="M54.3717 34.8033C53.5239 37.9027 52.1419 40.7899 50.336 43.3375L49.4033 44.0678C49.2507 44.1782 49.0981 44.2885 48.9455 44.3989C48.6741 44.5857 48.4028 44.7726 48.1315 44.9509C43.994 47.6683 38.8644 49.511 33.4636 49.5025H33.3703C33.1753 49.511 32.9888 49.511 32.8022 49.511C32.4716 49.511 32.1494 49.5025 31.8187 49.494C27.2572 49.3241 23.2469 47.1757 19.5248 45.0104C19.2789 44.866 19.033 44.7216 18.7871 44.5688C11.0716 39.7794 5.93359 31.2198 5.93359 21.4543C5.93359 15.578 7.79042 10.1432 10.9529 5.70204C15.472 2.33082 21.0764 0.34375 27.1385 0.34375H27.7914C27.7914 0.34375 27.7914 0.34375 27.7999 0.34375H28.0627C29.0971 0.34375 30.0976 0.437174 31.0726 0.623992C31.0811 0.6155 31.0895 0.623992 31.098 0.623992C32.4546 0.878744 33.7518 1.30336 34.9727 1.87231C35.456 2.10158 35.9308 2.3563 36.3887 2.62803C36.9398 2.95921 37.4739 3.32437 37.9742 3.7065C38.0166 3.74047 38.0589 3.77443 38.1013 3.8084C38.6016 4.19902 39.0848 4.6236 39.5427 5.07366C40.2973 5.82942 40.9756 6.64465 41.5691 7.53628C40.1786 6.67862 38.644 6.03325 37.0246 5.62564C35.7613 5.31994 34.4386 5.15011 33.0736 5.15011C29.4193 5.15011 26.0448 6.35593 23.3316 8.38546C23.1197 8.53831 22.9162 8.69966 22.7127 8.86949C22.3142 9.20067 21.9242 9.54883 21.5596 9.92246C18.6091 12.8691 16.7862 16.9536 16.7862 21.4543C16.7862 23.5602 17.1847 25.5727 17.9138 27.4239C18.058 27.7891 18.2191 28.1542 18.3886 28.5109C18.4734 28.6892 18.5582 28.8675 18.6515 29.0374C18.838 29.3855 19.033 29.7337 19.2365 30.0649C19.3382 30.2347 19.4485 30.396 19.5587 30.5574C20.822 32.4341 22.4668 34.0305 24.383 35.2448C26.9011 36.8413 29.8771 37.7584 33.0736 37.7584C38.4405 37.7584 43.197 35.1599 46.173 31.1518C46.2238 31.2113 46.2832 31.2792 46.3425 31.3386C46.3595 31.3556 46.368 31.3641 46.3849 31.3811L46.3934 31.3896L46.4019 31.3981C48.157 33.1983 51.3533 34.4891 53.9987 34.8033H54.0326C54.092 34.8118 54.1428 34.8118 54.1937 34.8118C54.2531 34.8033 54.3039 34.8033 54.3548 34.8033H54.3717Z" fill="url(#paint5_linear_1480_8573)"/>
<path d="M50.3374 43.3451C49.3539 44.7292 48.2516 46.02 47.0307 47.1919C44.2158 49.9007 40.4259 52.0152 36.3646 53.3144C35.7203 53.5182 35.0674 53.705 34.4061 53.8664C34.0924 53.9258 33.7787 54.0023 33.465 54.0872C31.9304 54.4268 30.3872 54.6391 28.8526 54.7325C28.7933 54.7325 28.7424 54.741 28.683 54.741C28.7085 54.7156 28.7424 54.6816 28.7678 54.6562C28.2337 54.6901 27.6911 54.6985 27.14 54.6985C25.8173 54.6985 24.5116 54.6052 23.2398 54.4184C20.8065 54.0702 18.4748 53.3993 16.2958 52.4482C16.2619 52.4397 16.2365 52.4228 16.2026 52.4058C6.66416 48.1939 0 38.6407 0 27.5165C0 18.5831 4.30713 10.6519 10.9543 5.70117C7.79183 10.1424 5.93501 15.5856 5.93501 21.4534C5.93501 31.2189 11.073 39.7786 18.7885 44.5679C19.0344 44.7208 19.2803 44.8651 19.5262 45.0095C23.2483 47.1749 27.53 48.5845 32.0914 48.7543C32.4136 48.7628 32.7443 48.7713 33.0665 48.7713C33.253 48.7713 33.448 48.7713 33.6346 48.7628C33.66 48.7628 33.6939 48.7628 33.7278 48.7628C39.4933 48.7713 44.6652 47.4126 48.9384 44.3981C49.091 44.2877 49.2436 44.1773 49.3962 44.0669L50.3374 43.3451Z" fill="url(#paint6_linear_1480_8573)"/>
<path d="M27.1488 54.6989C27.6914 54.6989 28.234 54.6904 28.7767 54.6565C28.7512 54.6819 28.7173 54.7159 28.6919 54.7414C28.2086 54.7668 27.7253 54.7838 27.2336 54.7838C25.8685 54.7838 24.5289 54.6819 23.2232 54.4866C20.7983 54.1299 18.4752 53.4506 16.3047 52.491C16.3047 52.4825 16.3131 52.4655 16.3131 52.457C18.4921 53.4081 20.8238 54.079 23.2571 54.4272C24.5204 54.6055 25.8261 54.6989 27.1488 54.6989Z" fill="url(#paint7_linear_1480_8573)"/>
<path d="M34.406 53.8672C34.0922 53.9436 33.7786 54.02 33.4648 54.088C33.7786 54.0031 34.0922 53.9266 34.406 53.8672Z" fill="url(#paint8_linear_1480_8573)"/>
<path d="M46.1761 31.1516C43.2001 35.1597 38.4437 37.7581 33.0767 37.7581C29.8803 37.7581 26.9043 36.841 24.3946 35.2446C22.4785 34.0303 20.8336 32.4338 19.5703 30.5571C21.5967 31.8054 23.9198 32.6121 26.3956 32.8754C26.9467 32.9263 27.5063 32.9603 28.0743 32.9603C35.4846 32.9603 41.7418 28.0096 43.7089 21.2247C43.7343 21.2162 43.7597 21.2077 43.7936 21.1992C43.5647 22.0739 43.446 22.991 43.446 23.9421C43.4376 26.7019 44.4634 29.2409 46.1761 31.1516Z" fill="url(#paint9_linear_1480_8573)"/>
<path d="M43.7 21.2246C41.733 28.0095 35.4758 32.9602 28.0655 32.9602C27.4974 32.9602 26.9378 32.9347 26.3867 32.8753C31.0923 27.7038 37.0104 23.6617 43.7 21.2246Z" fill="url(#paint10_linear_1480_8573)"/>
<path d="M16.7953 21.4543C16.7953 24.8255 17.8127 27.9589 19.5678 30.5574C14.9046 27.6957 11.793 22.5412 11.793 16.6564C11.793 7.74008 18.9319 0.488118 27.8005 0.35225C27.8005 0.35225 27.809 0.343758 27.8175 0.35225C27.826 0.343758 27.8345 0.343758 27.8514 0.35225H27.8599C27.9362 0.343758 28.004 0.34375 28.0803 0.34375C29.1147 0.34375 30.1152 0.437174 31.0902 0.623992C31.0987 0.6155 31.1072 0.623992 31.1072 0.623992C35.4567 1.4392 39.1958 3.99523 41.5782 7.53628C39.1025 6.01626 36.1943 5.15011 33.0827 5.15011C24.0869 5.15011 16.7953 12.453 16.7953 21.4543Z" fill="url(#paint11_linear_1480_8573)"/>
<path d="M43.7 21.2246C41.733 28.0095 35.4758 32.9602 28.0655 32.9602C27.4974 32.9602 26.9378 32.9347 26.3867 32.8753C31.0923 27.7038 37.0104 23.6617 43.7 21.2246Z" fill="url(#paint12_linear_1480_8573)"/>
<path d="M63.9185 18.9494C62.6552 18.7965 61.2732 18.1936 59.9675 18.1426C59.4673 18.1257 58.9501 18.1172 58.4414 18.1172C56.5337 18.1172 54.6599 18.2361 52.8116 18.4823C51.5822 18.6352 50.3613 18.856 49.1573 19.1192C47.2751 19.5183 45.5539 20.5543 43.7819 21.1912H43.7734V21.1996C43.7734 21.2251 43.7649 21.2506 43.7565 21.2761C43.731 21.4035 43.6971 21.5308 43.6716 21.6497C43.6547 21.7177 43.6377 21.7941 43.6293 21.862C43.6208 21.8705 43.6208 21.8705 43.6208 21.879C43.5869 22.0743 43.553 22.2696 43.5275 22.465V22.4904C43.4597 22.9659 43.4258 23.45 43.4258 23.934C43.4258 24.0784 43.4343 24.2142 43.4343 24.3586C43.4427 24.435 43.4428 24.5115 43.4428 24.5879C43.4512 24.6304 43.4512 24.6728 43.4512 24.7067C43.4597 24.7917 43.4682 24.8766 43.4767 24.9615C43.4936 25.1314 43.5106 25.2927 43.536 25.4625C43.5445 25.522 43.5529 25.5814 43.5614 25.6409C43.5784 25.7513 43.5953 25.8532 43.6123 25.9636C43.6377 26.057 43.6547 26.1588 43.6801 26.2522C43.6886 26.3202 43.7056 26.3881 43.7225 26.4476C43.7479 26.575 43.7819 26.7023 43.8158 26.8297C43.8413 26.9231 43.8667 27.0165 43.9006 27.1099C43.9091 27.1269 43.9091 27.1524 43.9176 27.1694C43.926 27.1863 43.926 27.2118 43.9345 27.2373C43.9514 27.2968 43.9684 27.3477 43.9938 27.3987C43.9938 27.4156 44.0023 27.4411 44.0108 27.4581C44.0447 27.5515 44.0786 27.6364 44.1041 27.7298C44.121 27.7638 44.1295 27.8062 44.1464 27.8402C44.2058 28.0015 44.2737 28.1544 44.3415 28.3157C44.4008 28.4346 44.4517 28.5535 44.511 28.6639C44.5195 28.6979 44.5365 28.7233 44.5534 28.7488C44.5704 28.7998 44.5958 28.8507 44.6212 28.9017C44.6382 28.9271 44.6467 28.9526 44.6637 28.9696C44.6976 29.046 44.74 29.114 44.7739 29.1819C44.8587 29.3263 44.935 29.4706 45.0198 29.6065C45.0622 29.6744 45.1045 29.7423 45.1469 29.8103C45.2402 29.9462 45.325 30.0736 45.4182 30.2094C45.4776 30.2943 45.5369 30.3707 45.5963 30.4557C45.7743 30.6934 45.9693 30.9227 46.1728 31.152C46.2237 31.2114 46.2831 31.2793 46.3424 31.3388L46.3509 31.3558C46.3679 31.3643 46.3763 31.3728 46.3848 31.3813L46.3933 31.3897L46.4018 31.3982C46.4526 31.4662 46.5204 31.5256 46.5798 31.5851C46.6137 31.619 46.6477 31.653 46.6816 31.687L46.7748 31.7804C46.8596 31.8653 46.9444 31.9417 47.0377 32.0266C47.0461 32.0266 47.0546 32.0351 47.0631 32.0436C47.1309 32.1031 47.1987 32.171 47.2666 32.2305C47.3344 32.2899 47.4023 32.3408 47.4701 32.4003C47.4786 32.4003 47.4785 32.4088 47.487 32.4088C47.504 32.4257 47.5209 32.4427 47.5464 32.4597C47.5464 32.4597 47.5464 32.4597 47.5548 32.4682C47.5803 32.4852 47.6142 32.5107 47.6396 32.5277C47.7074 32.5871 47.7838 32.6465 47.8601 32.6975C47.8685 32.706 47.877 32.7144 47.877 32.7144C47.9194 32.7399 47.9534 32.7654 47.9873 32.7909C48.0042 32.8079 48.0212 32.8164 48.0466 32.8333C48.1144 32.8758 48.1823 32.9268 48.2501 32.9777C48.3179 33.0202 48.3942 33.0711 48.4621 33.1136C48.5299 33.156 48.6062 33.1985 48.674 33.241C48.6825 33.2495 48.691 33.2494 48.6994 33.2579C48.7588 33.3004 48.8182 33.3344 48.8775 33.3683C48.9284 33.3938 48.9792 33.4193 49.0216 33.4448C49.0555 33.4618 49.081 33.4787 49.1149 33.4957C49.1828 33.5382 49.2591 33.5722 49.3269 33.6146C49.3269 33.6146 49.3353 33.6146 49.3438 33.6231C49.3777 33.6401 49.4201 33.657 49.454 33.674C49.4964 33.6995 49.5304 33.7165 49.5728 33.7335C49.6067 33.7504 49.6406 33.7674 49.6745 33.7844C49.7169 33.8014 49.7593 33.8184 49.8017 33.8354C49.8526 33.8608 49.8949 33.8778 49.9458 33.9033C50.0052 33.9288 50.0645 33.9543 50.1323 33.9798C50.1747 34.0052 50.2171 34.0222 50.2595 34.0392C50.268 34.0392 50.2765 34.0392 50.285 34.0477C50.3189 34.0561 50.3528 34.0732 50.3867 34.0902C50.4122 34.0986 50.4291 34.1071 50.446 34.1071C50.4715 34.1156 50.4884 34.1241 50.5054 34.1326C50.5393 34.1411 50.5648 34.1581 50.5902 34.1666C50.6156 34.175 50.6495 34.1836 50.675 34.1921C50.7174 34.209 50.7513 34.2175 50.7937 34.2345C50.8191 34.243 50.8445 34.2515 50.87 34.2599C51.0141 34.3024 51.1582 34.3534 51.3024 34.3958C51.3872 34.4128 51.4635 34.4383 51.5483 34.4553C51.5568 34.4638 51.5737 34.4638 51.5907 34.4722C51.6585 34.4892 51.7263 34.5063 51.7941 34.5147C51.9298 34.5487 52.0654 34.5827 52.2011 34.6081C52.3368 34.6336 52.4725 34.6591 52.6166 34.6761C52.6844 34.6846 52.7522 34.693 52.8286 34.7015C52.854 34.71 52.8879 34.7185 52.9133 34.7185C52.9557 34.727 52.9981 34.727 53.032 34.7355C53.0744 34.744 53.1168 34.744 53.1507 34.744C53.1592 34.744 53.1592 34.744 53.1677 34.744C53.2101 34.7525 53.2525 34.7525 53.3034 34.761C53.5323 34.7865 53.7612 34.7949 53.9986 34.8034H54.0325C54.0919 34.8119 54.1427 34.8119 54.1936 34.8119H54.3632V34.8034C54.3462 34.7015 54.3292 34.5911 54.3207 34.4892C54.2953 34.1666 54.2784 33.8523 54.2784 33.5212C54.2784 33.3004 54.2869 33.0796 54.2953 32.8588V32.8164C54.3038 32.757 54.3123 32.706 54.3123 32.6465C54.3208 32.6296 54.3207 32.6211 54.3207 32.6041V32.5786C54.3292 32.5446 54.3292 32.5107 54.3377 32.4767V32.4512C54.3377 32.4427 54.3377 32.4342 54.3462 32.4258C54.3462 32.4003 54.3462 32.3833 54.3547 32.3578C54.3716 32.1455 54.4055 31.9332 54.4395 31.7294C54.4479 31.704 54.448 31.687 54.4564 31.6615C54.4564 31.653 54.4564 31.653 54.4564 31.6445C54.4564 31.6445 54.4564 31.636 54.4649 31.6275C54.4649 31.6275 54.4649 31.619 54.4649 31.6105C54.4734 31.602 54.4734 31.5936 54.4734 31.5766C54.4818 31.5511 54.4818 31.5172 54.4903 31.4917C54.5158 31.3388 54.5412 31.1859 54.5751 31.0331C54.6175 30.8548 54.6599 30.6764 54.7108 30.5066C54.9482 29.6744 55.2873 28.8847 55.7028 28.1459C55.7791 28.0016 55.8639 27.8657 55.9487 27.7298C56.0674 27.543 56.1945 27.3562 56.3217 27.1779C56.4404 27.008 56.5676 26.8382 56.7032 26.6768C56.9406 26.3796 57.195 26.0994 57.4663 25.8277C58.0853 25.2078 58.789 24.6643 59.5436 24.2058C59.7216 24.0954 59.9081 23.9935 60.0947 23.8916C61.0273 23.4075 62.0278 23.0424 63.0876 22.8386H63.113C63.1724 22.8301 63.2318 22.8216 63.2996 22.8131C63.3335 22.7961 63.3589 22.7961 63.3928 22.7876C63.4352 22.7792 63.4776 22.7706 63.52 22.7706C63.7574 22.7367 64.0033 22.7027 64.2577 22.6857C64.5036 22.6602 64.7579 22.6432 65.0123 22.6432H65.0547C64.902 21.327 64.5035 20.0703 63.9185 18.9494ZM59.6877 21.5478C59.179 21.5478 58.772 21.1317 58.772 20.6307C58.772 20.1212 59.179 19.7051 59.6877 19.7051C60.1964 19.7051 60.6034 20.1212 60.6034 20.6307C60.6034 21.1317 60.1964 21.5478 59.6877 21.5478Z" fill="url(#paint13_linear_1480_8573)"/>
<path d="M63.9303 18.9492C62.667 18.7964 61.3782 18.6945 60.0725 18.6435C59.5638 18.6266 59.0551 18.618 58.5464 18.618C56.6387 18.618 54.7649 18.7369 52.9166 18.9832C51.6872 19.136 50.4663 19.3568 49.2623 19.6201C47.3801 20.0277 45.5572 20.5541 43.7852 21.1995C44.438 18.6775 45.9727 16.5036 48.0499 15.043C48.813 14.4995 49.6439 14.0665 50.5256 13.7353C51.6957 13.3022 52.959 13.0645 54.2816 13.0645C56.0706 13.0645 57.7579 13.4975 59.2501 14.2703C61.251 15.2978 62.8959 16.9452 63.9303 18.9492Z" fill="url(#paint14_linear_1480_8573)"/>
<path d="M73.2948 28.1298C71.3786 25.7182 68.4281 24.1811 65.1215 24.1726C65.113 24.1726 65.113 24.1726 65.1045 24.1726C59.9071 24.1726 55.6 27.96 54.7861 32.9276C54.7776 32.9361 54.7776 32.9361 54.7776 32.9446C54.5911 33.539 54.4554 34.1674 54.3706 34.8043H54.3622C54.3452 34.7024 54.3282 34.592 54.3197 34.4901C54.2943 34.1674 54.2773 33.8532 54.2773 33.5221C54.2773 33.3013 54.2858 33.0805 54.2943 32.8597V32.8173C54.3028 32.7578 54.3113 32.7069 54.3113 32.6474C54.3198 32.6305 54.3197 32.622 54.3197 32.605V32.5795C54.3282 32.5455 54.3282 32.5116 54.3367 32.4776V32.4521C54.3367 32.4436 54.3367 32.4351 54.3452 32.4266C54.3452 32.4012 54.3452 32.3842 54.3537 32.3587C54.3706 32.1464 54.4045 31.9341 54.4384 31.7303C54.4469 31.7048 54.4469 31.6878 54.4554 31.6624C54.4554 31.6539 54.4554 31.6539 54.4554 31.6454C54.4554 31.6454 54.4554 31.6369 54.4639 31.6284C54.4639 31.6284 54.4639 31.6199 54.4639 31.6114C54.4724 31.6029 54.4723 31.5945 54.4723 31.5775C54.4808 31.552 54.4808 31.518 54.4893 31.4926C54.5232 31.3227 54.5656 31.1614 54.608 31C54.6165 30.9576 54.6334 30.9236 54.6419 30.8811C54.6504 30.8472 54.6589 30.8047 54.6759 30.7622C54.6759 30.7538 54.6843 30.7453 54.6843 30.7368C54.7352 30.5839 54.7776 30.4311 54.837 30.2782C54.8709 30.1848 54.8963 30.0999 54.9302 30.0065C54.9641 29.9216 54.998 29.8366 55.032 29.7602C55.1083 29.5904 55.1761 29.429 55.2524 29.2762C55.2948 29.1743 55.3457 29.0809 55.405 28.979C55.4474 28.8856 55.4983 28.7922 55.5576 28.6988C55.6085 28.6053 55.6679 28.5035 55.7272 28.4101C55.7781 28.3251 55.8374 28.2317 55.8968 28.1383C55.9561 28.0534 56.0239 27.96 56.0833 27.8751C56.397 27.425 56.7446 27.0089 57.1261 26.6183C57.2024 26.5333 57.2788 26.457 57.3551 26.3805C57.4314 26.3041 57.5162 26.2277 57.5925 26.1512C57.8299 25.9304 58.0842 25.7182 58.3471 25.5144C58.4318 25.4464 58.5166 25.3785 58.6099 25.3106C58.6947 25.2426 58.7879 25.1832 58.8812 25.1153C59.0593 24.9964 59.2373 24.869 59.4239 24.7586C59.7036 24.5802 60.0004 24.4104 60.2972 24.2576C61.0348 23.867 61.925 23.5613 62.7729 23.315C63.6292 23.0603 64.4432 22.8564 65.0113 22.6611C65.0282 22.6611 65.0452 22.6526 65.0536 22.6441C65.0621 22.6951 65.0621 22.7376 65.0706 22.7885C65.079 22.8904 65.0875 23.0008 65.096 23.1112C65.096 23.0178 65.0875 22.9329 65.0791 22.8395C65.0875 22.8395 65.0875 22.8395 65.096 22.8395L65.0536 22.6441C65.0536 22.6441 71.6076 21.7525 73.2948 28.1298Z" fill="#151515"/>
<path d="M54.3722 34.8027H54.3633V34.8117H54.3722V34.8027Z" fill="url(#paint15_linear_1480_8573)"/>
<path d="M54.4064 31.892C54.4149 31.841 54.4319 31.79 54.4404 31.7305C54.4064 31.9345 54.3724 32.1471 54.3555 32.3596C54.3555 32.2916 54.3554 32.2151 54.3724 32.1471C54.3809 32.062 54.3979 31.977 54.4064 31.892Z" fill="url(#paint16_linear_1480_8573)"/>
<path d="M65.0827 22.8381C65.0912 22.9316 65.0997 23.0166 65.0997 23.1101C65.0912 22.9996 65.0827 22.8891 65.0742 22.7871C65.0742 22.8041 65.0827 22.8211 65.0827 22.8381Z" fill="url(#paint17_linear_1480_8573)"/>
<path d="M54.3628 34.8028H54.3543C54.3458 34.7008 54.3288 34.5903 54.3203 34.4883C54.3288 34.5903 54.3458 34.7008 54.3628 34.8028Z" fill="url(#paint18_linear_1480_8573)"/>
<path d="M65.0566 22.6426C65.0481 22.6511 65.0312 22.6596 65.0142 22.6596C64.4462 22.8549 63.6322 23.0587 62.7759 23.3135C61.928 23.5597 61.0378 23.8654 60.3001 24.256C60.0034 24.4089 59.7066 24.5787 59.4268 24.757C59.2403 24.8674 59.0622 24.9948 58.8842 25.1137C58.7909 25.1816 58.6976 25.2411 58.6129 25.309C58.5196 25.3769 58.4348 25.4449 58.35 25.5128C58.0872 25.7166 57.8329 25.9289 57.5955 26.1497C57.5192 26.2261 57.4343 26.3025 57.358 26.379C57.2817 26.4554 57.2054 26.5318 57.1291 26.6167C56.7476 27.0073 56.4 27.4235 56.0863 27.8735C56.0269 27.9584 55.9591 28.0518 55.8997 28.1368C55.8404 28.2302 55.781 28.3236 55.7302 28.4085C55.6708 28.5019 55.6115 28.6038 55.5606 28.6972C55.5012 28.7906 55.4504 28.884 55.408 28.9774C55.3486 29.0793 55.2978 29.1727 55.2554 29.2746C55.1791 29.4275 55.1112 29.5888 55.0349 29.7587C55.001 29.8351 54.9671 29.92 54.9332 30.005C54.8993 30.0984 54.8738 30.1832 54.8399 30.2766C54.7806 30.4295 54.7297 30.5824 54.6873 30.7352C54.6873 30.7437 54.6788 30.7522 54.6788 30.7607C54.6619 30.8031 54.6534 30.8456 54.6449 30.8796C54.6364 30.922 54.6195 30.956 54.611 30.9985C54.5601 31.1598 54.5177 31.3212 54.4923 31.491C54.4838 31.5165 54.4838 31.5504 54.4753 31.5759C54.4753 31.5929 54.4753 31.6014 54.4669 31.6099C54.4669 31.6184 54.4669 31.6269 54.4669 31.6269C54.4584 31.6354 54.4584 31.6439 54.4584 31.6439C54.4584 31.6524 54.4584 31.6523 54.4584 31.6608C54.4499 31.6863 54.4499 31.7033 54.4414 31.7288C54.4753 31.491 54.5177 31.2617 54.5771 31.0324C54.6195 30.8541 54.6619 30.6758 54.7127 30.5059C54.9501 29.6738 55.2893 28.884 55.7047 28.1453C55.781 28.0009 55.8658 27.865 55.9506 27.7291C56.0693 27.5423 56.1965 27.3555 56.3237 27.1772C56.4424 27.0074 56.578 26.8375 56.7052 26.6762C56.9426 26.3789 57.2054 26.0987 57.4683 25.827C58.0872 25.2071 58.7909 24.6636 59.5455 24.2051C59.7236 24.0947 59.9101 23.9928 60.0966 23.8909C61.0293 23.4069 62.0298 23.0417 63.0896 22.8379H63.115C63.1743 22.8294 63.2337 22.8209 63.3015 22.8124C63.3355 22.7954 63.3609 22.7955 63.3948 22.787C63.4372 22.7785 63.4796 22.77 63.522 22.77C63.7594 22.736 64.0053 22.702 64.2596 22.685C64.5055 22.6596 64.7599 22.6426 65.0142 22.6426H65.0566Z" fill="url(#paint19_linear_1480_8573)"/>
<path d="M54.441 31.7285C54.4071 31.9326 54.3731 32.1451 54.3562 32.3576C54.3477 32.3831 54.3477 32.4002 54.3477 32.4257C54.3477 32.3322 54.3561 32.2386 54.3731 32.1451C54.3816 32.0601 54.3986 31.9751 54.4071 31.8901C54.4156 31.839 54.4325 31.788 54.441 31.7285Z" fill="url(#paint20_linear_1480_8573)"/>
<path d="M65.084 22.8382C65.0925 22.9317 65.101 23.0166 65.101 23.1102C65.0925 22.9996 65.084 22.8892 65.0755 22.7871C65.067 22.7361 65.0671 22.6936 65.0586 22.6426L65.101 22.8382C65.0925 22.8382 65.0925 22.8382 65.084 22.8382Z" fill="#151515"/>
<path d="M65.101 22.8382C65.0925 22.8382 65.0925 22.8382 65.084 22.8382C65.084 22.8212 65.0755 22.8042 65.0755 22.7871C65.067 22.7361 65.0671 22.6936 65.0586 22.6426L65.101 22.8382Z" fill="#151515"/>
<defs>
<linearGradient id="paint0_linear_1480_8573" x1="22.1291" y1="58.469" x2="33.4658" y2="58.469" gradientUnits="userSpaceOnUse">
<stop stop-color="#232323"/>
<stop offset="1" stop-color="#0D0D0D"/>
</linearGradient>
<linearGradient id="paint1_linear_1480_8573" x1="15.1221" y1="72.2605" x2="28.7676" y2="72.2605" gradientUnits="userSpaceOnUse">
<stop stop-color="#232323"/>
<stop offset="1" stop-color="#0D0D0D"/>
</linearGradient>
<linearGradient id="paint2_linear_1480_8573" x1="28.6281" y1="35.0442" x2="42.8199" y2="20.3708" gradientUnits="userSpaceOnUse">
<stop stop-color="#232323"/>
<stop offset="1" stop-color="#0D0D0D"/>
</linearGradient>
<linearGradient id="paint3_linear_1480_8573" x1="14.2055" y1="40.9868" x2="44.3972" y2="9.77076" gradientUnits="userSpaceOnUse">
<stop stop-color="#232323"/>
<stop offset="1" stop-color="#0D0D0D"/>
</linearGradient>
<linearGradient id="paint4_linear_1480_8573" x1="26.3918" y1="27.0939" x2="43.7036" y2="27.0939" gradientUnits="userSpaceOnUse">
<stop stop-color="#232323"/>
<stop offset="1" stop-color="#0D0D0D"/>
</linearGradient>
<linearGradient id="paint5_linear_1480_8573" x1="5.9369" y1="24.9308" x2="54.375" y2="24.9308" gradientUnits="userSpaceOnUse">
<stop stop-color="#232323"/>
<stop offset="1" stop-color="#0D0D0D"/>
</linearGradient>
<linearGradient id="paint6_linear_1480_8573" x1="8.58907" y1="47.3624" x2="30.7777" y2="24.4211" gradientUnits="userSpaceOnUse">
<stop stop-color="#232323"/>
<stop offset="1" stop-color="#0D0D0D"/>
</linearGradient>
<linearGradient id="paint7_linear_1480_8573" x1="20.0571" y1="56.1198" x2="24.9999" y2="51.0092" gradientUnits="userSpaceOnUse">
<stop stop-color="#232323"/>
<stop offset="1" stop-color="#0D0D0D"/>
</linearGradient>
<linearGradient id="paint8_linear_1480_8573" x1="33.6536" y1="54.2689" x2="34.2171" y2="53.6863" gradientUnits="userSpaceOnUse">
<stop stop-color="#232323"/>
<stop offset="1" stop-color="#0D0D0D"/>
</linearGradient>
<linearGradient id="paint9_linear_1480_8573" x1="26.4002" y1="37.6669" x2="43.0323" y2="20.4707" gradientUnits="userSpaceOnUse">
<stop stop-color="#232323"/>
<stop offset="1" stop-color="#0D0D0D"/>
</linearGradient>
<linearGradient id="paint10_linear_1480_8573" x1="26.3918" y1="27.0939" x2="43.7036" y2="27.0939" gradientUnits="userSpaceOnUse">
<stop stop-color="#232323"/>
<stop offset="1" stop-color="#0D0D0D"/>
</linearGradient>
<linearGradient id="paint11_linear_1480_8573" x1="11.7869" y1="15.4518" x2="41.5721" y2="15.4518" gradientUnits="userSpaceOnUse">
<stop stop-color="#232323"/>
<stop offset="1" stop-color="#0D0D0D"/>
</linearGradient>
<linearGradient id="paint12_linear_1480_8573" x1="26.3918" y1="27.0939" x2="43.7036" y2="27.0939" gradientUnits="userSpaceOnUse">
<stop stop-color="#232323"/>
<stop offset="1" stop-color="#0D0D0D"/>
</linearGradient>
<linearGradient id="paint13_linear_1480_8573" x1="43.4292" y1="26.468" x2="65.0581" y2="26.468" gradientUnits="userSpaceOnUse">
<stop stop-color="#232323"/>
<stop offset="1" stop-color="#0D0D0D"/>
</linearGradient>
<linearGradient id="paint14_linear_1480_8573" x1="43.7848" y1="17.1324" x2="63.9269" y2="17.1324" gradientUnits="userSpaceOnUse">
<stop stop-color="#181818"/>
<stop offset="1" stop-color="#121212"/>
</linearGradient>
<linearGradient id="paint15_linear_1480_8573" x1="54.3668" y1="34.8108" x2="54.3757" y2="34.8108" gradientUnits="userSpaceOnUse">
<stop stop-color="#232323"/>
<stop offset="1" stop-color="#0D0D0D"/>
</linearGradient>
<linearGradient id="paint16_linear_1480_8573" x1="54.3588" y1="32.0484" x2="54.4437" y2="32.0484" gradientUnits="userSpaceOnUse">
<stop stop-color="#232323"/>
<stop offset="1" stop-color="#0D0D0D"/>
</linearGradient>
<linearGradient id="paint17_linear_1480_8573" x1="65.0775" y1="22.9521" x2="65.103" y2="22.9521" gradientUnits="userSpaceOnUse">
<stop stop-color="#232323"/>
<stop offset="1" stop-color="#0D0D0D"/>
</linearGradient>
<linearGradient id="paint18_linear_1480_8573" x1="54.3235" y1="34.649" x2="54.3661" y2="34.649" gradientUnits="userSpaceOnUse">
<stop stop-color="#232323"/>
<stop offset="1" stop-color="#0D0D0D"/>
</linearGradient>
<linearGradient id="paint19_linear_1480_8573" x1="54.4448" y1="27.1891" x2="65.06" y2="27.1891" gradientUnits="userSpaceOnUse">
<stop stop-color="#181818"/>
<stop offset="1" stop-color="#121212"/>
</linearGradient>
<linearGradient id="paint20_linear_1480_8573" x1="54.351" y1="32.0806" x2="54.4444" y2="32.0806" gradientUnits="userSpaceOnUse">
<stop stop-color="#181818"/>
<stop offset="1" stop-color="#121212"/>
</linearGradient>
</defs>
</svg>
