<svg width="71" height="71" viewBox="0 0 71 71" fill="none" xmlns="http://www.w3.org/2000/svg">
<path d="M52.4668 64.4258C52.2125 64.4258 51.9581 64.2899 51.8139 64.0521C51.602 63.6955 51.7292 63.2369 52.0853 63.0246C62.0306 57.2417 68.2115 46.5082 68.2115 34.9934C68.2115 34.5773 68.5506 34.2461 68.9576 34.2461C69.3731 34.2461 69.7037 34.5858 69.7037 34.9934C69.7037 47.0347 63.2346 58.2692 52.8314 64.3154C52.7212 64.3918 52.594 64.4258 52.4668 64.4258Z" fill="#272827"/>
<path d="M68.964 36.3102C68.2433 36.3102 67.6498 35.7243 67.6498 34.994C67.6498 17.45 53.3973 3.17541 35.8806 3.17541C35.1599 3.17541 34.5664 2.58948 34.5664 1.85919C34.5664 1.1289 35.1514 0.542969 35.8806 0.542969C54.8472 0.542969 70.2697 15.9979 70.2697 34.9855C70.2782 35.7243 69.6932 36.3102 68.964 36.3102Z" fill="#272827"/>
<path d="M2.81517 36.8796C1.78078 36.8796 0.941406 36.039 0.941406 35.003C0.941406 15.7012 16.6183 0 35.8901 0C36.9245 0 37.7639 0.840682 37.7639 1.87667C37.7639 2.91267 36.9245 3.75335 35.8901 3.75335C18.6871 3.75335 4.68893 17.7732 4.68893 35.003C4.68893 36.039 3.84955 36.8796 2.81517 36.8796Z" fill="#272827"/>
<path d="M35.8899 70.9484C16.1008 70.9484 0 54.8226 0 35.0029C0 33.4489 1.25484 32.1836 2.8149 32.1836C4.37496 32.1836 5.62979 33.4404 5.62979 35.0029C5.62979 51.7146 19.204 65.3184 35.8983 65.3184C37.4499 65.3184 38.7132 66.5752 38.7132 68.1376C38.7047 69.6831 37.4414 70.9484 35.8899 70.9484Z" fill="#272827"/>
</svg>
