<svg width="86" height="90" viewBox="0 0 86 90" fill="none" xmlns="http://www.w3.org/2000/svg">
<path d="M37.5093 2.55601C36.5088 1.58795 35.4659 0.738782 34.3552 0V11.4978C32.4815 9.75701 30.4042 8.42381 28.1489 7.48123C27.0552 7.03117 25.9445 6.683 24.7914 6.44523C24.6388 6.40277 24.4862 6.36881 24.3335 6.34333C23.1041 6.10556 21.8324 5.97819 20.5267 5.9697H20.3825C17.6015 5.9697 14.9817 6.47071 12.5229 7.46424C10.0726 8.46627 7.86813 9.91836 5.93501 11.829C3.99341 13.7481 2.52662 15.9305 1.50919 18.3761C0.500239 20.8302 0 23.4287 0 26.197C0 28.9568 0.508717 31.5383 1.50919 33.9415C2.52662 36.3532 3.99341 38.5355 5.93501 40.5056C7.87661 42.4163 10.081 43.8938 12.5483 44.9128C15.0156 45.9403 17.6355 46.4498 20.3825 46.4498C20.4673 46.4498 20.5691 46.4498 20.6538 46.4413C22.2309 46.4244 23.774 46.2206 25.2831 45.8384C25.3764 45.813 25.4781 45.7875 25.5714 45.762C26.4362 45.5327 27.2756 45.2355 28.1065 44.8958C30.4636 43.9023 32.6002 42.4927 34.5163 40.65C34.6096 40.5736 34.7028 40.4717 34.7961 40.3867C36.7377 38.5016 38.2045 36.3532 39.2135 33.933C40.2309 31.5129 40.7311 28.9399 40.7311 26.2055V6.67451C39.8748 5.17147 38.798 3.8043 37.5093 2.55601ZM29.9294 36.2513C27.8437 38.4336 25.4018 39.7499 22.6039 40.1914C21.8917 40.3103 21.1456 40.3697 20.3825 40.3697C16.618 40.3697 13.4131 39.0026 10.7593 36.2513C8.11401 33.4999 6.79135 30.1542 6.79135 26.1885C6.79135 22.2229 8.11401 18.8602 10.7424 16.1173C13.3707 13.366 16.5926 11.9988 20.3825 11.9988C21.6543 11.9988 22.8583 12.1602 24.0029 12.4829C26.2158 13.0858 28.1913 14.3001 29.9209 16.1173C32.5408 18.8687 33.855 22.2229 33.855 26.1885C33.872 30.1542 32.5578 33.5084 29.9294 36.2513Z" fill="#272827"/>
<path d="M1.5 69.4799C1.5 66.7201 2.00024 64.1131 3.01767 61.6675C4.02662 59.2219 5.50189 57.0395 7.44349 55.1288C9.38509 53.2182 11.581 51.7576 14.0398 50.7641C16.4986 49.7705 19.1185 49.2695 21.8995 49.2695C24.6296 49.2695 27.2155 49.779 29.6574 50.7896C32.0992 51.8001 34.3206 53.2776 36.3131 55.2222C38.2547 57.1074 39.7215 59.2728 40.7389 61.7184C41.7478 64.164 42.2566 66.754 42.2566 69.4884C42.2566 72.2227 41.7478 74.7957 40.7389 77.2159C39.7299 79.636 38.2547 81.7844 36.3131 83.6781C34.3206 85.6482 32.0907 87.1512 29.615 88.1872C27.1477 89.2232 24.5702 89.7497 21.8995 89.7497C19.1439 89.7497 16.5325 89.2402 14.0568 88.2127C11.5895 87.1852 9.38509 85.7161 7.44349 83.8055C5.50189 81.8354 4.0351 79.653 3.01767 77.2413C2.00024 74.8297 1.5 72.2397 1.5 69.4799ZM8.29135 69.4799C8.29135 73.4455 9.61401 76.7998 12.2593 79.5511C14.9046 82.3024 18.118 83.6696 21.8825 83.6696C25.6216 83.6696 28.801 82.2939 31.4209 79.5511C34.0408 76.7998 35.355 73.4455 35.355 69.4799C35.355 65.5142 34.0408 62.16 31.4209 59.4087C28.801 56.6574 25.6216 55.2902 21.8825 55.2902C18.0841 55.2902 14.8707 56.6658 12.2424 59.4087C9.614 62.16 8.29135 65.5142 8.29135 69.4799Z" fill="#272827"/>
<path d="M44.8516 26.1889C44.8516 23.4291 45.3603 20.8221 46.3692 18.3765C47.3782 15.9308 48.8535 13.7485 50.7951 11.8378C52.7366 9.92717 54.9326 8.4666 57.3914 7.47306C59.8502 6.47953 62.4701 5.97852 65.251 5.97852C67.9811 5.97852 70.5671 6.48802 73.0089 7.49854C75.4508 8.50905 77.6722 9.98662 79.6646 11.9312C81.6062 13.8164 83.073 15.9818 84.0905 18.4274C85.0994 20.873 85.6081 23.463 85.6081 26.1974C85.6081 28.9317 85.0994 31.5047 84.0905 33.9248C83.0815 36.345 81.6062 38.4934 79.6646 40.3871C77.6722 42.3571 75.4423 43.8602 72.9666 44.8962C70.4993 45.9322 67.9218 46.4502 65.251 46.4502C62.4955 46.4502 59.8756 45.9407 57.4084 44.9132C54.9411 43.8857 52.7366 42.4166 50.7951 40.5059C48.8535 38.5359 47.3782 36.3535 46.3692 33.9418C45.3518 31.5302 44.8516 28.9487 44.8516 26.1889ZM51.6429 26.1889C51.6429 30.1545 52.9656 33.5088 55.6109 36.2601C58.2562 39.0114 61.4696 40.3786 65.2341 40.3786C68.9731 40.3786 72.1526 39.0029 74.7725 36.2601C77.3924 33.5088 78.7066 30.1545 78.7066 26.1889C78.7066 22.2232 77.3924 18.869 74.7725 16.1177C72.1526 13.3663 68.9731 11.9992 65.2341 11.9992C61.4357 11.9992 58.2223 13.3748 55.5939 16.1177C52.9656 18.869 51.6429 22.2232 51.6429 26.1889Z" fill="#272827"/>
<path d="M81.4216 59.6037C80.8111 57.8204 79.8361 56.3089 78.5049 55.0521C76.0207 52.6999 72.5699 51.5195 68.1441 51.5195C67.6184 51.5195 67.1182 51.5365 66.6179 51.579C64.2694 51.7488 62.1582 52.3178 60.2844 53.2858C58.0207 54.4662 56.0875 56.2494 54.4766 58.6611V53.2009C53.2557 53.9736 52.1111 54.8823 51.0428 55.9437C49.949 57.0222 48.9994 58.194 48.2109 59.4423V83.1088C48.9231 84.1363 49.7286 85.1214 50.6528 86.0555C51.8482 87.2443 53.154 88.2548 54.5614 89.104V71.0081C54.5614 67.9001 54.731 65.7092 55.0786 64.4525C55.4177 63.1957 55.9773 62.0748 56.7743 61.0897C57.495 60.1896 58.3598 59.4338 59.3433 58.8224C59.7672 58.5592 60.2081 58.3214 60.6829 58.1091C62.2515 57.4043 63.9896 57.0646 65.9057 57.0646C69.2293 57.0646 71.6966 57.9902 73.2906 59.8329C73.6891 60.283 74.0282 60.7925 74.325 61.3615C75.2322 63.1193 75.6815 65.429 75.6815 68.2992V88.9511C77.0381 88.1105 78.3184 87.1084 79.5139 85.9281C80.5567 84.9091 81.4724 83.8136 82.2355 82.6503V64.8516C82.2355 62.907 81.9727 61.1492 81.4216 59.6037Z" fill="#272827"/>
</svg>
