<svg width="103" height="59" viewBox="0 0 103 59" fill="none" xmlns="http://www.w3.org/2000/svg">
<path d="M102.627 17.6921L95.5987 29.9711L82.3381 53.1197C80.5916 56.1682 77.3527 58.0449 73.8426 58.0449H62.3456L53.5703 40.6623H71.5025L82.8978 21.2416L84.9835 17.6836" fill="#272827"/>
<path d="M17.6439 40.705L19.7297 37.147L31.1249 17.7264H49.0571L39.6543 0.34375H28.7848C25.2746 0.34375 22.0358 2.22042 20.2892 5.26895L7.02875 28.4175L0 40.6965" fill="#272827"/>
<path d="M84.9912 17.693L66.7113 17.7354L62.9892 24.2401L55.6722 37.1476L46.244 53.2139C44.489 56.2115 41.2756 58.0542 37.7994 58.0542H27.0909L17.6797 40.7141L35.9595 40.6631L42.9713 28.435L47.6091 20.3509L50.4833 15.4257L56.4268 5.22711C58.1819 2.21254 61.4037 0.361328 64.8884 0.361328H75.5884L84.9912 17.693Z" fill="#272827"/>
</svg>
