<svg width="131" height="67" viewBox="0 0 131 67" fill="none" xmlns="http://www.w3.org/2000/svg">
<path d="M109.638 20.4663C109.774 11.465 103.118 2.88839 93.9955 0.816407C83.3803 -1.58676 72.3666 5.42742 70.1452 16.1015C69.857 17.5027 69.7128 18.9548 69.7043 20.3814C69.6619 28.4315 69.6789 36.4817 69.6874 44.5319C69.6874 46.9945 67.7288 49.5505 65.1598 49.5335H65.1259C62.5569 49.559 60.5898 46.9945 60.5898 44.5319C60.5983 36.4817 60.6153 28.4315 60.5729 20.3814C60.5644 18.9548 60.4203 17.4942 60.132 16.1015C57.9022 5.42742 46.8885 -1.58676 36.2818 0.816407C27.1588 2.8799 20.5031 11.4565 20.6388 20.4663C20.8422 34.7324 20.6896 48.9986 20.6896 63.2732V66.0924C22.6397 65.6509 24.3354 65.4386 25.904 64.8696C33.3143 62.2712 36.4513 57.779 36.0867 50.5186C35.8239 43.5808 36.0274 36.6176 36.0274 29.6628C36.0274 26.886 35.9765 24.1007 36.0444 21.3239C36.1037 19.0057 37.6892 16.6874 39.3595 16.2289C41.352 15.6939 43.4462 16.3733 44.3279 18.2075C44.896 19.3793 45.1927 20.7975 45.2097 22.1052C45.2945 27.8881 45.2436 33.671 45.2521 39.4453C45.2521 42.4429 44.7773 45.5424 45.3454 48.4296C47.3294 58.5857 55.5451 65.1328 65.1344 65.1583C74.7152 65.1328 82.9309 58.5857 84.9149 48.4296C85.483 45.5424 85.0082 42.4429 85.0082 39.4453C85.0166 33.671 84.9573 27.8881 85.0506 22.1052C85.0676 20.789 85.3558 19.3793 85.9324 18.2075C86.8226 16.3733 88.9168 15.6939 90.9008 16.2289C92.5796 16.6874 94.1651 19.0057 94.2159 21.3239C94.2838 24.1007 94.2329 26.886 94.2329 29.6628C94.2329 36.6176 94.4363 43.5723 94.1735 50.5186C93.8089 57.779 96.9375 62.2796 104.356 64.8696C105.925 65.4386 107.621 65.6424 109.571 66.0924V63.2732C109.579 48.9986 109.435 34.7324 109.638 20.4663Z" fill="#272827"/>
<path d="M7.98684 42.766C12.3978 42.766 15.9737 39.1846 15.9737 34.7668C15.9737 30.3489 12.3978 26.7676 7.98684 26.7676C3.57584 26.7676 0 30.3489 0 34.7668C0 39.1846 3.57584 42.766 7.98684 42.766Z" fill="#272827"/>
<path d="M122.272 42.766C126.683 42.766 130.259 39.1846 130.259 34.7668C130.259 30.3489 126.683 26.7676 122.272 26.7676C117.861 26.7676 114.285 30.3489 114.285 34.7668C114.285 39.1846 117.861 42.766 122.272 42.766Z" fill="#272827"/>
</svg>
