<svg width="62" height="71" viewBox="0 0 62 71" fill="none" xmlns="http://www.w3.org/2000/svg">
<path d="M61.156 1.40522V15.9855C61.156 16.5715 60.6812 17.047 60.0962 17.047H17.7626C17.1776 17.047 16.7028 17.5225 16.7028 18.1085V31.3641C16.7028 31.7122 16.5333 32.0689 16.0924 32.3236C9.95387 35.8817 3.62885 42.4458 0.178069 50.029C0.135676 50.1139 0 50.0884 0 49.9865V1.40522C0 0.819288 0.474801 0.34375 1.05982 0.34375H60.0878C60.6813 0.352242 61.156 0.827779 61.156 1.40522Z" fill="#272827"/>
<path d="M47.8443 33.6914V47.4056C47.8443 47.9236 47.166 48.3397 46.776 48.2039C44.6394 47.567 41.6804 47.3377 39.3403 47.3377C34.711 47.3377 30.5564 49.1549 26.9191 51.4732C23.6888 53.5197 21.3741 56.4239 19.4665 59.7442C17.7114 62.7842 16.7279 66.1045 16.499 69.8069C16.4566 70.3758 16.4481 70.7919 15.4476 70.7919H1.07641C0.474429 70.7919 -0.00885073 70.2909 0.016585 69.688C0.0335422 69.3228 0.0504797 68.9662 0.0759155 68.601C0.499845 62.3511 2.38209 56.5088 5.37503 51.3968C8.68168 45.7582 13.3449 41.0114 18.9238 37.6147C22.9935 35.1436 27.5465 33.3858 32.4048 32.5196C34.6601 32.112 36.9832 31.9082 39.3487 31.9082C41.7227 31.9082 44.0543 32.1205 46.3181 32.5281C46.3181 32.5281 46.3266 32.5281 46.3351 32.5281C46.4453 32.5451 46.5555 32.5621 46.6573 32.5875C46.6657 32.5875 46.6742 32.5875 46.6827 32.596C46.7844 32.613 46.8862 32.63 46.9879 32.6555C47.4882 32.7489 47.8443 33.1819 47.8443 33.6914Z" fill="#272827"/>
</svg>
