<svg width="70" height="94" viewBox="0 0 70 94" fill="none" xmlns="http://www.w3.org/2000/svg">
<path d="M69.6605 76.4065C69.3299 74.4025 68.5414 72.4749 67.3628 70.8105C64.8447 67.21 60.58 64.8747 55.993 64.5606C49.9732 64.1529 44.8607 66.9807 41.0623 70.8954C41.0538 70.9039 38.8239 73.1797 36.3566 75.7527C35.9073 75.3791 31.456 71.7021 29.9977 70.5303C25.7838 67.1336 21.5106 64.3143 15.6519 64.5436C13.3373 64.637 11.0565 65.1635 8.99625 66.1061C6.93595 67.0401 5.11305 68.3819 3.67169 69.9953C0.772018 73.2137 -0.525207 77.5784 0.195472 81.5865C0.526137 83.5906 1.31464 85.5182 2.49317 87.1826C5.0113 90.7831 9.27604 93.1183 13.863 93.4325C19.8827 93.8401 24.9953 91.0124 28.7937 87.0977C28.8022 87.0892 31.0321 84.8134 33.4994 82.2404C33.9487 82.614 38.4 86.291 39.8583 87.4628C44.0721 90.8595 48.3454 93.6788 54.2041 93.4495C56.5187 93.3561 58.7995 92.8296 60.8598 91.887C62.92 90.9529 64.7429 89.6112 66.1843 87.9978C69.084 84.7879 70.3812 80.4231 69.6605 76.4065ZM27.5643 86.0362C24.9869 88.7111 22.3415 91.0888 18.1022 91.5813C11.2176 92.3795 4.62129 87.777 4.31606 81.162C4.1804 78.1729 5.35045 75.2347 7.53793 73.2221C10.4376 70.4963 14.7702 69.5792 18.5516 71.0568C21.9939 72.4069 25.1988 75.1922 27.912 77.4765C29.1414 78.5125 30.888 79.9816 32.27 81.1365C29.7094 83.8029 27.5983 86.0022 27.5643 86.0362ZM62.3181 84.7709C59.4184 87.4968 55.0858 88.4139 51.3044 86.9363C47.8621 85.5861 44.6572 82.8009 41.944 80.5166C40.7146 79.4806 38.968 78.0115 37.586 76.8566C40.155 74.1902 42.2662 71.9908 42.3001 71.9569C44.8776 69.282 47.5229 66.9043 51.7622 66.4118C58.6468 65.6136 65.2432 70.2161 65.5484 76.8311C65.6756 79.8202 64.4971 82.7499 62.3181 84.7709Z" fill="#272827"/>
<path d="M34.9153 66.3176C30.7607 62.5218 21.4852 54.5821 17.5765 50.7523C13.4136 46.948 11.1583 40.282 13.8121 34.9237C18.3396 25.6252 29.6585 25.6422 36.3142 32.6648L33.4993 32.6818C37.5267 28.368 44.123 26.0073 49.7273 28.6398C58.9351 32.9366 59.359 44.2051 52.2964 50.7183C48.4386 54.5311 39.0358 62.5813 34.9153 66.3176ZM34.9153 66.3176L45.3863 54.4971C48.5997 50.6674 52.822 47.3725 53.7208 42.804C54.204 40.5961 53.9242 38.3119 52.9068 36.3842C49.3034 29.7097 41.0961 30.1683 36.3397 35.4417L34.9407 36.8513L33.5248 35.4587C28.7174 30.2787 20.5271 29.7437 16.9491 36.4437C15.9402 38.3713 15.6689 40.6556 16.1521 42.8549C17.0509 47.415 21.2732 50.6929 24.4781 54.5226L34.9153 66.3176Z" fill="#272827"/>
<path d="M34.9327 0.346249C42.8263 0.201889 48.9478 8.47287 46.2855 16.0815C42.6313 26.883 27.2341 26.8915 23.5799 16.0815C20.9006 8.47287 27.0307 0.193397 34.9327 0.346249ZM34.9327 0.346249C29.1249 0.218873 24.1734 5.63665 24.8432 11.3771C26.3778 23.5712 43.5045 23.5712 45.0307 11.3771C45.692 5.63665 40.7405 0.210381 34.9327 0.346249Z" fill="#272827"/>
</svg>
