<svg width="96" height="100" viewBox="0 0 96 100" fill="none" xmlns="http://www.w3.org/2000/svg">
<path d="M81.3025 62.9884C81.0905 62.2666 80.8955 61.5363 80.7344 60.7891C80.9463 61.5194 81.1414 62.2497 81.3025 62.9884Z" fill="#272827"/>
<path d="M81.3025 62.9884C81.0905 62.2666 80.8955 61.5363 80.7344 60.7891C80.9463 61.5194 81.1414 62.2497 81.3025 62.9884Z" fill="#272827"/>
<path d="M81.3025 62.9884C81.0905 62.2666 80.8955 61.5363 80.7344 60.7891C80.9463 61.5194 81.1414 62.2497 81.3025 62.9884Z" fill="#272827"/>
<path d="M81.3025 62.9884C81.0905 62.2666 80.8955 61.5363 80.7344 60.7891C80.9463 61.5194 81.1414 62.2497 81.3025 62.9884Z" fill="#272827"/>
<path d="M80.1311 53.9182C80.1311 54.6909 80.1226 56.2534 80.0633 56.2109C80.1735 57.7734 80.4024 59.3019 80.7331 60.788C80.8942 61.5268 81.0892 62.2656 81.3012 62.9874C81.7929 65.1952 82.0472 67.5049 82.0472 69.8657C82.0472 82.4759 74.6709 93.3538 64.0133 98.4234C66.7434 93.7444 68.3035 88.3097 68.3035 82.5014C68.3035 76.8798 66.8367 71.598 64.2677 67.0294C64.2761 66.8766 64.2762 66.7152 64.2762 66.5624C64.2762 63.344 63.0722 60.4058 61.0967 58.181C62.0039 56.4317 62.5211 54.4531 62.5211 52.3472C62.5211 51.8632 62.4957 51.3876 62.4363 50.9121C62.2243 49.0694 61.6223 47.3456 60.7066 45.8255C60.0708 42.0552 58.2648 37.0026 58.2648 37.0026L60.2827 27.7126C60.2827 27.7126 59.1211 25.7935 53.4914 36.0855C52.4739 35.3722 51.2361 34.9561 49.8965 34.9561C48.5314 34.9561 47.2596 35.3892 46.2252 36.1365C40.57 25.785 39.4 27.7126 39.4 27.7126L41.3076 36.6715C41.3076 36.6715 39.2897 42.828 38.6538 46.5898C37.9756 47.9145 37.5262 49.3666 37.3566 50.9121C37.3058 51.3791 37.2718 51.8547 37.2718 52.3387C37.2718 54.1899 37.6703 55.9477 38.3825 57.5357C36.0424 59.8284 34.5926 63.0213 34.5926 66.5624C34.5926 67.0379 34.6181 67.4965 34.6689 67.955C32.4052 72.3113 31.1333 77.2535 31.1333 82.5014C31.1333 87.8427 32.456 92.8698 34.7876 97.277C35.1607 97.9818 35.5592 98.6697 35.9831 99.3405C23.1041 95.4768 12.3872 86.6114 6.08762 74.9862C2.2129 67.8277 0 59.6246 0 50.9036C0 22.9827 22.6039 0.34375 50.4815 0.34375C69.7533 0.34375 86.507 11.1623 95.011 27.0673C86.0831 32.6464 80.1311 42.5902 80.1311 53.9182Z" fill="#272827"/>
<path d="M53.5032 36.0859C53.4946 36.1032 53.486 36.1205 53.4688 36.1377L53.5032 36.0859Z" fill="#272827"/>
<path d="M50.2695 72.2606C50.1 71.9804 50.49 70.248 50.49 70.248C50.49 70.248 50.2272 70.248 49.0826 70.248C49.2521 70.3754 49.3708 72.1162 49.3793 72.2606C46.6068 72.4389 44.3176 74.4005 43.6562 77.0244H55.9163C55.2635 74.426 53.0081 72.4644 50.2695 72.2606Z" fill="#272827"/>
<path d="M43.9796 77.7207C43.9796 77.7207 43.6998 82.2893 48.541 84.7519C49.7874 85.3803 49.7959 85.7794 49.7959 85.7879C49.7959 85.7794 49.8043 85.3803 51.0507 84.7519C55.8835 82.2893 55.6122 77.7207 55.6122 77.7207H43.9796Z" fill="#272827"/>
<path d="M43.1992 52.4247C44.4073 52.4247 45.3866 51.4438 45.3866 50.2339C45.3866 49.0239 44.4073 48.043 43.1992 48.043C41.9911 48.043 41.0117 49.0239 41.0117 50.2339C41.0117 51.4438 41.9911 52.4247 43.1992 52.4247Z" fill="#272827"/>
<path d="M56.2148 52.4247C57.4229 52.4247 58.4023 51.4438 58.4023 50.2339C58.4023 49.0239 57.4229 48.043 56.2148 48.043C55.0067 48.043 54.0273 49.0239 54.0273 50.2339C54.0273 51.4438 55.0067 52.4247 56.2148 52.4247Z" fill="#272827"/>
<path d="M52.3316 56.2188H49.7032H47.0664L48.3806 57.552L48.9741 58.1549L49.3471 60.4392H50.1102L50.5256 58.053L51.0174 57.552L52.3316 56.2188Z" fill="#272827"/>
</svg>
