<svg width="26" height="88" viewBox="0 0 26 88" fill="none" xmlns="http://www.w3.org/2000/svg">
<path d="M-9.38486 25.4023C-14.8112 25.4023 -19.22 29.8095 -19.22 35.2442C-19.22 40.6875 -14.8112 45.0947 -9.38486 45.0947C-3.95008 45.0947 0.450306 40.6875 0.450306 35.2442C0.450306 29.8095 -3.95008 25.4023 -9.38486 25.4023ZM-9.38486 42.4113C-13.3359 42.4113 -16.5408 39.2014 -16.5408 35.2442C-16.5408 31.2956 -13.3359 28.0857 -9.38486 28.0857C-5.43384 28.0857 -2.22896 31.2956 -2.22896 35.2442C-2.22896 39.2014 -5.43384 42.4113 -9.38486 42.4113ZM-29.1484 34.2422V35.2442C-29.1484 34.9131 -29.14 34.5734 -29.123 34.2422H-29.1484Z" fill="#272827"/>
<path d="M25.2361 35.0156V72.116C25.2361 80.7011 18.2922 87.6644 9.72033 87.6644V63.9384C4.24316 67.5729 -2.31926 69.6873 -9.38192 69.6873C-13.1888 69.6873 -16.86 69.076 -20.2854 67.9296V51.7612C-17.1653 53.8332 -13.4092 55.0476 -9.38192 55.0476C-0.233528 55.0476 7.46503 48.8146 9.72033 40.3653C10.1612 38.7349 10.3901 37.0196 10.3901 35.2448C10.3901 34.5739 10.3562 33.9116 10.2884 33.2578C9.28791 23.2545 0.86869 15.4505 -9.38192 15.4505C-19.9632 15.4505 -28.6029 23.7809 -29.1201 34.2428H-29.1455V63.4798C-38.1243 57.2214 -44 46.8106 -44 35.0156C-44 15.8667 -28.5011 0.34375 -9.38192 0.34375C9.15227 0.34375 24.2781 14.9241 25.1937 33.2578C25.2192 33.8437 25.2361 34.4296 25.2361 35.0156Z" fill="#272827"/>
<path d="M25.2377 33.2578V35.0156C25.2377 34.4297 25.2207 33.8437 25.1953 33.2578H25.2377Z" fill="#272827"/>
<path d="M-9.38359 25.4023C-14.8099 25.4023 -19.2188 29.8095 -19.2188 35.2527C-19.2188 40.6875 -14.8099 45.0947 -9.38359 45.0947C-3.94881 45.0947 0.44309 40.6875 0.44309 35.2527C0.44309 29.8095 -3.95729 25.4023 -9.38359 25.4023ZM-6.56023 38.2843H-8.05247L-9.12075 36.4926C-9.2225 36.3227 -9.30728 36.1614 -9.38359 36.017H-9.40902C-9.44293 36.1104 -9.52774 36.2633 -9.66339 36.4841L-10.7571 38.2843H-12.2324L-10.1806 35.3971L-12.1391 32.425H-10.6469L-9.58706 34.3017C-9.51924 34.4206 -9.43446 34.5819 -9.33272 34.7942H-9.30728C-9.19706 34.5819 -9.11228 34.4291 -9.05293 34.3357L-7.92527 32.4335H-6.51785L-8.53573 35.3631L-6.56023 38.2843Z" fill="#272827"/>
</svg>
