<svg width="35" height="22" viewBox="0 0 35 22" fill="none" xmlns="http://www.w3.org/2000/svg">
<path d="M11.9558 10.9287C6.8961 10.8901 8.80876 10.8593 3.74905 10.8072C2.74058 10.7967 1.73064 10.7222 0.726225 10.6294C0.560056 10.6125 0.403197 10.5487 0.276178 10.4466C0.149159 10.3445 0.057885 10.2087 0.014291 10.057C-0.0681952 9.81413 0.218571 9.46963 0.561064 9.41897C0.893223 9.36988 1.2237 9.29372 1.55752 9.27481C3.68943 9.15338 5.82117 8.98149 7.95511 8.94524C12.3392 8.87117 9.75231 8.85242 14.1374 8.84774C18.2977 8.84323 22.4581 8.89214 26.6184 8.90116C27.2864 8.90272 27.9548 8.82362 28.6217 8.76759C28.666 8.75733 28.7067 8.73678 28.7403 8.70783C28.7739 8.67888 28.7993 8.64248 28.814 8.60193C28.826 8.50514 28.7955 8.34172 28.7271 8.30702C27.4486 7.65375 26.1859 6.96647 24.8713 6.38344C21.813 5.0271 18.9441 3.36389 16.0772 1.69513C15.6061 1.42088 15.1122 1.14229 14.9222 0.598124C14.8877 0.499074 14.8338 0.329424 14.8777 0.296292C15.035 0.158419 15.2261 0.059294 15.4341 0.0077996C15.6555 -0.0167725 15.8799 0.0169811 16.0821 0.105291C16.7985 0.410247 17.5097 0.728572 18.2067 1.07065C23.1881 3.5155 28.1679 5.96308 33.1463 8.41337C35.0266 9.33275 35.9202 10.2242 33.6629 12.2456C33.0127 12.8283 32.3548 13.4101 31.6477 13.9283C28.3682 16.3337 25.0767 18.7244 21.7732 21.1004C21.319 21.4069 20.84 21.6795 20.3406 21.9158C20.0149 22.0819 19.6888 21.9834 19.4076 21.7841C19.0982 21.5647 18.9061 20.9268 19.0127 20.6463C19.2498 20.0236 19.7223 19.5667 20.2295 19.1529C22.1829 17.5602 24.1466 15.9788 26.1207 14.4089C27.4036 13.383 28.6999 12.3722 29.9808 11.3443C30.0441 11.2936 30.0472 11.1361 30.0216 11.0414C30.0047 11.0004 29.9776 10.9639 29.9424 10.9349C29.9073 10.906 29.8651 10.8855 29.8197 10.8752C29.1502 10.8339 28.4796 10.7814 27.8096 10.7847C22.5248 10.8109 17.24 10.8436 11.9552 10.8828L11.9558 10.9287Z" fill="#A58EFF"/>
</svg>
