<svg width="252" height="6" viewBox="0 0 252 6" fill="none" xmlns="http://www.w3.org/2000/svg">
<path d="M0.813031 2.59206C5.31005 2.64363 9.86235 2.68723 14.4144 2.74803C21.7529 2.84938 29.0376 2.82972 36.2987 2.4658C40.4123 2.26358 44.6881 2.35561 48.9101 2.32662C52.2215 2.3044 55.5051 2.29905 58.8166 2.26823C59.9204 2.25509 61.0244 2.23335 62.0737 2.15938C69.999 1.62248 78.0293 1.55117 86.1366 1.97953C87.2121 2.03486 88.4801 2.144 89.3919 2.03406C93.26 1.58823 97.3422 1.72104 101.344 1.61213C104.601 1.52049 107.912 1.54125 111.224 1.51903C115.391 1.48941 119.585 1.49451 123.752 1.44769C127.946 1.4012 132.199 1.13177 136.336 1.28241C141.879 1.49218 147.235 1.2526 152.699 1.22925C157.997 1.20401 163.324 1.0415 168.515 0.765635C172.159 0.575233 175.415 0.560974 178.551 1.42251C181.012 0.98634 183.689 0.896647 186.447 1.02287C186.806 1.03558 187.192 1.04001 187.551 1.01833C191.251 0.785564 194.925 0.423505 198.84 0.709192C201.824 0.330625 204.58 0.620221 207.306 1.10727C210.457 0.679009 213.631 0.53482 216.994 0.865771C217.655 0.933555 218.429 0.847828 219.174 0.847771C223.147 0.850335 227.178 0.664362 230.866 1.45484C231.664 1.62739 232.879 1.58972 234.092 1.66383C233.766 1.28169 233.52 1.02088 233.275 0.734281C234.906 0.520783 236.199 0.776415 237.411 1.0139C238.457 1.21509 238.145 1.9167 237.013 2.01551C235.963 2.10667 234.86 2.11981 233.783 2.17626C230.911 2.33253 227.903 2.37544 225.196 2.67118C222.129 3.00581 219.482 2.88085 216.783 2.39412C216.15 2.28366 215.489 2.18148 214.47 2.015C212.453 2.24986 210.352 2.60416 208.115 2.7419C204.94 2.93769 201.598 3.17456 198.454 3.04391C192.139 2.77369 186.066 2.97925 179.937 3.29595C178.694 3.3591 177.425 3.39614 176.183 3.4163C171.436 3.49086 166.662 3.55651 161.915 3.62248C155.347 3.71056 148.779 3.79863 142.238 3.89563C139.672 3.93499 137.132 4.00907 134.565 4.07423C131.86 4.14641 129.238 4.27113 126.397 4.11817C123.557 3.9652 120.547 4.15428 117.622 4.21533C111.771 4.33743 105.947 4.51143 100.124 4.59086C90.6028 4.72247 81.0825 4.7939 71.562 4.88252C61.8484 4.96892 52.1621 5.08144 42.4489 5.12486C32.5427 5.16605 22.6367 5.19006 12.7318 5.11087C9.47618 5.08214 6.16847 4.78621 3.02647 4.47499C-0.281156 4.17047 -0.552637 3.78037 0.813031 2.59206Z" fill="#A58EFF"/>
<path d="M251.339 1.54343C249.793 1.65469 248.273 1.80066 246.7 1.85142C246.258 1.86355 245.682 1.61615 245.159 1.48976C245.491 1.37317 245.742 1.18685 246.128 1.15688C247.868 1.05643 249.634 1.05089 251.339 1.54343Z" fill="#A58EFF"/>
</svg>
