<svg width="573" height="441" viewBox="0 0 573 441" fill="none" xmlns="http://www.w3.org/2000/svg">
<path d="M2.26562 179.969C3.38021 177.917 4.10938 176.573 4.45312 175.938C4.79688 175.297 5.07292 174.784 5.28125 174.398C5.49479 174.013 5.65625 173.732 5.76562 173.555C5.88021 173.378 6.02083 173.185 6.1875 172.977C6.22917 172.956 6.26562 172.945 6.29688 172.945C6.40625 172.945 6.54948 173.021 6.72656 173.172C6.90365 173.323 7 173.401 7.01562 173.406C7.16667 173.453 7.27083 173.492 7.32812 173.523C7.38542 173.555 7.4401 173.617 7.49219 173.711L4.57031 178.797C5.57552 177.958 6.43229 177.539 7.14062 177.539C7.74479 177.539 8.1875 177.852 8.46875 178.477C8.61979 178.82 8.69531 179.211 8.69531 179.648C8.69531 180.003 8.63802 180.372 8.52344 180.758C8.40885 181.143 8.20312 181.57 7.90625 182.039C7.60938 182.508 7.21094 182.984 6.71094 183.469C6.13802 184.099 5.48177 184.68 4.74219 185.211C4.0026 185.737 3.29427 186 2.61719 186C2.2474 186 1.92188 185.909 1.64062 185.727C1.16146 185.435 0.921875 184.911 0.921875 184.156C0.921875 183.714 0.994792 183.232 1.14062 182.711C1.28646 182.185 1.46615 181.674 1.67969 181.18C1.89844 180.685 2.09375 180.281 2.26562 179.969ZM3.71875 181.453C3.53125 181.719 3.29688 182.135 3.01562 182.703C2.73958 183.266 2.60156 183.799 2.60156 184.305C2.64323 184.326 2.70573 184.336 2.78906 184.336C3.16927 184.336 3.69792 184.055 4.375 183.492C5.05208 182.924 5.64583 182.25 6.15625 181.469C6.67188 180.688 6.93229 179.974 6.9375 179.328C6.875 179.266 6.78906 179.234 6.67969 179.234C6.35156 179.234 5.89062 179.461 5.29688 179.914C4.70312 180.367 4.17708 180.88 3.71875 181.453ZM7.89844 185.148C7.71615 184.862 7.625 184.49 7.625 184.031C7.625 183.438 7.76823 182.794 8.05469 182.102C8.34115 181.404 8.74479 180.747 9.26562 180.133C9.79167 179.518 10.4271 179.016 11.1719 178.625C11.9167 178.229 12.724 178.031 13.5938 178.031C14.0885 178.062 14.4844 178.247 14.7812 178.586C15.0781 178.924 15.2266 179.326 15.2266 179.789C15.2266 180.154 15.1302 180.5 14.9375 180.828C14.6146 181.339 14.0964 181.771 13.3828 182.125C12.9141 182.396 12.3021 182.651 11.5469 182.891C10.7917 183.125 10.0911 183.26 9.44531 183.297C9.35156 183.635 9.30469 183.854 9.30469 183.953C9.30469 184.214 9.44792 184.411 9.73438 184.547C9.85938 184.599 10.0417 184.625 10.2812 184.625C10.8229 184.625 11.3984 184.469 12.0078 184.156C12.6172 183.844 13.0807 183.401 13.3984 182.828C13.4453 182.865 13.4688 183.031 13.4688 183.328C13.4792 183.359 13.5417 183.427 13.6562 183.531C13.776 183.63 13.8359 183.701 13.8359 183.742C13.7109 184.185 13.4375 184.589 13.0156 184.953C12.599 185.312 12.099 185.602 11.5156 185.82C10.9375 186.034 10.3828 186.141 9.85156 186.141C8.86198 186.141 8.21094 185.81 7.89844 185.148ZM13.6562 179.789C13.5521 179.654 13.3542 179.586 13.0625 179.586C12.8698 179.586 12.6458 179.628 12.3906 179.711C11.849 179.914 11.3828 180.172 10.9922 180.484C10.6016 180.797 10.2422 181.211 9.91406 181.727C10.0859 181.695 10.4323 181.615 10.9531 181.484C11.4792 181.349 11.862 181.245 12.1016 181.172C12.612 180.979 13.0104 180.779 13.2969 180.57C13.5885 180.357 13.7344 180.161 13.7344 179.984C13.7344 179.932 13.7083 179.867 13.6562 179.789ZM22.4844 174.062L22.5469 174.141C22.5781 174.12 22.6328 174.094 22.7109 174.062C22.7891 174.031 22.8776 174.016 22.9766 174.016C23.2005 174.047 23.3802 174.25 23.5156 174.625C23.6562 174.995 23.7266 175.393 23.7266 175.82C23.7266 176.107 23.6901 176.349 23.6172 176.547C23.5495 176.745 23.4479 176.867 23.3125 176.914C23.1667 176.914 23.0104 176.857 22.8438 176.742C22.6771 176.628 22.5286 176.445 22.3984 176.195C22.2734 175.94 22.1953 175.641 22.1641 175.297C22.0547 175.401 21.9323 175.518 21.7969 175.648C21.6615 175.773 21.5026 175.948 21.3203 176.172C21.1432 176.396 20.9844 176.63 20.8438 176.875C20.7031 177.12 20.5547 177.443 20.3984 177.844L22.0156 177.711L22.2891 178.031L22.5781 178.258L22.5469 178.688C22.5312 178.688 21.5964 178.896 19.7422 179.312C19.7578 179.312 19.1354 180.576 17.875 183.102C17.724 183.414 17.5443 183.786 17.3359 184.219C17.1276 184.651 16.9401 185.036 16.7734 185.375C16.612 185.708 16.4922 185.958 16.4141 186.125C16.2839 186.115 16.1797 186.076 16.1016 186.008C16.0234 185.94 15.9479 185.852 15.875 185.742C15.8021 185.628 15.7474 185.555 15.7109 185.523C15.6901 185.503 15.5573 185.445 15.3125 185.352C15.0729 185.253 14.9453 185.164 14.9297 185.086C15.0807 184.779 15.2292 184.474 15.375 184.172C15.526 183.865 15.6771 183.557 15.8281 183.25C15.8281 183.25 15.7943 183.318 15.7266 183.453C15.7161 183.484 15.7083 183.503 15.7031 183.508C15.7031 183.513 15.7005 183.518 15.6953 183.523C15.7214 183.523 15.9844 183.044 16.4844 182.086C16.9896 181.122 17.4089 180.32 17.7422 179.68C17.6276 179.69 17.4167 179.763 17.1094 179.898C16.8021 180.029 16.5599 180.094 16.3828 180.094C16.2266 179.849 16.1484 179.659 16.1484 179.523C16.138 179.435 16.0911 179.372 16.0078 179.336C15.9245 179.294 15.849 179.25 15.7812 179.203C15.7188 179.156 15.6849 179.065 15.6797 178.93C16.3255 178.654 16.8932 178.456 17.3828 178.336C17.8724 178.211 18.224 178.13 18.4375 178.094C18.6354 177.578 18.9453 176.979 19.3672 176.297C19.7943 175.609 20.2448 175.021 20.7188 174.531C21.1927 174.036 21.6042 173.789 21.9531 173.789C22.1667 173.789 22.3438 173.88 22.4844 174.062ZM21.8828 185.805C21.0755 185.393 20.6719 184.68 20.6719 183.664C20.6719 183.174 20.7734 182.651 20.9766 182.094C21.1797 181.536 21.4635 180.992 21.8281 180.461C22.1979 179.924 22.6328 179.432 23.1328 178.984C23.6328 178.536 24.1823 178.167 24.7812 177.875C25.099 177.714 25.4245 177.633 25.7578 177.633C26.112 177.633 26.4349 177.729 26.7266 177.922C27.0182 178.115 27.2552 178.367 27.4375 178.68C27.625 178.987 27.737 179.289 27.7734 179.586C27.7734 180.169 27.6406 180.841 27.375 181.602C27.1146 182.362 26.763 183.089 26.3203 183.781C25.8776 184.474 25.3698 185.042 24.7969 185.484C24.2292 185.922 23.6536 186.141 23.0703 186.141C22.6536 186.141 22.2578 186.029 21.8828 185.805ZM25.8516 179.375C25.7786 179.333 25.6953 179.312 25.6016 179.312C25.2578 179.312 24.8568 179.536 24.3984 179.984C23.9453 180.432 23.5781 180.859 23.2969 181.266C23.0104 181.698 22.7734 182.161 22.5859 182.656C22.3984 183.151 22.3047 183.573 22.3047 183.922C22.3047 184.26 22.401 184.474 22.5938 184.562C23.0312 184.562 23.4427 184.409 23.8281 184.102C24.2135 183.789 24.6224 183.307 25.0547 182.656C25.2109 182.411 25.362 182.109 25.5078 181.75C25.6589 181.391 25.7786 181.042 25.8672 180.703C25.9557 180.365 26 180.078 26 179.844C26 179.594 25.9505 179.438 25.8516 179.375ZM31.0625 179.406C31.3646 179.125 31.8229 178.794 32.4375 178.414C33.0573 178.029 33.5312 177.779 33.8594 177.664C33.9635 177.706 34.0365 177.76 34.0781 177.828C34.125 177.891 34.1589 177.966 34.1797 178.055C34.2057 178.143 34.237 178.253 34.2734 178.383C34.2943 178.43 34.3438 178.497 34.4219 178.586C34.5 178.674 34.5547 178.747 34.5859 178.805C34.6224 178.857 34.6406 178.909 34.6406 178.961C34.6406 179.023 34.6302 179.07 34.6094 179.102C33.7083 179.518 33.0234 179.846 32.5547 180.086C32.0911 180.32 31.6667 180.581 31.2812 180.867C30.8958 181.154 30.5833 181.456 30.3438 181.773C29.9792 182.378 29.3438 183.792 28.4375 186.016C28.2344 185.995 28.0703 185.924 27.9453 185.805C27.8255 185.685 27.7448 185.586 27.7031 185.508C27.6562 185.456 27.5625 185.409 27.4219 185.367C27.2865 185.326 27.2031 185.297 27.1719 185.281C27.1406 185.26 27.125 185.211 27.125 185.133C27.1979 184.867 27.3333 184.432 27.5312 183.828C27.7292 183.219 27.9948 182.508 28.3281 181.695C28.5885 181.07 28.9167 180.331 29.3125 179.477C29.7135 178.622 29.9219 178.195 29.9375 178.195C30.0104 178.138 30.0911 178.109 30.1797 178.109C30.2578 178.109 30.3411 178.112 30.4297 178.117C30.5234 178.117 30.6328 178.12 30.7578 178.125C30.8047 178.115 30.9089 178.057 31.0703 177.953C31.237 177.844 31.3776 177.789 31.4922 177.789C31.5807 177.789 31.6667 177.812 31.75 177.859C31.5781 178.203 31.349 178.719 31.0625 179.406ZM33.2266 185.148C33.0443 184.862 32.9531 184.49 32.9531 184.031C32.9531 183.438 33.0964 182.794 33.3828 182.102C33.6693 181.404 34.0729 180.747 34.5938 180.133C35.1198 179.518 35.7552 179.016 36.5 178.625C37.2448 178.229 38.0521 178.031 38.9219 178.031C39.4167 178.062 39.8125 178.247 40.1094 178.586C40.4062 178.924 40.5547 179.326 40.5547 179.789C40.5547 180.154 40.4583 180.5 40.2656 180.828C39.9427 181.339 39.4245 181.771 38.7109 182.125C38.2422 182.396 37.6302 182.651 36.875 182.891C36.1198 183.125 35.4193 183.26 34.7734 183.297C34.6797 183.635 34.6328 183.854 34.6328 183.953C34.6328 184.214 34.776 184.411 35.0625 184.547C35.1875 184.599 35.3698 184.625 35.6094 184.625C36.151 184.625 36.7266 184.469 37.3359 184.156C37.9453 183.844 38.4089 183.401 38.7266 182.828C38.7734 182.865 38.7969 183.031 38.7969 183.328C38.8073 183.359 38.8698 183.427 38.9844 183.531C39.1042 183.63 39.1641 183.701 39.1641 183.742C39.0391 184.185 38.7656 184.589 38.3438 184.953C37.9271 185.312 37.4271 185.602 36.8438 185.82C36.2656 186.034 35.7109 186.141 35.1797 186.141C34.1901 186.141 33.5391 185.81 33.2266 185.148ZM38.9844 179.789C38.8802 179.654 38.6823 179.586 38.3906 179.586C38.1979 179.586 37.974 179.628 37.7188 179.711C37.1771 179.914 36.7109 180.172 36.3203 180.484C35.9297 180.797 35.5703 181.211 35.2422 181.727C35.4141 181.695 35.7604 181.615 36.2812 181.484C36.8073 181.349 37.1901 181.245 37.4297 181.172C37.9401 180.979 38.3385 180.779 38.625 180.57C38.9167 180.357 39.0625 180.161 39.0625 179.984C39.0625 179.932 39.0365 179.867 38.9844 179.789Z" fill="#4C495C"/>
<path d="M546.508 207.141C546.539 207.094 546.602 207.026 546.695 206.938C546.789 206.849 546.849 206.779 546.875 206.727C547.177 206.727 547.427 206.737 547.625 206.758C547.771 206.758 547.875 206.779 547.938 206.82C548 206.862 548.039 206.896 548.055 206.922L544.359 215C544.312 215.031 544.26 215.047 544.203 215.047C544.161 215.047 544.102 215.036 544.023 215.016C543.951 214.995 543.888 214.971 543.836 214.945C543.789 214.919 543.729 214.891 543.656 214.859C543.599 214.87 543.492 214.906 543.336 214.969C543.185 215.031 543.078 215.062 543.016 215.062C542.922 215.062 542.875 215.016 542.875 214.922C542.875 214.734 543.029 214.388 543.336 213.883C543.18 214.086 542.891 214.315 542.469 214.57C542.052 214.82 541.701 214.979 541.414 215.047C541.31 215.068 541.219 215.078 541.141 215.078C540.938 215.078 540.721 215.036 540.492 214.953C540.263 214.865 540.065 214.742 539.898 214.586C539.737 214.43 539.646 214.263 539.625 214.086C539.573 213.893 539.547 213.685 539.547 213.461C539.547 213.091 539.638 212.674 539.82 212.211C540.003 211.742 540.331 211.174 540.805 210.508C541.471 209.56 542.26 208.755 543.172 208.094C544.089 207.427 545.013 207.094 545.945 207.094C546.128 207.094 546.315 207.109 546.508 207.141ZM545.836 208.359C545.201 208.448 544.518 208.805 543.789 209.43C543.06 210.055 542.448 210.771 541.953 211.578C541.458 212.385 541.211 213.062 541.211 213.609C541.513 213.599 541.805 213.518 542.086 213.367C542.372 213.211 542.643 213.003 542.898 212.742C543.154 212.482 543.378 212.219 543.57 211.953C543.763 211.682 544.005 211.323 544.297 210.875C545.156 209.562 545.669 208.724 545.836 208.359ZM554.359 203.062L554.422 203.141C554.453 203.12 554.508 203.094 554.586 203.062C554.664 203.031 554.753 203.016 554.852 203.016C555.076 203.047 555.255 203.25 555.391 203.625C555.531 203.995 555.602 204.393 555.602 204.82C555.602 205.107 555.565 205.349 555.492 205.547C555.424 205.745 555.323 205.867 555.188 205.914C555.042 205.914 554.885 205.857 554.719 205.742C554.552 205.628 554.404 205.445 554.273 205.195C554.148 204.94 554.07 204.641 554.039 204.297C553.93 204.401 553.807 204.518 553.672 204.648C553.536 204.773 553.378 204.948 553.195 205.172C553.018 205.396 552.859 205.63 552.719 205.875C552.578 206.12 552.43 206.443 552.273 206.844L553.891 206.711L554.164 207.031L554.453 207.258L554.422 207.688C554.406 207.688 553.471 207.896 551.617 208.312C551.633 208.312 551.01 209.576 549.75 212.102C549.599 212.414 549.419 212.786 549.211 213.219C549.003 213.651 548.815 214.036 548.648 214.375C548.487 214.708 548.367 214.958 548.289 215.125C548.159 215.115 548.055 215.076 547.977 215.008C547.898 214.94 547.823 214.852 547.75 214.742C547.677 214.628 547.622 214.555 547.586 214.523C547.565 214.503 547.432 214.445 547.188 214.352C546.948 214.253 546.82 214.164 546.805 214.086C546.956 213.779 547.104 213.474 547.25 213.172C547.401 212.865 547.552 212.557 547.703 212.25C547.703 212.25 547.669 212.318 547.602 212.453C547.591 212.484 547.583 212.503 547.578 212.508C547.578 212.513 547.576 212.518 547.57 212.523C547.596 212.523 547.859 212.044 548.359 211.086C548.865 210.122 549.284 209.32 549.617 208.68C549.503 208.69 549.292 208.763 548.984 208.898C548.677 209.029 548.435 209.094 548.258 209.094C548.102 208.849 548.023 208.659 548.023 208.523C548.013 208.435 547.966 208.372 547.883 208.336C547.799 208.294 547.724 208.25 547.656 208.203C547.594 208.156 547.56 208.065 547.555 207.93C548.201 207.654 548.768 207.456 549.258 207.336C549.747 207.211 550.099 207.13 550.312 207.094C550.51 206.578 550.82 205.979 551.242 205.297C551.669 204.609 552.12 204.021 552.594 203.531C553.068 203.036 553.479 202.789 553.828 202.789C554.042 202.789 554.219 202.88 554.359 203.062ZM559.297 206.312C559.286 206.312 559.573 206.299 560.156 206.273C560.74 206.242 561.195 206.219 561.523 206.203C561.518 206.255 561.51 206.318 561.5 206.391C561.495 206.458 561.466 206.542 561.414 206.641C561.367 206.734 561.302 206.812 561.219 206.875C561.167 206.927 561.141 206.99 561.141 207.062C561.146 207.104 561.148 207.143 561.148 207.18C561.154 207.211 561.156 207.253 561.156 207.305C561.156 207.388 561.128 207.464 561.07 207.531C560.518 207.552 560.013 207.591 559.555 207.648C559.096 207.701 558.776 207.745 558.594 207.781C558.516 207.932 558.37 208.214 558.156 208.625C557.948 209.036 557.669 209.581 557.32 210.258C556.977 210.935 556.607 211.672 556.211 212.469C555.82 213.266 555.367 214.201 554.852 215.273C554.789 215.294 554.745 215.305 554.719 215.305C554.609 215.305 554.513 215.255 554.43 215.156C554.352 215.062 554.276 214.943 554.203 214.797C554.13 214.651 554.083 214.565 554.062 214.539C554.021 214.471 553.893 214.438 553.68 214.438C553.466 214.438 553.344 214.38 553.312 214.266C553.557 213.703 553.789 213.201 554.008 212.758C554.232 212.315 554.482 211.841 554.758 211.336C555.039 210.831 555.331 210.315 555.633 209.789C555.935 209.263 556.302 208.599 556.734 207.797C556.677 207.797 556.026 207.857 554.781 207.977C554.635 207.977 554.562 207.951 554.562 207.898C554.562 207.872 554.602 207.792 554.68 207.656C554.763 207.516 554.805 207.398 554.805 207.305C554.789 207.273 554.753 207.206 554.695 207.102C554.638 206.992 554.609 206.917 554.609 206.875C554.609 206.786 554.651 206.695 554.734 206.602C555.245 206.503 555.737 206.44 556.211 206.414C556.69 206.388 557.138 206.344 557.555 206.281C557.602 206.203 557.659 206.102 557.727 205.977C557.794 205.852 557.917 205.633 558.094 205.32C558.276 205.008 558.401 204.794 558.469 204.68C558.615 204.451 558.776 204.18 558.953 203.867C559.13 203.549 559.26 203.312 559.344 203.156C559.469 203.094 559.615 203.049 559.781 203.023C559.948 202.997 560.052 202.979 560.094 202.969C560.25 202.969 560.404 202.995 560.555 203.047C560.711 203.094 560.82 203.164 560.883 203.258C560.773 203.456 560.622 203.74 560.43 204.109C560.237 204.479 560.039 204.862 559.836 205.258C559.638 205.654 559.458 206.005 559.297 206.312ZM558.508 214.148C558.326 213.862 558.234 213.49 558.234 213.031C558.234 212.438 558.378 211.794 558.664 211.102C558.951 210.404 559.354 209.747 559.875 209.133C560.401 208.518 561.036 208.016 561.781 207.625C562.526 207.229 563.333 207.031 564.203 207.031C564.698 207.062 565.094 207.247 565.391 207.586C565.688 207.924 565.836 208.326 565.836 208.789C565.836 209.154 565.74 209.5 565.547 209.828C565.224 210.339 564.706 210.771 563.992 211.125C563.523 211.396 562.911 211.651 562.156 211.891C561.401 212.125 560.701 212.26 560.055 212.297C559.961 212.635 559.914 212.854 559.914 212.953C559.914 213.214 560.057 213.411 560.344 213.547C560.469 213.599 560.651 213.625 560.891 213.625C561.432 213.625 562.008 213.469 562.617 213.156C563.227 212.844 563.69 212.401 564.008 211.828C564.055 211.865 564.078 212.031 564.078 212.328C564.089 212.359 564.151 212.427 564.266 212.531C564.385 212.63 564.445 212.701 564.445 212.742C564.32 213.185 564.047 213.589 563.625 213.953C563.208 214.312 562.708 214.602 562.125 214.82C561.547 215.034 560.992 215.141 560.461 215.141C559.471 215.141 558.82 214.81 558.508 214.148ZM564.266 208.789C564.161 208.654 563.964 208.586 563.672 208.586C563.479 208.586 563.255 208.628 563 208.711C562.458 208.914 561.992 209.172 561.602 209.484C561.211 209.797 560.852 210.211 560.523 210.727C560.695 210.695 561.042 210.615 561.562 210.484C562.089 210.349 562.471 210.245 562.711 210.172C563.221 209.979 563.62 209.779 563.906 209.57C564.198 209.357 564.344 209.161 564.344 208.984C564.344 208.932 564.318 208.867 564.266 208.789ZM569.109 208.406C569.411 208.125 569.87 207.794 570.484 207.414C571.104 207.029 571.578 206.779 571.906 206.664C572.01 206.706 572.083 206.76 572.125 206.828C572.172 206.891 572.206 206.966 572.227 207.055C572.253 207.143 572.284 207.253 572.32 207.383C572.341 207.43 572.391 207.497 572.469 207.586C572.547 207.674 572.602 207.747 572.633 207.805C572.669 207.857 572.688 207.909 572.688 207.961C572.688 208.023 572.677 208.07 572.656 208.102C571.755 208.518 571.07 208.846 570.602 209.086C570.138 209.32 569.714 209.581 569.328 209.867C568.943 210.154 568.63 210.456 568.391 210.773C568.026 211.378 567.391 212.792 566.484 215.016C566.281 214.995 566.117 214.924 565.992 214.805C565.872 214.685 565.792 214.586 565.75 214.508C565.703 214.456 565.609 214.409 565.469 214.367C565.333 214.326 565.25 214.297 565.219 214.281C565.188 214.26 565.172 214.211 565.172 214.133C565.245 213.867 565.38 213.432 565.578 212.828C565.776 212.219 566.042 211.508 566.375 210.695C566.635 210.07 566.964 209.331 567.359 208.477C567.76 207.622 567.969 207.195 567.984 207.195C568.057 207.138 568.138 207.109 568.227 207.109C568.305 207.109 568.388 207.112 568.477 207.117C568.57 207.117 568.68 207.12 568.805 207.125C568.852 207.115 568.956 207.057 569.117 206.953C569.284 206.844 569.424 206.789 569.539 206.789C569.628 206.789 569.714 206.812 569.797 206.859C569.625 207.203 569.396 207.719 569.109 208.406Z" fill="#4C495C"/>
<mask id="mask0_1443_13223" style="mask-type:luminance" maskUnits="userSpaceOnUse" x="34" y="9" width="12" height="107">
<path d="M34.9688 9.33301H46V116H34.9688V9.33301Z" fill="white"/>
</mask>
<g mask="url(#mask0_1443_13223)">
<path d="M40.0234 110.151V15.1722" stroke="#F5DC49" stroke-width="9.94737" stroke-linecap="round"/>
</g>
<mask id="mask1_1443_13223" style="mask-type:luminance" maskUnits="userSpaceOnUse" x="386" y="42" width="35" height="50">
<path d="M386 42.667H420.667V91.3076H386V42.667Z" fill="white"/>
</mask>
<g mask="url(#mask1_1443_13223)">
<path d="M417.083 91.3073H390.208L386.672 43.0312H420.62L417.083 91.3073Z" fill="#EDEDEE"/>
</g>
<mask id="mask2_1443_13223" style="mask-type:luminance" maskUnits="userSpaceOnUse" x="403" y="42" width="18" height="50">
<path d="M403.336 42.667H420.669V91.3076H403.336V42.667Z" fill="white"/>
</mask>
<g mask="url(#mask2_1443_13223)">
<path d="M417.086 91.3073H403.648V43.0312H420.622L417.086 91.3073Z" fill="#EDEDEE"/>
</g>
<mask id="mask3_1443_13223" style="mask-type:luminance" maskUnits="userSpaceOnUse" x="403" y="33" width="22" height="31">
<path d="M403.336 33.6094H424.669V64H403.336V33.6094Z" fill="white"/>
</mask>
<g mask="url(#mask3_1443_13223)">
<path d="M407.479 63.3698L403.828 62.4688L411.74 33.6094L424.349 38.125L423.083 41.6667L414.292 38.5208L407.479 63.3698Z" fill="#050038"/>
</g>
<mask id="mask4_1443_13223" style="mask-type:luminance" maskUnits="userSpaceOnUse" x="387" y="60" width="33" height="32">
<path d="M387.336 60H419.336V91.3073H387.336V60Z" fill="white"/>
</mask>
<g mask="url(#mask4_1443_13223)">
<path d="M388 61.0674L390.214 91.307H417.089L419.302 61.0674H388Z" fill="#F5DC49"/>
</g>
<mask id="mask5_1443_13223" style="mask-type:luminance" maskUnits="userSpaceOnUse" x="403" y="60" width="17" height="32">
<path d="M403.336 60H419.336V91.3073H403.336V60Z" fill="white"/>
</mask>
<g mask="url(#mask5_1443_13223)">
<path d="M403.648 61.0674V91.307H417.086L419.299 61.0674H403.648Z" fill="#F5DC49"/>
</g>
<path d="M118.042 90.9271C114.443 90.9271 111.089 90.2917 107.979 89.0312C104.865 87.7708 102.188 85.9896 99.9375 83.6979C97.6979 81.4062 96.0729 78.7344 95.0625 75.6771L104.542 71.2188C105.859 74.3854 107.771 76.8229 110.271 78.5312C112.781 80.2292 115.375 81.0729 118.042 81.0729C120.818 81.0729 122.984 80.5208 124.542 79.4062C126.094 78.2812 126.875 76.9167 126.875 75.3021C126.875 73.901 126.406 72.776 125.479 71.9271C124.562 71.0677 123.302 70.3958 121.708 69.9062L110.604 66.4062C105.979 64.9479 102.547 62.9219 100.312 60.3229C98.0729 57.7135 96.9583 54.6042 96.9583 50.9896C96.9583 47.7396 97.7708 44.9167 99.3958 42.5104C101.021 40.0938 103.292 38.2083 106.208 36.8438C109.135 35.4688 112.573 34.7812 116.521 34.7812C120.021 34.7812 123.208 35.3802 126.083 36.5729C128.958 37.7708 131.422 39.401 133.479 41.4688C135.547 43.5417 137.068 45.9167 138.042 48.5938L128.562 53.0312C127.63 50.4635 126.115 48.4271 124.021 46.9271C121.938 45.4167 119.438 44.6562 116.521 44.6562C114.031 44.6562 112.031 45.2188 110.521 46.3438C109.021 47.4583 108.271 48.8594 108.271 50.5521C108.271 53.1354 110.068 54.9896 113.667 56.1146L124.479 59.4688C129.047 60.875 132.469 62.8177 134.75 65.3021C137.042 67.7917 138.188 70.9062 138.188 74.6562C138.188 77.9062 137.344 80.7552 135.667 83.1979C134 85.6302 131.651 87.526 128.625 88.8854C125.609 90.2448 122.083 90.9271 118.042 90.9271Z" fill="#182527"/>
<path d="M158.642 90.9274C155.626 90.9274 152.96 90.2295 150.642 88.8441C148.335 87.4587 146.538 85.5264 145.246 83.0524C143.954 80.568 143.309 77.693 143.309 74.4274V50.1982H154.267V73.4899C154.267 75.7712 154.944 77.6045 156.309 78.9899C157.668 80.3805 159.418 81.0732 161.559 81.0732C163.694 81.0732 165.444 80.3805 166.809 78.9899C168.184 77.6045 168.871 75.7712 168.871 73.4899V50.1982H179.809V90.0524H169.6V85.2399C168.569 87.0889 167.105 88.5003 165.204 89.4691C163.314 90.4378 161.126 90.9274 158.642 90.9274Z" fill="#182527"/>
<path d="M209.443 90.9277C207.01 90.9277 204.734 90.5215 202.609 89.7194C200.495 88.9173 198.74 87.7611 197.339 86.2611V90.0527H187.109V35.6777H198.068V53.5527C200.885 50.735 204.703 49.3236 209.526 49.3236C213.318 49.3236 216.734 50.2507 219.776 52.0944C222.818 53.9434 225.24 56.4382 227.047 59.5736C228.849 62.7142 229.755 66.2298 229.755 70.1152C229.755 73.9642 228.865 77.4694 227.089 80.6361C225.307 83.8027 222.901 86.3132 219.859 88.1569C216.818 90.0059 213.344 90.9277 209.443 90.9277ZM208.13 81.0736C211.156 81.0736 213.63 80.0527 215.547 78.0111C217.464 75.9694 218.422 73.3392 218.422 70.1152C218.422 66.9642 217.464 64.3548 215.547 62.2819C213.63 60.2142 211.156 59.1777 208.13 59.1777C205.172 59.1777 202.755 60.1986 200.88 62.2402C199.005 64.2819 198.068 66.9069 198.068 70.1152C198.068 73.3809 199.005 76.0267 200.88 78.0527C202.755 80.0684 205.172 81.0736 208.13 81.0736Z" fill="#182527"/>
<path d="M234.852 90.0524V50.1982H245.081V55.0107C246.049 53.1097 247.424 51.6878 249.206 50.7399C250.982 49.7972 253.086 49.3232 255.518 49.3232C258.102 49.3232 260.414 49.8441 262.456 50.8857C264.497 51.9274 266.148 53.4482 267.414 55.4482C268.539 53.6045 270.169 52.1253 272.31 51.0107C274.445 49.8857 276.857 49.3232 279.539 49.3232C282.299 49.3232 284.753 49.943 286.893 51.1774C289.044 52.417 290.711 54.167 291.893 56.4274C293.086 58.693 293.685 61.3597 293.685 64.4274V90.0524H282.747V66.7607C282.747 64.3337 282.148 62.4639 280.956 61.1566C279.758 59.8389 278.19 59.1774 276.247 59.1774C274.299 59.1774 272.732 59.8389 271.539 61.1566C270.341 62.4639 269.747 64.3337 269.747 66.7607V90.0524H258.81V66.7607C258.81 64.3337 258.211 62.4639 257.018 61.1566C255.82 59.8389 254.253 59.1774 252.31 59.1774C250.352 59.1774 248.773 59.8389 247.581 61.1566C246.398 62.4639 245.81 64.3337 245.81 66.7607V90.0524H234.852Z" fill="#182527"/>
<path d="M300.266 46.6152V35.6777H311.224V46.6152H300.266ZM300.266 90.0527V50.1986H311.224V90.0527H300.266Z" fill="#182527"/>
<path d="M337.639 90.4896C332.816 90.4896 329.082 89.1927 326.431 86.5938C323.775 83.9844 322.452 80.3438 322.452 75.6771V59.6771H315.598V50.1979H316.118C320.337 50.1979 322.452 48.151 322.452 44.0521V38.2188H333.41V50.1979H342.764V59.6771H333.41V75.6771C333.41 79.7188 335.671 81.7396 340.202 81.7396C340.879 81.7396 341.733 81.6667 342.764 81.5104V90.1354C341.15 90.3698 339.441 90.4896 337.639 90.4896Z" fill="#182527"/>
<path d="M358.086 90.0527V79.8236H361.732C363.924 79.8236 365.69 79.209 367.023 77.9694C368.367 76.735 369.044 75.0944 369.044 73.0527V35.6777H380.357V72.5319C380.357 76.0319 379.586 79.1048 378.044 81.7402C376.513 84.3652 374.362 86.4069 371.586 87.8652C368.82 89.3236 365.534 90.0527 361.732 90.0527H358.086Z" fill="#182527"/>
<path d="M427.812 46.6152V35.6777H438.771V46.6152H427.812ZM427.812 90.0527V50.1986H438.771V90.0527H427.812Z" fill="#182527"/>
<path d="M464.979 90.9274C460.979 90.9274 457.38 90.0212 454.188 88.1982C451.005 86.3649 448.49 83.8753 446.646 80.7191C444.797 77.5524 443.875 74.0003 443.875 70.0524C443.875 66.1097 444.797 62.568 446.646 59.4274C448.49 56.292 451.005 53.8232 454.188 52.0316C457.38 50.2295 460.979 49.3232 464.979 49.3232C467.938 49.3232 470.677 49.8389 473.208 50.8649C475.75 51.8805 477.917 53.3024 479.708 55.1357C481.51 56.9587 482.802 59.1045 483.583 61.5732L474.25 66.1149C473.609 63.9795 472.464 62.292 470.812 61.0524C469.156 59.8024 467.214 59.1774 464.979 59.1774C462.104 59.1774 459.75 60.1982 457.917 62.2399C456.094 64.2816 455.188 66.9066 455.188 70.1149C455.188 73.3389 456.094 75.9691 457.917 78.0107C459.75 80.0524 462.104 81.0732 464.979 81.0732C467.255 81.0732 469.208 80.443 470.833 79.1774C472.469 77.917 473.609 76.2347 474.25 74.1357L483.583 78.7399C482.859 81.0732 481.594 83.167 479.792 85.0107C477.984 86.8597 475.818 88.3128 473.292 89.3649C470.76 90.4066 467.99 90.9274 464.979 90.9274Z" fill="#182527"/>
<path d="M506.656 90.9274C502.474 90.9274 498.813 89.9899 495.677 88.1149C492.536 86.2399 490.099 83.7295 488.365 80.5732C486.641 77.4066 485.781 73.9014 485.781 70.0524C485.781 66.068 486.667 62.5212 488.448 59.4066C490.224 56.2816 492.635 53.8232 495.677 52.0316C498.719 50.2295 502.135 49.3232 505.927 49.3232C509.677 49.3232 513.031 50.1982 515.99 51.9482C518.958 53.6982 521.323 56.0472 523.073 58.9899C524.833 61.9378 525.719 65.2555 525.719 68.9482C525.719 69.7295 525.677 70.5003 525.594 71.2607C525.521 72.0107 525.391 72.6566 525.198 73.1982H497.177C497.51 75.6722 498.531 77.667 500.24 79.1774C501.948 80.693 504.135 81.4482 506.802 81.4482C508.745 81.4482 510.411 81.0628 511.802 80.2816C513.188 79.4899 514.271 78.417 515.052 77.0524L523.823 81.2191C522.599 84.1357 520.453 86.4847 517.385 88.2607C514.328 90.042 510.75 90.9274 506.656 90.9274ZM505.927 58.0732C503.786 58.0732 501.958 58.6878 500.448 59.9066C498.948 61.1149 497.927 62.8649 497.385 65.1566H514.115C513.917 63.0212 513.078 61.3024 511.594 60.0107C510.104 58.7191 508.219 58.0732 505.927 58.0732Z" fill="#182527"/>
<g clip-path="url(#clip0_1443_13223)">
<path d="M85 342.948L93.3137 335.462C97.181 341.657 103.499 345.048 109.469 345.048C115.439 345.048 119.886 341.541 119.886 337.216C119.886 334.172 118.13 331.724 114.504 329.961C113.452 329.374 110.877 328.324 106.894 326.802C103.026 325.164 100.335 323.998 98.9364 323.179C92.2623 319.672 88.8673 314.527 88.8673 307.62C88.8673 302.36 90.8544 298.034 94.7216 294.643C98.7047 291.252 103.971 289.498 110.413 289.498C119.431 289.498 126.337 292.774 131.14 299.209L123.646 307.157C119.903 302.6 115.332 300.259 109.834 300.259C104.336 300.259 101.405 303.303 101.405 307.157C101.405 310.193 103.16 312.534 106.671 314.056L113.113 316.744C117.097 318.381 120.019 319.663 122.015 320.722C129.153 324.461 132.788 329.73 132.788 336.628C132.788 342.129 130.561 346.802 126.23 350.549C121.899 354.287 116.161 356.166 109.255 356.166C99.5424 356.166 90.293 351.724 85.0178 342.948H85Z" fill="#272827"/>
<path d="M272.313 299.681C266.343 293.246 258.849 290.095 249.831 290.095C241.286 290.095 234.148 293.61 228.526 300.74V266H215.641V354.644H216.024C217.512 353.015 219.686 351.982 222.083 351.982C224.48 351.982 226.654 353.015 228.16 354.644H228.41V345.636C233.917 352.659 241.054 356.157 249.715 356.157C258.377 356.157 266.352 352.997 272.313 346.686C278.283 340.251 281.322 332.427 281.322 323.179C281.322 313.931 278.283 306.116 272.313 299.681ZM262.476 338.035C258.849 342.138 254.046 344.123 248.076 344.123C242.106 344.123 237.187 342.138 233.444 338.035C229.809 333.94 227.937 329.036 227.937 323.072C227.937 317.109 229.809 312.311 233.444 308.217C237.187 304.114 242.097 302.022 248.076 302.022C254.055 302.022 258.849 304.007 262.476 308.101C266.227 312.196 268.098 317.1 268.098 323.072C268.098 329.045 266.227 333.94 262.476 338.035Z" fill="#272827"/>
<path d="M386.448 297.224C391.135 302.022 393.47 308.689 393.47 316.984V354.644H380.594V319.094C380.594 307.986 374.971 301.906 366.194 301.906C356.829 301.906 350.387 308.804 350.387 319.45V354.653H337.51V319.334C337.51 308.457 331.888 301.906 322.995 301.906C313.63 301.906 307.071 308.92 307.071 319.681V354.644H294.195V291.608H306.84V300.731C310.582 294.065 317.613 289.854 325.927 289.854C334.24 289.97 341.966 294.065 345.361 301.435C349.691 294.421 358.469 289.854 368.19 289.854C375.8 289.854 381.886 292.311 386.457 297.224H386.448Z" fill="#272827"/>
<path d="M477.637 356.157H464.075C450.379 356.157 443.358 347.621 443.358 332.062V302.591H432.469V291.599H443.474V269.267H456.234V291.599H478.012V302.591H456.234V332.294C456.234 340.367 459.459 344.461 465.902 344.461H477.646V356.148L477.637 356.157Z" fill="#272827"/>
<path d="M422.274 291.715H409.398V354.644H422.274V291.715Z" fill="#272827"/>
<path d="M186.848 413.523C186.848 423.225 181.457 429.073 172.092 429.073C162.727 429.073 157.345 422.994 157.345 413.523V386.847H144.469V413.639C144.469 430.479 155.233 441 172.092 441C188.951 441 199.84 430.826 199.84 413.639V386.847H186.848V413.523ZM186.848 314.109V351.057H199.84V314.109H186.848ZM157.345 314.109H144.469V351.057H157.345V314.109Z" fill="#272827"/>
<path d="M252.014 431.645C245.812 425.45 242.648 417.608 242.648 408.022C242.648 398.436 245.812 390.479 252.129 384.284C258.447 378.089 266.529 374.929 276.483 374.929C289.127 374.929 300.479 381.364 305.514 391.769L294.857 397.733C290.989 391.066 284.083 386.74 276.59 386.74C270.619 386.74 265.585 388.725 261.602 392.819C257.619 396.914 255.631 401.943 255.631 408.022C255.631 414.101 257.619 418.899 261.486 422.993C265.353 427.088 270.263 429.073 276.117 429.073C283.611 429.073 291.221 424.515 294.5 418.312L305.157 424.507C300.007 434.333 288.655 440.875 276.01 440.875C266.298 440.875 258.216 437.84 252.014 431.636V431.645Z" fill="#E7BE4F"/>
<path d="M375.517 412.936H326.231C328.102 422.762 335.008 429.42 347.189 429.42C354.336 429.42 362.997 426.732 368.611 422.637L373.993 432.108C367.55 436.906 357.365 440.875 346.717 440.875C323.068 440.875 312.883 424.391 312.883 407.782C312.883 398.311 315.806 390.479 321.785 384.275C327.755 378.08 335.596 374.92 345.086 374.92C354.576 374.92 361.589 377.724 367.328 383.456C373.066 389.188 375.989 396.905 375.989 406.723C375.989 408.476 375.873 410.586 375.517 412.918V412.936ZM326.231 402.415H362.988C361.937 392.472 354.558 386.046 345.077 386.046C335.596 386.046 328.102 392.597 326.231 402.415Z" fill="#E7BE4F"/>
<path d="M273.511 296.191C276.045 296.191 278.1 294.139 278.1 291.607C278.1 289.076 276.045 287.023 273.511 287.023C270.976 287.023 268.922 289.076 268.922 291.607C268.922 294.139 270.976 296.191 273.511 296.191Z" fill="#272827"/>
<path d="M268.563 285.048C269.705 285.048 270.631 284.123 270.631 282.983C270.631 281.843 269.705 280.918 268.563 280.918C267.422 280.918 266.496 281.843 266.496 282.983C266.496 284.123 267.422 285.048 268.563 285.048Z" fill="#272827"/>
<path d="M273.856 284.763C274.594 284.763 275.193 284.165 275.193 283.428C275.193 282.691 274.594 282.093 273.856 282.093C273.118 282.093 272.52 282.691 272.52 283.428C272.52 284.165 273.118 284.763 273.856 284.763Z" fill="#272827"/>
<path d="M264.695 294.804C264.695 294.804 268.919 296.406 270.184 290.763C273.508 293.816 273.508 294.448 273.508 294.448C273.508 294.448 269.846 297.029 271.352 300.554C272.163 302.886 268.928 300.999 268.928 300.999L264.704 294.804H264.695Z" fill="#272827"/>
<path d="M415.841 281.959C418.981 281.959 421.526 279.417 421.526 276.28C421.526 273.144 418.981 270.602 415.841 270.602C412.702 270.602 410.156 273.144 410.156 276.28C410.156 279.417 412.702 281.959 415.841 281.959Z" fill="#272827"/>
<path d="M228.524 376.21H215.648V439.139H228.524V376.21Z" fill="#E7BE4F"/>
<path d="M222.083 366.793C225.223 366.793 227.769 364.251 227.769 361.114C227.769 357.978 225.223 355.436 222.083 355.436C218.944 355.436 216.398 357.978 216.398 361.114C216.398 364.251 218.944 366.793 222.083 366.793Z" fill="#272827"/>
<path d="M129.947 376.441V387.443H129.938V416.914C129.938 429.143 125.589 437.039 117.071 439.851C114.763 440.608 112.143 440.999 109.22 440.999H88.2891V429.33C88.2891 429.33 103.945 429.188 107.34 429.188C113.783 429.188 117.062 425.209 117.062 417.145V387.443H95.284V376.441H129.947Z" fill="#E7BE4F"/>
<path d="M431.156 423.457C430.906 423.421 430.657 423.377 430.407 423.323L429.525 423.136C429.436 423.118 429.347 423.101 429.267 423.074C428.91 422.985 428.572 422.887 428.233 422.789C427.93 422.7 427.636 422.611 427.342 422.513C427.297 422.495 427.253 422.486 427.208 422.469C427.164 422.451 427.093 422.424 427.048 422.406C426.736 422.3 426.442 422.193 426.139 422.068L426.014 422.015C425.72 421.899 425.417 421.783 425.123 421.65C424.785 421.507 424.464 421.347 424.143 421.196C423.796 421.027 423.475 420.858 423.154 420.688C422.833 420.519 422.521 420.341 422.209 420.146C421.301 419.611 420.409 418.997 419.59 418.348C419.59 418.348 419.42 418.214 419.403 418.196C419.233 418.063 419.073 417.929 418.904 417.787L418.69 417.609C417.05 416.211 415.58 414.582 414.332 412.793C414.19 412.598 414.065 412.402 413.931 412.206C413.807 412.028 413.709 411.877 413.628 411.725C413.602 411.681 413.584 411.645 413.557 411.61C413.45 411.449 413.352 411.289 413.263 411.129C413.236 411.084 413.21 411.04 413.183 410.995C413.165 410.969 413.147 410.933 413.129 410.906L412.737 410.203C412.63 409.999 412.515 409.785 412.417 409.562C412.105 408.957 411.855 408.405 411.615 407.791C411.472 407.444 411.294 406.999 411.142 406.518C411.133 406.492 411.124 406.456 411.116 406.429C411.035 406.207 410.955 405.984 410.893 405.762C410.777 405.424 410.688 405.085 410.599 404.747C410.599 404.711 410.581 404.685 410.572 404.658C410.527 404.516 410.492 404.373 410.465 404.231C410.465 404.195 410.447 404.16 410.438 404.124C410.385 403.928 410.34 403.723 410.305 403.519C410.278 403.394 410.26 403.305 410.242 403.207C410.242 403.172 410.233 403.136 410.224 403.1C410.171 402.86 410.126 402.611 410.091 402.371C410.046 402.112 410.011 401.917 409.984 401.73C409.966 401.614 409.957 401.507 409.948 401.391C409.948 401.347 409.939 401.293 409.93 401.249C409.895 401.018 409.868 400.777 409.85 400.546C409.815 400.163 409.788 399.789 409.77 399.415C409.743 398.988 409.734 398.57 409.734 398.143C409.734 397.76 409.734 397.377 409.77 396.994C409.77 396.959 409.77 396.923 409.77 396.888C409.77 396.807 409.77 396.727 409.779 396.638C409.797 396.389 409.815 396.158 409.832 395.917C409.85 395.65 409.868 395.463 409.895 395.285C409.895 395.25 409.895 395.223 409.904 395.188C409.904 395.063 409.93 394.956 409.948 394.84C409.948 394.814 409.957 394.778 409.966 394.751C410.002 394.475 410.037 394.2 410.082 393.924C410.135 393.603 410.189 393.292 410.26 392.971C410.349 392.535 410.429 392.17 410.527 391.823C410.732 390.986 410.973 390.194 411.276 389.375C411.534 388.654 411.802 388.022 412.096 387.417C412.122 387.364 412.149 387.301 412.167 387.248C414.983 381.24 419.893 376.656 426.014 374.253C426.38 374.11 426.736 373.977 427.101 373.852C427.413 373.745 427.743 373.638 428.064 373.541C428.108 373.523 428.153 373.514 428.206 373.496C428.269 373.487 428.393 373.452 428.447 373.434C428.616 373.38 428.794 373.336 428.973 373.291L429.32 373.202C429.32 373.202 429.543 373.158 429.588 373.149C429.882 373.078 430.176 373.015 430.47 372.953C430.853 372.873 431.236 372.811 431.628 372.748C432.475 372.615 433.33 372.535 434.257 372.499C434.658 372.472 435.041 372.464 435.433 372.464C435.852 372.464 436.244 372.464 436.627 372.499C436.663 372.499 436.841 372.499 436.903 372.508C437.313 372.526 437.67 372.553 438.017 372.597C438.472 372.642 438.864 372.695 439.256 372.748C439.291 372.748 439.514 372.793 439.55 372.793C439.862 372.837 440.245 372.909 440.628 372.989C441.011 373.06 441.394 373.149 441.769 373.247C441.804 373.256 441.849 373.265 441.884 373.274C442.294 373.38 442.695 373.496 443.087 373.621C443.372 373.71 443.649 373.799 443.925 373.897C443.961 373.914 444.005 373.923 444.041 373.941C444.183 373.986 444.326 374.039 444.469 374.092C444.852 374.235 445.235 374.386 445.618 374.555C445.948 374.698 446.268 374.84 446.589 375C446.848 375.125 447.106 375.25 447.356 375.383C447.721 375.57 448.068 375.766 448.416 375.971C448.71 376.149 449.04 376.229 449.369 376.229C449.717 376.229 450.064 376.131 450.376 375.935C450.973 375.561 451.312 374.885 451.25 374.181C451.241 374.075 451.232 373.959 451.232 373.852C451.232 371.903 452.818 370.31 454.769 370.31C456.721 370.31 458.316 371.894 458.316 373.852C458.316 375.614 456.997 377.119 455.251 377.359C454.555 377.457 453.967 377.929 453.727 378.596C453.486 379.264 453.647 380.003 454.137 380.51C454.564 380.964 454.983 381.436 455.375 381.916C455.571 382.157 455.723 382.352 455.865 382.548C455.892 382.584 455.928 382.628 455.954 382.664C455.999 382.717 456.035 382.771 456.07 382.824C456.097 382.86 456.124 382.904 456.151 382.94C456.284 383.109 456.409 383.278 456.525 383.465C456.543 383.492 456.56 383.518 456.578 383.545C456.667 383.67 456.792 383.848 456.917 384.035C457.024 384.195 457.122 384.337 457.202 384.48C457.22 384.506 457.238 384.533 457.255 384.569C457.345 384.693 457.451 384.88 457.558 385.058C457.683 385.254 457.754 385.379 457.826 385.512C457.844 385.548 457.861 385.575 457.879 385.61C457.968 385.761 458.057 385.922 458.138 386.073L458.209 386.198C458.343 386.447 458.467 386.696 458.592 386.954C458.601 386.981 458.681 387.141 458.69 387.168C458.85 387.497 459.002 387.835 459.145 388.165C459.243 388.396 459.341 388.636 459.43 388.868C459.456 388.948 459.519 389.126 459.537 389.153C459.581 389.268 459.626 389.375 459.661 389.491C459.786 389.838 459.902 390.176 460.009 390.532C460.134 390.933 460.249 391.333 460.356 391.752C460.463 392.161 460.561 392.571 460.642 392.989C460.713 393.336 460.784 393.692 460.838 394.039C460.918 394.564 460.989 395.09 461.043 395.624C461.078 396.024 461.114 396.434 461.132 396.843C461.158 397.288 461.167 397.724 461.167 398.169C461.167 398.614 461.158 399.015 461.132 399.442C461.114 399.816 461.087 400.199 461.051 400.573C461.034 400.813 461.007 401.044 460.971 401.276C460.971 401.32 460.962 401.365 460.953 401.409C460.944 401.525 460.927 401.641 460.918 401.747C460.891 401.952 460.855 402.157 460.82 402.353C460.82 402.388 460.811 402.415 460.802 402.451C460.766 402.7 460.713 403.02 460.642 403.341C460.57 403.697 460.49 404.035 460.401 404.373C460.392 404.418 460.356 404.569 460.347 404.605C460.241 405.005 460.151 405.343 460.045 405.682C459.973 405.922 459.902 406.136 459.822 406.358C459.617 406.981 459.403 407.524 459.189 408.04C459.082 408.298 458.975 408.548 458.859 408.788C458.654 409.26 458.423 409.723 458.191 410.15C458.066 410.39 457.942 410.622 457.808 410.844C457.79 410.88 457.701 411.04 457.701 411.04C457.55 411.298 457.407 411.529 457.255 411.761C457.184 411.886 457.14 411.948 457.104 412.001C457.077 412.037 457.059 412.072 457.033 412.099C456.917 412.286 456.792 412.464 456.667 412.651C456.632 412.704 456.596 412.758 456.569 412.811C456.534 412.856 456.462 412.945 456.436 412.989C456.275 413.221 456.097 413.452 455.928 413.684C455.295 414.52 454.573 415.357 453.798 416.14C453.549 416.398 453.29 416.647 453.023 416.897C452.8 417.101 452.577 417.306 452.346 417.511C452.319 417.538 452.292 417.564 452.265 417.591C452.239 417.618 452.194 417.653 452.159 417.68C452.132 417.698 451.428 418.276 451.401 418.303C451.365 418.33 451.303 418.374 451.267 418.401C451.018 418.597 450.768 418.784 450.519 418.962C450.225 419.175 449.931 419.38 449.628 419.576C449.405 419.727 449.182 419.861 448.96 420.003L448.71 420.163C448.095 420.537 447.489 420.867 446.821 421.196C446.482 421.374 446.135 421.534 445.787 421.676C445.458 421.819 445.11 421.961 444.771 422.095C444.486 422.211 444.192 422.317 443.907 422.415C443.863 422.433 443.809 422.451 443.765 422.469C443.72 422.486 443.675 422.504 443.631 422.513C443.595 422.513 443.569 422.531 443.533 422.54C443.292 422.62 443.052 422.691 442.802 422.762C442.749 422.78 442.695 422.798 442.651 422.816C442.606 422.825 442.571 422.834 442.526 422.851C442.268 422.932 442.009 422.994 441.742 423.056C441.706 423.065 441.662 423.074 441.626 423.092C441.519 423.127 441.421 423.145 441.323 423.163C441.27 423.163 441.225 423.181 441.18 423.19C440.958 423.243 440.735 423.288 440.503 423.341C440.254 423.394 440.004 423.439 439.755 423.474V413.799L440.129 413.692C440.566 413.55 440.976 413.399 441.385 413.23C441.573 413.149 441.751 413.069 441.929 412.989L442.17 412.874C442.339 412.802 442.535 412.696 442.731 412.58C442.954 412.464 443.168 412.331 443.372 412.197C443.765 411.948 444.166 411.663 444.602 411.307C444.78 411.156 444.959 411.004 445.119 410.862C445.181 410.817 445.226 410.773 445.279 410.72C445.279 410.72 445.297 410.702 445.306 410.693C445.431 410.586 445.547 410.461 445.663 410.346C445.671 410.337 445.734 410.274 445.743 410.266C445.939 410.061 446.099 409.892 446.251 409.714C446.571 409.367 446.901 408.984 447.275 408.503C447.81 407.791 448.202 407.177 448.55 406.563C448.924 405.886 449.236 405.201 449.521 404.471C450.252 402.504 450.599 400.448 450.599 398.16C450.599 393.568 449.173 389.794 446.251 386.598C445.939 386.242 445.591 385.886 445.226 385.539C445.19 385.503 445.155 385.477 445.128 385.45C444.95 385.299 444.771 385.147 444.593 384.996C444.255 384.711 443.88 384.444 443.488 384.186C443.453 384.159 443.408 384.142 443.372 384.115C441.091 382.655 438.32 381.916 435.148 381.916C434.622 381.916 434.087 381.943 433.517 381.988H433.384C432.056 382.13 430.862 382.388 429.757 382.771C429.614 382.815 429.498 382.86 429.383 382.913C428.251 383.34 427.182 383.901 426.193 384.604C425.569 385.049 424.972 385.557 424.41 386.118C424.214 386.304 424.036 386.491 423.858 386.687C422.263 388.485 421.113 390.488 420.427 392.642L420.267 393.158L420.16 393.568C419.991 394.226 419.857 394.903 419.768 395.57C419.652 396.38 419.599 397.253 419.599 398.16C419.599 398.997 419.652 399.834 419.75 400.67C419.857 401.489 420.008 402.264 420.205 403.002C420.873 405.504 422.067 407.693 423.858 409.705C424.357 410.248 424.883 410.746 425.444 411.218C425.498 411.262 425.872 411.556 425.89 411.565L426.317 411.868C426.905 412.277 427.52 412.633 428.162 412.936C428.358 413.034 428.554 413.123 428.732 413.194L428.857 413.247C429.026 413.319 429.195 413.39 429.374 413.452L429.579 413.523C429.775 413.595 429.935 413.648 430.087 413.692C430.274 413.755 430.425 413.799 430.577 413.835C430.764 413.897 430.942 413.942 431.138 413.977L431.174 423.492L431.156 423.457Z" fill="#272827"/>
<path d="M431.156 423.457C430.906 423.421 430.657 423.377 430.407 423.323L429.525 423.136C429.436 423.118 429.347 423.101 429.267 423.074C428.91 422.985 428.572 422.887 428.233 422.789C427.93 422.7 427.636 422.611 427.342 422.513C427.297 422.495 427.253 422.486 427.208 422.469C427.164 422.451 427.093 422.424 427.048 422.406C426.736 422.3 426.442 422.193 426.139 422.068L426.014 422.015C425.72 421.899 425.417 421.783 425.123 421.65C424.785 421.507 424.464 421.347 424.143 421.196C423.796 421.027 423.475 420.858 423.154 420.688C422.833 420.519 422.521 420.341 422.209 420.146C421.301 419.611 420.409 418.997 419.59 418.348C419.59 418.348 419.42 418.214 419.403 418.196C419.233 418.063 419.073 417.929 418.904 417.787L418.69 417.609C417.05 416.211 415.58 414.582 414.332 412.793C414.19 412.598 414.065 412.402 413.931 412.206C413.807 412.028 413.709 411.877 413.628 411.725C413.602 411.681 413.584 411.645 413.557 411.61C413.45 411.449 413.352 411.289 413.263 411.129C413.236 411.084 413.21 411.04 413.183 410.995C413.165 410.969 413.147 410.933 413.129 410.906L412.737 410.203C412.63 409.999 412.515 409.785 412.417 409.562C412.105 408.957 411.855 408.405 411.615 407.791C411.472 407.444 411.294 406.999 411.142 406.518C411.133 406.492 411.124 406.456 411.116 406.429C411.035 406.207 410.955 405.984 410.893 405.762C410.777 405.424 410.688 405.085 410.599 404.747C410.599 404.711 410.581 404.685 410.572 404.658C410.527 404.516 410.492 404.373 410.465 404.231C410.465 404.195 410.447 404.16 410.438 404.124C410.385 403.928 410.34 403.723 410.305 403.519C410.278 403.394 410.26 403.305 410.242 403.207C410.242 403.172 410.233 403.136 410.224 403.1C410.171 402.86 410.126 402.611 410.091 402.371C410.046 402.112 410.011 401.917 409.984 401.73C409.966 401.614 409.957 401.507 409.948 401.391C409.948 401.347 409.939 401.293 409.93 401.249C409.895 401.018 409.868 400.777 409.85 400.546C409.815 400.163 409.788 399.789 409.77 399.415C409.743 398.988 409.734 398.57 409.734 398.143C409.734 397.76 409.734 397.377 409.77 396.994C409.77 396.959 409.77 396.923 409.77 396.888C409.77 396.807 409.77 396.727 409.779 396.638C409.797 396.389 409.815 396.158 409.832 395.917C409.85 395.65 409.868 395.463 409.895 395.285C409.895 395.25 409.895 395.223 409.904 395.188C409.904 395.063 409.93 394.956 409.948 394.84C409.948 394.814 409.957 394.778 409.966 394.751C410.002 394.475 410.037 394.2 410.082 393.924C410.135 393.603 410.189 393.292 410.26 392.971C410.349 392.535 410.429 392.17 410.527 391.823C410.732 390.986 410.973 390.194 411.276 389.375C411.534 388.654 411.802 388.022 412.096 387.417C412.122 387.364 412.149 387.301 412.167 387.248C414.983 381.24 419.893 376.656 426.014 374.253C426.38 374.11 426.736 373.977 427.101 373.852C427.413 373.745 427.743 373.638 428.064 373.541C428.108 373.523 428.153 373.514 428.206 373.496C428.269 373.487 428.393 373.452 428.447 373.434C428.616 373.38 428.794 373.336 428.973 373.291L429.32 373.202C429.32 373.202 429.543 373.158 429.588 373.149C429.882 373.078 430.176 373.015 430.47 372.953C430.853 372.873 431.236 372.811 431.628 372.748C432.475 372.615 433.33 372.535 434.257 372.499C434.658 372.472 435.041 372.464 435.433 372.464C435.852 372.464 436.244 372.464 436.627 372.499C436.663 372.499 436.841 372.499 436.903 372.508C437.313 372.526 437.67 372.553 438.017 372.597C438.472 372.642 438.864 372.695 439.256 372.748C439.291 372.748 439.514 372.793 439.55 372.793C439.862 372.837 440.245 372.909 440.628 372.989C441.011 373.06 441.394 373.149 441.769 373.247C441.804 373.256 441.849 373.265 441.884 373.274C442.294 373.38 442.695 373.496 443.087 373.621C443.372 373.71 443.649 373.799 443.925 373.897C443.961 373.914 444.005 373.923 444.041 373.941C444.183 373.986 444.326 374.039 444.469 374.092C444.852 374.235 445.235 374.386 445.618 374.555C445.948 374.698 446.268 374.84 446.589 375C446.848 375.125 447.106 375.25 447.356 375.383C447.721 375.57 448.068 375.766 448.416 375.971C448.71 376.149 449.04 376.229 449.369 376.229C449.717 376.229 450.064 376.131 450.376 375.935C450.973 375.561 451.312 374.885 451.25 374.181C451.241 374.075 451.232 373.959 451.232 373.852C451.232 371.903 452.818 370.31 454.769 370.31C456.721 370.31 458.316 371.894 458.316 373.852C458.316 375.614 456.997 377.119 455.251 377.359C454.555 377.457 453.967 377.929 453.727 378.596C453.486 379.264 453.647 380.003 454.137 380.51C454.564 380.964 454.983 381.436 455.375 381.916C455.571 382.157 455.723 382.352 455.865 382.548C455.892 382.584 455.928 382.628 455.954 382.664C455.999 382.717 456.035 382.771 456.07 382.824C456.097 382.86 456.124 382.904 456.151 382.94C456.284 383.109 456.409 383.278 456.525 383.465C456.543 383.492 456.56 383.518 456.578 383.545C456.667 383.67 456.792 383.848 456.917 384.035C457.024 384.195 457.122 384.337 457.202 384.48C457.22 384.506 457.238 384.533 457.255 384.569C457.345 384.693 457.451 384.88 457.558 385.058C457.683 385.254 457.754 385.379 457.826 385.512C457.844 385.548 457.861 385.575 457.879 385.61C457.968 385.761 458.057 385.922 458.138 386.073L458.209 386.198C458.343 386.447 458.467 386.696 458.592 386.954C458.601 386.981 458.681 387.141 458.69 387.168C458.85 387.497 459.002 387.835 459.145 388.165C459.243 388.396 459.341 388.636 459.43 388.868C459.456 388.948 459.519 389.126 459.537 389.153C459.581 389.268 459.626 389.375 459.661 389.491C459.786 389.838 459.902 390.176 460.009 390.532C460.134 390.933 460.249 391.333 460.356 391.752C460.463 392.161 460.561 392.571 460.642 392.989C460.713 393.336 460.784 393.692 460.838 394.039C460.918 394.564 460.989 395.09 461.043 395.624C461.078 396.024 461.114 396.434 461.132 396.843C461.158 397.288 461.167 397.724 461.167 398.169C461.167 398.614 461.158 399.015 461.132 399.442C461.114 399.816 461.087 400.199 461.051 400.573C461.034 400.813 461.007 401.044 460.971 401.276C460.971 401.32 460.962 401.365 460.953 401.409C460.944 401.525 460.927 401.641 460.918 401.747C460.891 401.952 460.855 402.157 460.82 402.353C460.82 402.388 460.811 402.415 460.802 402.451C460.766 402.7 460.713 403.02 460.642 403.341C460.57 403.697 460.49 404.035 460.401 404.373C460.392 404.418 460.356 404.569 460.347 404.605C460.241 405.005 460.151 405.343 460.045 405.682C459.973 405.922 459.902 406.136 459.822 406.358C459.617 406.981 459.403 407.524 459.189 408.04C459.082 408.298 458.975 408.548 458.859 408.788C458.654 409.26 458.423 409.723 458.191 410.15C458.066 410.39 457.942 410.622 457.808 410.844C457.79 410.88 457.701 411.04 457.701 411.04C457.55 411.298 457.407 411.529 457.255 411.761C457.184 411.886 457.14 411.948 457.104 412.001C457.077 412.037 457.059 412.072 457.033 412.099C456.917 412.286 456.792 412.464 456.667 412.651C456.632 412.704 456.596 412.758 456.569 412.811C456.534 412.856 456.462 412.945 456.436 412.989C456.275 413.221 456.097 413.452 455.928 413.684C455.295 414.52 454.573 415.357 453.798 416.14C453.549 416.398 453.29 416.647 453.023 416.897C452.8 417.101 452.577 417.306 452.346 417.511C452.319 417.538 452.292 417.564 452.265 417.591C452.239 417.618 452.194 417.653 452.159 417.68C452.132 417.698 451.428 418.276 451.401 418.303C451.365 418.33 451.303 418.374 451.267 418.401C451.018 418.597 450.768 418.784 450.519 418.962C450.225 419.175 449.931 419.38 449.628 419.576C449.405 419.727 449.182 419.861 448.96 420.003L448.71 420.163C448.095 420.537 447.489 420.867 446.821 421.196C446.482 421.374 446.135 421.534 445.787 421.676C445.458 421.819 445.11 421.961 444.771 422.095C444.486 422.211 444.192 422.317 443.907 422.415C443.863 422.433 443.809 422.451 443.765 422.469C443.72 422.486 443.675 422.504 443.631 422.513C443.595 422.513 443.569 422.531 443.533 422.54C443.292 422.62 443.052 422.691 442.802 422.762C442.749 422.78 442.695 422.798 442.651 422.816C442.606 422.825 442.571 422.834 442.526 422.851C442.268 422.932 442.009 422.994 441.742 423.056C441.706 423.065 441.662 423.074 441.626 423.092C441.519 423.127 441.421 423.145 441.323 423.163C441.27 423.163 441.225 423.181 441.18 423.19C440.958 423.243 440.735 423.288 440.503 423.341C440.254 423.394 440.004 423.439 439.755 423.474V413.799L440.129 413.692C440.566 413.55 440.976 413.399 441.385 413.23C441.573 413.149 441.751 413.069 441.929 412.989L442.17 412.874C442.339 412.802 442.535 412.696 442.731 412.58C442.954 412.464 443.168 412.331 443.372 412.197C443.765 411.948 444.166 411.663 444.602 411.307C444.78 411.156 444.959 411.004 445.119 410.862C445.181 410.817 445.226 410.773 445.279 410.72C445.279 410.72 445.297 410.702 445.306 410.693C445.431 410.586 445.547 410.461 445.663 410.346C445.671 410.337 445.734 410.274 445.743 410.266C445.939 410.061 446.099 409.892 446.251 409.714C446.571 409.367 446.901 408.984 447.275 408.503C447.81 407.791 448.202 407.177 448.55 406.563C448.924 405.886 449.236 405.201 449.521 404.471C450.252 402.504 450.599 400.448 450.599 398.16C450.599 393.568 449.173 389.794 446.251 386.598C445.939 386.242 445.591 385.886 445.226 385.539C445.19 385.503 445.155 385.477 445.128 385.45C444.95 385.299 444.771 385.147 444.593 384.996C444.255 384.711 443.88 384.444 443.488 384.186C443.453 384.159 443.408 384.142 443.372 384.115C441.091 382.655 438.32 381.916 435.148 381.916C434.622 381.916 434.087 381.943 433.517 381.988H433.384C432.056 382.13 430.862 382.388 429.757 382.771C429.614 382.815 429.498 382.86 429.383 382.913C428.251 383.34 427.182 383.901 426.193 384.604C425.569 385.049 424.972 385.557 424.41 386.118C424.214 386.304 424.036 386.491 423.858 386.687C422.263 388.485 421.113 390.488 420.427 392.642L420.267 393.158L420.16 393.568C419.991 394.226 419.857 394.903 419.768 395.57C419.652 396.38 419.599 397.253 419.599 398.16C419.599 398.997 419.652 399.834 419.75 400.67C419.857 401.489 420.008 402.264 420.205 403.002C420.873 405.504 422.067 407.693 423.858 409.705C424.357 410.248 424.883 410.746 425.444 411.218C425.498 411.262 425.872 411.556 425.89 411.565L426.317 411.868C426.905 412.277 427.52 412.633 428.162 412.936C428.358 413.034 428.554 413.123 428.732 413.194L428.857 413.247C429.026 413.319 429.195 413.39 429.374 413.452L429.579 413.523C429.775 413.595 429.935 413.648 430.087 413.692C430.274 413.755 430.425 413.799 430.577 413.835C430.764 413.897 430.942 413.942 431.138 413.977L431.174 423.492L431.156 423.457Z" fill="#272827"/>
<path d="M446.934 430.577H423.062V439.14H446.934V430.577Z" fill="#E7BE4F"/>
<path d="M450.947 368.752C451.827 368.752 452.542 368.039 452.542 367.159C452.542 366.279 451.827 365.565 450.947 365.565C450.066 365.565 449.352 366.279 449.352 367.159C449.352 368.039 450.066 368.752 450.947 368.752Z" fill="#272827"/>
<path d="M455.038 368.53C455.608 368.53 456.071 368.068 456.071 367.497C456.071 366.927 455.608 366.465 455.038 366.465C454.467 366.465 454.004 366.927 454.004 367.497C454.004 368.068 454.467 368.53 455.038 368.53Z" fill="#272827"/>
<path d="M461.134 396.798C461.116 396.389 461.08 395.979 461.045 395.579C460.991 395.045 460.92 394.52 460.84 393.994C460.786 393.647 460.715 393.291 460.644 392.944C460.564 392.526 460.465 392.116 460.359 391.707C460.252 391.289 460.136 390.888 460.011 390.487C459.904 390.131 459.788 389.793 459.664 389.446C459.619 389.313 459.566 389.179 459.512 389.046C459.494 388.974 459.459 388.894 459.432 388.823C459.343 388.592 459.245 388.351 459.147 388.12C458.995 387.764 458.835 387.408 458.666 387.061C458.648 387.007 458.621 386.963 458.594 386.909C458.47 386.651 458.345 386.402 458.211 386.153C458.095 385.939 457.979 385.717 457.855 385.512C457.774 385.352 457.685 385.2 457.587 385.049C457.471 384.844 457.347 384.64 457.213 384.435C457.124 384.284 457.026 384.132 456.928 383.99C456.803 383.794 456.67 383.607 456.536 383.42C456.402 383.215 456.26 383.02 456.108 382.833C456.055 382.744 455.983 382.655 455.912 382.575C455.743 382.334 455.556 382.103 455.377 381.88C454.228 380.483 452.945 379.21 451.537 378.089C451.305 377.893 451.074 377.715 450.833 377.537C450.548 377.323 450.263 377.118 449.969 376.923C449.781 376.789 449.594 376.664 449.398 376.54C449.318 376.486 449.238 376.433 449.149 376.38C448.935 376.246 448.712 376.113 448.489 375.979C448.115 375.757 447.741 375.543 447.358 375.347C447.108 375.214 446.85 375.089 446.591 374.964C446.271 374.804 445.95 374.662 445.62 374.519C445.237 374.35 444.854 374.199 444.471 374.056C444.31 373.994 444.15 373.932 443.99 373.887C443.695 373.772 443.392 373.674 443.09 373.585C442.697 373.46 442.296 373.344 441.887 373.238H441.869C441.459 373.131 441.049 373.033 440.63 372.953C440.238 372.873 439.846 372.801 439.454 372.739C439.409 372.73 439.365 372.721 439.329 372.721C438.91 372.659 438.492 372.606 438.073 372.561H438.064C437.69 372.517 437.306 372.49 436.923 372.472C436.834 372.472 436.754 372.472 436.674 372.472C436.273 372.445 435.863 372.437 435.462 372.437H435.426C435.034 372.437 434.642 372.445 434.25 372.472C433.359 372.508 432.486 372.588 431.621 372.721C431.229 372.784 430.846 372.846 430.463 372.926C430.133 372.988 429.813 373.06 429.492 373.14C429.412 373.14 429.34 373.166 429.26 373.184C428.939 373.273 428.618 373.353 428.307 373.451C428.253 373.451 428.2 373.469 428.146 373.496C427.79 373.603 427.433 373.718 427.086 373.834C426.72 373.959 426.364 374.092 425.999 374.234C419.895 376.629 414.932 381.302 412.16 387.203C412.142 387.239 412.125 387.265 412.125 387.301C411.795 387.969 411.51 388.663 411.26 389.357C410.966 390.158 410.717 390.968 410.512 391.805C410.405 392.179 410.325 392.57 410.244 392.953C410.173 393.273 410.12 393.585 410.066 393.905C410.013 394.199 409.977 394.493 409.942 394.787C409.915 394.929 409.897 395.071 409.888 395.223C409.861 395.436 409.835 395.65 409.826 395.864C409.799 396.122 409.781 396.371 409.763 396.629C409.754 396.736 409.754 396.834 409.754 396.932C409.728 397.332 409.719 397.733 409.719 398.133C409.719 398.561 409.728 398.979 409.754 399.406C409.772 399.78 409.799 400.163 409.835 400.537C409.852 400.795 409.879 401.053 409.924 401.311C409.933 401.453 409.95 401.587 409.968 401.72C409.995 401.925 410.031 402.13 410.066 402.326C410.102 402.602 410.155 402.877 410.218 403.153C410.236 403.278 410.262 403.403 410.289 403.518C410.334 403.741 410.378 403.963 410.441 404.177C410.476 404.355 410.521 404.533 410.574 404.702C410.663 405.067 410.761 405.423 410.877 405.77C410.948 406.011 411.029 406.251 411.118 406.482C411.26 406.927 411.43 407.364 411.608 407.8C411.84 408.396 412.098 408.975 412.392 409.535C412.499 409.767 412.615 409.989 412.731 410.212L413.105 410.879C413.132 410.933 413.158 410.986 413.203 411.04C413.319 411.253 413.443 411.467 413.586 411.672C413.684 411.85 413.791 412.019 413.916 412.197C414.049 412.401 414.183 412.606 414.326 412.802C415.564 414.591 417.026 416.211 418.674 417.617C418.932 417.831 419.182 418.045 419.44 418.249C419.485 418.294 419.538 418.329 419.583 418.365C420.412 419.024 421.294 419.629 422.203 420.163C422.515 420.359 422.826 420.537 423.147 420.706C423.468 420.875 423.789 421.044 424.119 421.204C424.448 421.365 424.778 421.525 425.117 421.667C425.446 421.819 425.794 421.952 426.132 422.086C426.462 422.219 426.792 422.335 427.13 422.451C427.166 422.468 427.202 422.486 427.237 422.486C427.567 422.602 427.897 422.7 428.235 422.798C428.574 422.896 428.921 422.993 429.269 423.082C429.358 423.109 429.447 423.127 429.536 423.145C429.821 423.207 430.115 423.269 430.41 423.332C430.659 423.385 430.909 423.43 431.158 423.465V413.959C430.953 413.915 430.757 413.87 430.57 413.808C430.41 413.772 430.258 413.728 430.098 413.674C429.928 413.621 429.759 413.567 429.59 413.505C429.51 413.478 429.438 413.452 429.358 413.425C429.18 413.363 429.002 413.292 428.832 413.22C428.601 413.122 428.36 413.024 428.137 412.909C427.487 412.606 426.872 412.25 426.275 411.832C426.141 411.734 425.999 411.636 425.865 411.538C425.847 411.538 425.82 411.511 425.803 411.494C425.678 411.396 425.544 411.289 425.419 411.191C424.867 410.728 424.341 410.23 423.833 409.678C422.078 407.711 420.848 405.485 420.18 402.975C419.984 402.228 419.832 401.444 419.726 400.643C419.628 399.833 419.574 398.997 419.574 398.133C419.574 397.27 419.628 396.38 419.743 395.543C419.832 394.858 419.966 394.181 420.135 393.532C420.171 393.398 420.207 393.265 420.242 393.131C420.296 392.953 420.349 392.784 420.403 392.606C421.098 390.416 422.247 388.44 423.824 386.66C424.003 386.455 424.19 386.26 424.377 386.082C424.938 385.521 425.535 385.013 426.159 384.568C427.148 383.865 428.209 383.304 429.34 382.877C429.465 382.824 429.59 382.779 429.723 382.735C430.855 382.343 432.058 382.085 433.332 381.96C433.386 381.96 433.43 381.952 433.484 381.952C434.018 381.907 434.562 381.88 435.114 381.88C438.278 381.88 441.031 382.601 443.339 384.079C443.758 384.346 444.168 384.64 444.551 384.96C444.747 385.129 444.943 385.298 445.139 385.458C445.513 385.815 445.87 386.179 446.217 386.571C449.122 389.74 450.566 393.523 450.566 398.133C450.566 400.439 450.2 402.521 449.487 404.444C449.211 405.165 448.89 405.859 448.516 406.536C448.142 407.203 447.714 407.844 447.251 408.467H447.242C446.921 408.877 446.583 409.286 446.217 409.678C446.048 409.874 445.87 410.06 445.691 410.247C445.691 410.247 445.683 410.247 445.683 410.256C445.531 410.408 445.371 410.568 445.21 410.71C445.166 410.755 445.121 410.799 445.077 410.835C444.907 410.986 444.729 411.138 444.56 411.28C444.168 411.6 443.758 411.903 443.33 412.17C443.125 412.304 442.911 412.437 442.689 412.553C442.493 412.668 442.296 412.775 442.092 412.864C442.029 412.9 441.976 412.935 441.913 412.953C441.726 413.042 441.539 413.131 441.343 413.211C440.942 413.381 440.532 413.532 440.113 413.665C440.024 413.692 439.935 413.719 439.837 413.745C439.793 413.745 439.757 413.772 439.712 413.781V423.456C439.962 423.421 440.211 423.376 440.461 423.323C440.719 423.269 440.969 423.216 441.218 423.154C441.361 423.136 441.503 423.1 441.637 423.056C441.967 422.976 442.288 422.896 442.599 422.798C442.617 422.807 442.635 422.798 442.653 422.78C442.965 422.691 443.268 422.602 443.562 422.504C443.642 422.486 443.713 422.459 443.785 422.424C444.105 422.317 444.426 422.201 444.738 422.077C445.077 421.943 445.424 421.801 445.754 421.658C446.101 421.516 446.449 421.356 446.788 421.178C447.429 420.866 448.053 420.528 448.668 420.154C448.98 419.958 449.291 419.771 449.594 419.567C449.897 419.371 450.191 419.166 450.485 418.952C450.771 418.748 451.047 418.543 451.323 418.321C451.35 418.312 451.368 418.294 451.394 418.267C451.626 418.08 451.867 417.884 452.098 417.689C452.161 417.644 452.223 417.591 452.285 417.528C452.526 417.315 452.767 417.101 452.998 416.887C453.266 416.638 453.524 416.389 453.774 416.131C454.54 415.357 455.253 414.538 455.903 413.674C456.099 413.407 456.295 413.14 456.482 412.873C456.527 412.838 456.554 412.793 456.563 412.757C456.732 412.517 456.901 412.277 457.053 412.028C457.115 411.947 457.169 411.858 457.213 411.778C457.373 411.529 457.525 411.28 457.676 411.022C457.703 410.977 457.73 410.933 457.748 410.888C457.899 410.639 458.042 410.381 458.175 410.123C458.416 409.678 458.639 409.224 458.844 408.761C458.96 408.521 459.067 408.271 459.173 408.013C459.405 407.47 459.61 406.918 459.797 406.358C459.877 406.126 459.958 405.895 460.029 405.655C460.136 405.316 460.225 404.978 460.314 404.64C460.332 404.569 460.359 404.497 460.367 404.417C460.466 404.052 460.555 403.679 460.626 403.305C460.697 402.975 460.76 402.646 460.804 402.317C460.84 402.121 460.875 401.916 460.902 401.711C460.92 401.578 460.938 401.444 460.947 401.302C460.991 401.044 461.018 400.786 461.036 400.528C461.071 400.154 461.098 399.771 461.116 399.397C461.143 398.97 461.152 398.552 461.152 398.124C461.152 397.697 461.143 397.243 461.116 396.798H461.134Z" fill="#272827"/>
</g>
<line x1="1" y1="195.5" x2="571" y2="195.5" stroke="#4C495C"/>
<defs>
<clipPath id="clip0_1443_13223">
<rect width="393" height="175" fill="white" transform="translate(85 266)"/>
</clipPath>
</defs>
</svg>
