<svg width="467" height="290" viewBox="0 0 467 290" fill="none" xmlns="http://www.w3.org/2000/svg">
<path d="M321.752 287.907C340.354 287.907 355.434 272.853 355.434 254.283C355.434 235.713 340.354 220.659 321.752 220.659C303.15 220.659 288.07 235.713 288.07 254.283C288.07 272.853 303.15 287.907 321.752 287.907Z" stroke="#01B68A" stroke-width="0.75" stroke-miterlimit="10"/>
<path d="M308.082 218.065C317.898 218.065 325.856 210.122 325.856 200.322C325.856 190.523 317.898 182.579 308.082 182.579C298.266 182.579 290.309 190.523 290.309 200.322C290.309 210.122 298.266 218.065 308.082 218.065Z" stroke="#01B68A" stroke-width="0.75" stroke-miterlimit="10"/>
<path d="M342.922 200.322C347.83 200.322 351.809 196.35 351.809 191.451C351.809 186.551 347.83 182.579 342.922 182.579C338.014 182.579 334.035 186.551 334.035 191.451C334.035 196.35 338.014 200.322 342.922 200.322Z" stroke="#01B68A" stroke-width="0.75" stroke-miterlimit="10"/>
<path d="M410.325 287.908C440.641 287.908 465.218 263.374 465.218 233.109C465.218 202.845 440.641 178.311 410.325 178.311C380.008 178.311 355.432 202.845 355.432 233.109C355.432 263.374 380.008 287.908 410.325 287.908Z" stroke="#01B68A" stroke-width="0.75" stroke-miterlimit="10"/>
<path d="M145.587 287.929C224.649 287.929 288.741 223.947 288.741 145.021C288.741 66.0952 224.649 2.11328 145.587 2.11328C66.5257 2.11328 2.43359 66.0952 2.43359 145.021C2.43359 223.947 66.5257 287.929 145.587 287.929Z" stroke="#01B68A" stroke-width="0.75" stroke-miterlimit="10"/>
<path d="M376.31 178.289C425.044 178.289 464.55 138.851 464.55 90.2013C464.55 41.5516 425.044 2.11328 376.31 2.11328C327.577 2.11328 288.07 41.5516 288.07 90.2013C288.07 138.851 327.577 178.289 376.31 178.289Z" stroke="#01B68A" stroke-width="0.75" stroke-miterlimit="10"/>
<path d="M288.173 2.09277H2.0957V287.678H288.173V2.09277Z" stroke="#323232" stroke-width="2" stroke-linecap="round" stroke-linejoin="round"/>
<path d="M464.882 2.09277H288.172V178.499H464.882V2.09277Z" stroke="#323232" stroke-width="2" stroke-linecap="round" stroke-linejoin="round"/>
<path d="M464.879 178.499H355.512V287.678H464.879V178.499Z" stroke="#323232" stroke-width="2" stroke-linecap="round" stroke-linejoin="round"/>
<path d="M355.494 220.472H288.172V287.678H355.494V220.472Z" stroke="#323232" stroke-width="2" stroke-linecap="round" stroke-linejoin="round"/>
<path d="M330.175 178.499H288.172V220.472H330.175V178.499Z" stroke="#323232" stroke-width="2" stroke-linecap="round" stroke-linejoin="round"/>
<path d="M355.518 178.499H330.178V203.796H355.518V178.499Z" stroke="#323232" stroke-width="2" stroke-linecap="round" stroke-linejoin="round"/>
<path d="M355.516 203.796H338.77V220.472H355.516V203.796Z" stroke="#323232" stroke-width="2" stroke-linecap="round" stroke-linejoin="round"/>
<path d="M338.771 211.914H330.178V220.493H338.771V211.914Z" stroke="#323232" stroke-width="2" stroke-linecap="round" stroke-linejoin="round"/>
<path d="M2.42773 287.908C2.42773 129.935 130.491 2.11328 288.735 2.11328H288.065C385.61 2.11328 464.565 80.9113 464.565 178.31C464.565 238.905 415.457 287.929 354.758 287.929H355.429C318.184 287.929 288.065 257.841 288.065 220.68C288.065 197.267 307.054 178.31 330.508 178.31H329.837C343.985 178.31 355.429 189.734 355.429 203.858C355.429 213.148 347.904 220.68 338.577 220.68C334.113 220.68 330.487 216.768 330.487 211.934" stroke="#323232" stroke-width="2" stroke-linecap="round" stroke-linejoin="round"/>
</svg>
