<svg width="469" height="339" viewBox="0 0 469 339" fill="none" xmlns="http://www.w3.org/2000/svg">
<path d="M177.834 112.638V274.971H136.555V70.4863C159.846 70.4863 177.834 89.3466 177.834 112.623V112.638Z" fill="#07B68A"/>
<path d="M216.5 91.0082C216.5 100.708 223.24 108.806 232.317 110.901C233.8 111.261 235.358 111.44 236.945 111.44C248.239 111.44 257.39 102.294 257.39 91.0082C257.39 89.1072 257.121 87.266 256.641 85.5147C254.245 76.8929 246.337 70.5762 236.945 70.5762C225.652 70.5762 216.5 79.7219 216.5 91.0082Z" fill="#07B68A"/>
<path d="M318.736 70.5159V70.5459C320.998 76.9374 322.256 83.8229 322.256 91.0078C322.256 98.1927 321.013 105.063 318.736 111.44V111.5C354.939 111.5 383.786 142.784 379.697 179.771C376.597 207.867 353.845 230.604 325.731 233.703C288.735 237.789 257.461 208.99 257.416 172.811C251.02 175.071 244.13 176.328 236.941 176.328C229.751 176.328 222.816 175.086 216.391 172.781C216.391 231.697 266.193 278.952 326.016 274.821C376.462 271.333 417.352 230.469 420.842 180.055C424.961 120.286 377.675 70.501 318.736 70.501V70.5159Z" fill="#07B68A"/>
<path d="M94.7837 112.638V274.971H53.5039V70.4863C76.7949 70.4863 94.7837 89.3466 94.7837 112.623V112.638Z" fill="#07B68A"/>
<path d="M5.50391 111.53H469.003" stroke="#323232" stroke-width="0.25" stroke-miterlimit="10" stroke-dasharray="1 1"/>
<path d="M5.50391 70.502H469.003" stroke="#323232" stroke-width="0.25" stroke-miterlimit="10" stroke-dasharray="1 1"/>
<path d="M5.50391 275.136H469.003" stroke="#323232" stroke-width="0.25" stroke-miterlimit="10" stroke-dasharray="1 1"/>
<path d="M5.50391 234.107H469.003" stroke="#323232" stroke-width="0.25" stroke-miterlimit="10" stroke-dasharray="1 1"/>
<path d="M136.574 0V338.947" stroke="#323232" stroke-width="0.25" stroke-miterlimit="10" stroke-dasharray="1 1"/>
<path d="M177.633 0V338.947" stroke="#323232" stroke-width="0.25" stroke-miterlimit="10" stroke-dasharray="1 1"/>
<path d="M216.422 0V338.947" stroke="#323232" stroke-width="0.25" stroke-miterlimit="10" stroke-dasharray="1 1"/>
<path d="M257.48 0V338.947" stroke="#323232" stroke-width="0.25" stroke-miterlimit="10" stroke-dasharray="1 1"/>
<path d="M380.086 0V338.947" stroke="#323232" stroke-width="0.25" stroke-miterlimit="10" stroke-dasharray="1 1"/>
<path d="M421.145 0V338.947" stroke="#323232" stroke-width="0.25" stroke-miterlimit="10" stroke-dasharray="1 1"/>
<path d="M53.5156 0V338.947" stroke="#323232" stroke-width="0.25" stroke-miterlimit="10" stroke-dasharray="1 1"/>
<path d="M94.5742 0V338.947" stroke="#323232" stroke-width="0.25" stroke-miterlimit="10" stroke-dasharray="1 1"/>
<path d="M236.945 111.44C248.237 111.44 257.39 102.292 257.39 91.0082C257.39 79.7239 248.237 70.5762 236.945 70.5762C225.654 70.5762 216.5 79.7239 216.5 91.0082C216.5 102.292 225.654 111.44 236.945 111.44Z" stroke="#323232" stroke-width="0.25" stroke-miterlimit="10" stroke-dasharray="1 1"/>
<path d="M378.974 184.394C385.38 151.152 363.607 119.014 330.343 112.613C297.08 106.211 264.922 127.97 258.516 161.212C252.111 194.454 273.883 226.592 307.147 232.993C340.41 239.395 372.569 217.636 378.974 184.394Z" stroke="#323232" stroke-width="0.25" stroke-miterlimit="10" stroke-dasharray="1 1"/>
<path d="M391.045 245.052C430.967 205.156 430.967 140.471 391.045 100.575C351.124 60.6795 286.398 60.6795 246.476 100.575C206.554 140.471 206.554 205.156 246.476 245.052C286.398 284.947 351.124 284.947 391.045 245.052Z" stroke="#323232" stroke-width="0.25" stroke-miterlimit="10" stroke-dasharray="1 1"/>
<path d="M174.348 126.99C182.99 106.14 173.082 82.2356 152.218 73.5989C131.354 64.9623 107.435 74.8637 98.7926 95.7144C90.1504 116.565 100.058 140.469 120.922 149.106C141.786 157.742 165.706 147.841 174.348 126.99Z" stroke="#323232" stroke-width="0.25" stroke-miterlimit="10" stroke-dasharray="1 1"/>
<path d="M236.945 176.329C270.82 176.329 298.28 148.886 298.28 115.033C298.28 81.1805 270.82 53.7373 236.945 53.7373C203.07 53.7373 175.609 81.1805 175.609 115.033C175.609 148.886 203.07 176.329 236.945 176.329Z" stroke="#323232" stroke-width="0.25" stroke-miterlimit="10" stroke-dasharray="1 1"/>
<path d="M260.91 152.304C294.784 152.304 322.245 124.861 322.245 91.0079C322.245 57.1551 294.784 29.7119 260.91 29.7119C227.035 29.7119 199.574 57.1551 199.574 91.0079C199.574 124.861 227.035 152.304 260.91 152.304Z" stroke="#323232" stroke-width="0.25" stroke-miterlimit="10" stroke-dasharray="1 1"/>
<path d="M91.6762 127.002C100.318 106.151 90.4106 82.2472 69.5465 73.6106C48.6825 64.974 24.7629 74.8754 16.1207 95.7261C7.47853 116.577 17.3863 140.481 38.2504 149.117C59.1145 157.754 83.0341 147.853 91.6762 127.002Z" stroke="#323232" stroke-width="0.25" stroke-miterlimit="10" stroke-dasharray="1 1"/>
</svg>
