<svg width="371" height="323" viewBox="0 0 371 323" fill="none" xmlns="http://www.w3.org/2000/svg">
<g clip-path="url(#clip0_1443_15529)">
<path d="M198.317 314.369C197.813 314.252 197.445 314.058 197.173 313.729C196.979 313.496 196.708 312.972 196.553 311.925C196.417 310.955 196.339 309.539 196.339 307.755V285.061C196.339 281.687 196.01 278.661 195.331 276.062C194.652 273.366 193.43 271.096 191.724 269.293C190.017 267.489 187.787 266.131 185.072 265.239C182.415 264.366 179.079 263.92 175.181 263.92C172.892 263.92 170.526 264.114 168.141 264.502C165.755 264.89 163.564 265.452 161.605 266.15C159.608 266.868 157.959 267.702 156.679 268.652C155.205 269.739 154.468 270.941 154.468 272.28C154.468 273.094 154.682 274.122 155.147 275.383C155.574 276.605 156.117 277.749 156.757 278.797L157.048 279.262H159.026L159.278 279.088C161.373 277.613 163.583 276.43 165.833 275.577C168.044 274.743 170.817 274.316 174.056 274.316C178.342 274.316 181.232 275.111 182.647 276.702C184.082 278.312 184.819 280.736 184.819 283.917V284.577C184.373 284.557 183.908 284.538 183.423 284.538H181.038C178.226 284.615 175.084 284.926 171.729 285.469C168.296 286.012 165.038 287.059 162.032 288.553C158.987 290.066 156.388 292.18 154.313 294.818C152.18 297.514 151.113 301.024 151.113 305.233C151.113 308.608 151.676 311.44 152.801 313.632C153.925 315.843 155.36 317.608 157.087 318.927C158.793 320.226 160.752 321.138 162.866 321.642C164.922 322.108 166.977 322.36 168.994 322.36C173.416 322.36 177.043 321.642 179.796 320.246C181.93 319.159 183.869 317.86 185.537 316.386C186.099 318.248 187.185 319.606 188.756 320.459C190.637 321.487 192.868 322.011 195.389 322.011C196.475 322.011 197.561 321.933 198.589 321.778C199.636 321.603 200.509 321.409 201.226 321.157L201.886 320.924V314.601H200.916C199.849 314.601 198.996 314.524 198.356 314.388L198.317 314.369ZM184.916 304.748C184.916 305.427 184.587 306.184 183.947 306.998C183.229 307.91 182.24 308.763 180.979 309.539C179.699 310.334 178.206 311.013 176.519 311.576C174.851 312.119 173.086 312.39 171.224 312.39C167.869 312.39 165.581 311.634 164.437 310.121C163.215 308.511 162.614 306.727 162.614 304.632C162.614 302.401 163.157 300.675 164.282 299.356C165.445 297.979 166.997 296.893 168.878 296.117C170.817 295.302 173.009 294.759 175.394 294.449C177.838 294.139 180.262 294.003 182.609 294.003H184.897V304.748H184.916Z" fill="#282564"/>
<path d="M76.5854 277.731C75.7903 274.162 73.9285 271.117 71.0582 268.731C68.188 266.345 64.1541 265.123 59.0536 265.123C55.0973 265.123 51.5095 265.86 48.4259 267.315C45.8271 268.537 43.655 269.953 41.9484 271.563C40.4357 269.487 38.3606 267.936 35.7231 266.888C32.7558 265.724 29.8274 265.143 27.0153 265.143C23.1366 265.143 19.6651 265.841 16.6785 267.218C14.3707 268.265 12.1016 269.817 10.492 271.194C9.92953 269.895 9.15379 268.731 8.18411 267.742C6.10899 265.608 3.23873 264.309 0 264.309V321.352H11.5392V282.599C11.5392 281.92 11.8495 281.202 12.4507 280.446C13.1295 279.593 14.0216 278.817 15.1464 278.118C16.2712 277.42 17.5706 276.858 19.0251 276.431C20.4603 276.004 21.9924 275.791 23.5439 275.791C28.6832 275.791 31.6892 277.401 32.7752 280.756C33.1243 281.804 33.3764 283.006 33.5122 284.325C33.6673 285.683 33.7449 287.138 33.7449 288.67V321.333H45.2841V288.224C45.2841 286.73 45.2453 285.256 45.1678 283.821C45.0902 282.58 44.9932 281.358 44.8574 280.194C45.8271 279.146 47.2429 278.157 49.0659 277.265C51.0634 276.276 53.2549 275.791 55.5627 275.791C58.6657 275.791 60.9736 276.276 62.4087 277.207C63.8244 278.138 64.7553 279.418 65.2401 281.202C65.5892 282.23 65.7832 283.375 65.8026 284.577C65.8413 285.896 65.8607 287.254 65.8607 288.67V321.333H77.3999V288.321C77.3999 286.614 77.3612 284.81 77.2836 282.929C77.206 281.028 76.9539 279.282 76.5854 277.731Z" fill="#282564"/>
<path d="M142.7 267.276C141.808 266.907 140.858 266.655 139.83 266.481C138.841 266.325 137.891 266.248 137.018 266.248C134.051 266.248 131.413 267.004 129.144 268.498C128.097 269.196 126.584 270.496 125.42 271.601C123.733 267.315 119.68 264.27 114.754 264.27V321.313H126.254V284.034C126.254 283.219 126.468 282.463 126.914 281.706C127.379 280.911 128.019 280.194 128.814 279.554C129.629 278.913 130.579 278.39 131.626 278.021C132.693 277.653 133.818 277.459 134.962 277.459C136.552 277.459 137.852 277.672 138.86 278.118C139.888 278.564 140.858 279.204 141.75 280.019L142.584 280.795L143.224 279.844C143.864 278.894 144.484 277.691 145.105 276.256C145.764 274.743 146.094 273.308 146.094 271.97C146.094 270.748 145.745 269.739 145.066 268.963C144.446 268.246 143.631 267.683 142.681 267.295L142.7 267.276Z" fill="#282564"/>
<path d="M278.977 267.276C278.085 266.907 277.135 266.655 276.107 266.481C275.118 266.325 274.168 266.248 273.295 266.248C270.328 266.248 267.69 267.004 265.421 268.498C264.374 269.196 262.861 270.496 261.698 271.601C260.01 267.315 255.957 264.27 251.031 264.27V321.313H262.532V284.034C262.532 283.219 262.745 282.463 263.191 281.706C263.657 280.911 264.296 280.194 265.092 279.554C265.906 278.913 266.856 278.39 267.904 278.021C268.97 277.653 270.095 277.459 271.239 277.459C272.83 277.459 274.129 277.672 275.138 278.118C276.165 278.564 277.135 279.204 278.027 280.019L278.861 280.795L279.501 279.844C280.141 278.894 280.762 277.691 281.382 276.256C282.042 274.743 282.371 273.308 282.371 271.97C282.371 270.748 282.022 269.739 281.343 268.963C280.723 268.246 279.908 267.683 278.958 267.295L278.977 267.276Z" fill="#282564"/>
<path d="M90.3359 264.27V321.313H101.836V276.023C101.836 269.526 96.8328 264.27 90.3359 264.27Z" fill="#282564"/>
<path d="M94.7969 256.744C95.2042 256.841 95.6502 256.899 96.0963 256.899C99.238 256.899 101.798 254.339 101.798 251.197C101.798 250.673 101.72 250.149 101.585 249.664C100.925 247.259 98.7144 245.494 96.0963 245.494C92.9545 245.494 90.3945 248.054 90.3945 251.197C90.3945 253.893 92.2757 256.162 94.7969 256.744Z" fill="#282564"/>
<path d="M291.254 264.27V321.313H302.754V276.023C302.754 269.526 297.751 264.27 291.254 264.27Z" fill="#282564"/>
<path d="M295.715 256.744C296.122 256.841 296.568 256.899 297.014 256.899C300.156 256.899 302.716 254.339 302.716 251.197C302.716 250.673 302.638 250.149 302.503 249.664C301.843 247.259 299.632 245.494 297.014 245.494C293.872 245.494 291.312 248.054 291.312 251.197C291.312 253.893 293.194 256.162 295.715 256.744Z" fill="#282564"/>
<path d="M365.51 266.868C360.118 263.241 353.932 263.474 351.411 267.217L340.608 283.277L329.806 267.217C327.285 263.474 321.098 263.241 315.707 266.868L333.685 293.596L315.707 319.819C321.098 323.446 327.285 323.213 329.806 319.47L340.608 303.914L351.411 319.47C353.932 323.213 360.118 323.446 365.51 319.819L347.532 293.596L365.51 266.868Z" fill="#282564"/>
<path d="M238.715 308.337L237.881 307.289L237.144 308.395C237.144 308.395 236.911 308.705 236.213 309.365C235.69 309.85 235.03 310.373 234.235 310.897C233.459 311.421 232.587 311.886 231.598 312.255C230.667 312.623 229.639 312.817 228.572 312.817C225.838 312.817 222.211 311.964 222.211 304.535V276.411H234.895V266.228H222.172V261.748C222.172 258.509 220.912 255.561 218.856 253.427C217.13 251.662 214.842 250.44 212.243 250.091C211.739 250.013 211.215 249.975 210.672 249.975V303.856C210.672 305.524 210.73 307.231 210.846 308.938C210.963 310.723 211.312 312.391 211.855 313.884C212.902 316.716 214.706 318.946 217.208 320.576C217.615 320.828 218.022 321.08 218.468 321.293C220.776 322.418 223.666 322.981 227.079 322.981C229.251 322.981 231.287 322.748 233.13 322.283C234.972 321.817 236.543 321.216 237.823 320.498C239.122 319.761 240.15 318.966 240.907 318.093C241.74 317.123 242.148 316.173 242.148 315.261C242.148 314.117 241.779 312.914 241.042 311.712C240.383 310.626 239.588 309.481 238.657 308.337H238.715Z" fill="#282564"/>
<path d="M125.478 42.574V206.547H83.8203V0C107.325 0 125.478 19.0662 125.478 42.574Z" fill="#07B68A"/>
<path d="M164.496 20.7348C164.496 30.5297 171.303 38.7148 180.457 40.8289C181.95 41.1974 183.521 41.372 185.131 41.372C196.534 41.372 205.766 32.1396 205.766 20.7348C205.766 18.8146 205.494 16.9526 205.009 15.1875C202.605 6.47877 194.614 0.078125 185.131 0.078125C173.727 0.078125 164.496 9.31058 164.496 20.7154V20.7348Z" fill="#282564"/>
<path d="M267.689 0.0390625V0.0778543C269.977 6.53669 271.238 13.4998 271.238 20.7539C271.238 28.008 269.977 34.9517 267.689 41.3911V41.4493C304.227 41.4493 333.336 73.0646 329.225 110.402C326.103 138.778 303.141 161.743 274.768 164.865C237.435 168.997 205.862 139.903 205.823 103.361C199.365 105.65 192.403 106.91 185.15 106.91C177.897 106.91 170.895 105.65 164.418 103.322C164.418 162.829 214.686 210.562 275.059 206.392C325.967 202.881 367.256 161.588 370.766 110.673C374.916 50.3132 327.189 0.0390625 267.689 0.0390625Z" fill="#07B68A"/>
<path d="M41.6575 42.574V206.547L0 206.528V0C23.5051 0 41.6575 19.0662 41.6575 42.574Z" fill="#07B68A"/>
</g>
<defs>
<clipPath id="clip0_1443_15529">
<rect width="371" height="323" fill="white"/>
</clipPath>
</defs>
</svg>
